/* XPM */
static char *_d5308dbb75c42688b5f579bb2691c00fLZtChIxsEUbHuZC[] = {
/* columns rows colors chars-per-pixel */
"39 50 165 2 ",
"   c None",
".  c #090810",
"X  c #0A0912",
"o  c #0B0A14",
"O  c #0C0B14",
"+  c #0C0B16",
"@  c #0C0C15",
"#  c #0D0C17",
"$  c #0D0C18",
"%  c #0E0D18",
"&  c #0E0D19",
"*  c #0E0E18",
"=  c #0F0D1A",
"-  c #0F0D1B",
";  c #130910",
":  c #190810",
">  c #100E1C",
",  c #100F1C",
"<  c #110F1E",
"1  c #10101B",
"2  c #11111C",
"3  c #12101F",
"4  c #12111F",
"5  c #200D17",
"6  c #2E0910",
"7  c #340C12",
"8  c #3E0910",
"9  c #24101E",
"0  c #26101E",
"q  c #3A121C",
"w  c #3D131D",
"e  c #0B1624",
"r  c #081825",
"t  c #0D1826",
"y  c #121020",
"u  c #121120",
"i  c #131220",
"p  c #131122",
"a  c #141220",
"s  c #151421",
"d  c #151522",
"f  c #151324",
"g  c #161424",
"h  c #161725",
"j  c #171725",
"k  c #161526",
"l  c #171627",
"z  c #1C1120",
"x  c #181625",
"c  c #191725",
"v  c #171826",
"b  c #181628",
"n  c #181728",
"m  c #161B29",
"M  c #191829",
"N  c #1A1929",
"B  c #191A29",
"V  c #19192A",
"C  c #1C1A29",
"Z  c #1A1A2C",
"A  c #1B1B2D",
"S  c #1C1A2C",
"D  c #1D1B2F",
"F  c #1C1D2D",
"G  c #1C1D2F",
"H  c #1F1D31",
"J  c #1D1E30",
"K  c #1E1F31",
"L  c #221020",
"P  c #261424",
"I  c #2B1524",
"U  c #291828",
"Y  c #351422",
"T  c #3D1520",
"R  c #361B2B",
"E  c #311C2D",
"W  c #3B1C2A",
"Q  c #201F33",
"!  c #172233",
"~  c #1F2133",
"^  c #222035",
"/  c #222135",
"(  c #212235",
")  c #212335",
"_  c #222235",
"`  c #232337",
"'  c #262439",
"]  c #252639",
"[  c #26253A",
"{  c #27253B",
"}  c #26273A",
"|  c #27273B",
" . c #29273D",
".. c #2A273E",
"X. c #2A273F",
"o. c #22283D",
"O. c #28293D",
"+. c #2A293E",
"@. c #420E15",
"#. c #4B0F16",
"$. c #420F18",
"%. c #470D1A",
"&. c #440F1B",
"*. c #750C0F",
"=. c #790B0F",
"-. c #730D10",
";. c #790D10",
":. c #7F0D10",
">. c #651018",
",. c #63121C",
"<. c #68141C",
"1. c #73111A",
"2. c #551420",
"3. c #571622",
"4. c #6C1720",
"5. c #7A1722",
"6. c #2B2940",
"7. c #2A2A40",
"8. c #2C2C42",
"9. c #2E2D44",
"0. c #2F2F46",
"q. c #302D46",
"w. c #322E48",
"e. c #2E3149",
"r. c #313048",
"t. c #33304A",
"y. c #31324B",
"u. c #35324C",
"i. c #393752",
"p. c #3A3753",
"a. c #413D5B",
"s. c #860C0F",
"d. c #8C0C0F",
"f. c #870B10",
"g. c #870D10",
"h. c #850E11",
"j. c #890B10",
"k. c #890D10",
"l. c #8D0C10",
"z. c #910C10",
"x. c #970C10",
"c. c #990C10",
"v. c #8B1114",
"b. c #8C131B",
"n. c #A00C11",
"m. c #A20D11",
"M. c #A70D11",
"N. c #A80C11",
"B. c #B60D12",
"V. c #B00F14",
"C. c #B80D12",
"Z. c #A01216",
"A. c #A2151D",
"S. c #DC181F",
"D. c #E51A22",
"F. c #EE1C24",
"G. c #AD6E61",
"H. c #B56A60",
"J. c #B77E6B",
"K. c #C37E6D",
"L. c #C5816F",
"P. c #D2AB91",
"I. c #E0A788",
"U. c #D3B8AA",
"Y. c #F6DAC2",
/* pixels */
"                                                                              ",
"                                                          =.                  ",
"                                                      =.j.N.=.                ",
"                                                      j.C.N.=.                ",
"                                                    k.B.m.m.x.=.              ",
"                                                  ;.N.g.-.d.g.c.              ",
"                                                  z.h.M.M.;.V.g.z.            ",
"                                                  z.h.Z.S.v.D.g.z.            ",
"                                                  ;.c.g.:.;.s.k.z.            ",
"                                                    =.x.g.;.*.m.j.            ",
"                                                      =.6 8 N.                ",
"                                                        : :                   ",
"                                                        . .                   ",
"                                                        . .                   ",
"                                                        . .                   ",
"                                                        .                     ",
"                                                        .                     ",
"                                                        N                     ",
"                                p D H 4                 c 8.                  ",
"                                D o.! m 1             k d a.                  ",
"                              p e.w r &.R .         } B .                     ",
"                              p e.w t %.R .       i.} N .                     ",
"                      a.    - p y.t p k Z S   + o +.)   . F.                  ",
"                      8.i.( d 4  .y.G N > S % p p @     . F.                  ",
"                      w.9.u.( q.p d p x  .+ p < @     b..                     ",
"                      ' ( 9.w.2.( b ( ' b + p + %   F.                        ",
"                      ~ Z  .L P 1.3.q.I &.o %         b.A.                    ",
"            L.Y.      k Z G U ,.( W 4.T z @.            >.                    ",
"          H.P.U.J.    H k p   Z 1.3.O.U &.                                    ",
"          H.G.J.J.     .(     b ( q <.w 9                                     ",
"            K.I.H.  N ( q.      Y +.f L 5                                     ",
"                    H )         3.5.#.7 ;                                     ",
"                  7.y.+.    p G Z Q . + + .                                   ",
"              H Q +.~       G N G c < N k .                                   ",
"                H H       p Z f ' v D b p % .                                 ",
"                        k k N b 4 4 k f p < .                                 ",
"                        p H k ~ | @ f ~ Z p +                                 ",
"                        k N J ' ~ @ b ) ( N +                                 ",
"                          p w.6.G   p ) G ) 4                                 ",
"                          f | b     v v . v N                                 ",
"                        k ~ ~ k     . y < %                                   ",
"                        b ) k p     4 % . .                                   ",
"                          G p       . . .                                     ",
"                          G p       . . .                                     ",
"                          H p       . .                                       ",
"                        N n p         % 4                                     ",
"                        H p             p                                     ",
"                        G p                                                   ",
"                                                                              ",
"                                                                              "
};
