/* XPM */
static char *_81f734c36414d8cdc6f989417a10546xQ2PMCDmQr4alf6w[] = {
/* columns rows colors chars-per-pixel */
"45 50 162 2 ",
"   c None",
".  c #090810",
"X  c #0A0912",
"o  c #0B0A14",
"O  c #0C0B16",
"+  c #0D0C18",
"@  c #0E0D19",
"#  c #0F0D1A",
"$  c #0F0D1B",
"%  c #100E1C",
"&  c #100F1C",
"*  c #110F1E",
"=  c #10101B",
"-  c #11101C",
";  c #280A10",
":  c #2E0910",
">  c #2E0A10",
",  c #220D18",
"<  c #310C14",
"1  c #360E16",
"2  c #3E0910",
"3  c #3B0D15",
"4  c #26101E",
"5  c #2F101C",
"6  c #35101C",
"7  c #38101A",
"8  c #3D1019",
"9  c #3D131D",
"0  c #0F1423",
"q  c #0C1524",
"w  c #071925",
"e  c #121020",
"r  c #131122",
"t  c #141220",
"y  c #131420",
"u  c #151324",
"i  c #161624",
"p  c #161526",
"a  c #171627",
"s  c #1C1120",
"d  c #181625",
"f  c #191727",
"g  c #181728",
"h  c #181828",
"j  c #191829",
"k  c #191929",
"l  c #1A1829",
"z  c #191A29",
"x  c #19192A",
"c  c #1B192B",
"v  c #1A1A2C",
"b  c #1B1A2D",
"n  c #1B1B2D",
"m  c #1C1A2D",
"M  c #1D1B2F",
"N  c #1C1D2D",
"B  c #1C1D2F",
"V  c #1F1D31",
"C  c #1E1E31",
"Z  c #1E1F31",
"A  c #221020",
"S  c #221621",
"D  c #261424",
"F  c #291828",
"G  c #2C1C2D",
"H  c #351422",
"J  c #3A1A28",
"K  c #3E1C29",
"L  c #3D1E2D",
"P  c #211F32",
"I  c #201F33",
"U  c #1E2031",
"Y  c #1F2133",
"T  c #232133",
"R  c #222035",
"E  c #222135",
"W  c #212235",
"Q  c #212335",
"!  c #252337",
"~  c #252539",
"^  c #27253B",
"/  c #27273B",
"(  c #28273C",
")  c #29273D",
"_  c #2A273E",
"`  c #21293D",
"'  c #27283D",
"]  c #29283D",
"[  c #28293D",
"{  c #29283E",
"}  c #292A3F",
"|  c #430B10",
" . c #480C10",
".. c #520D10",
"X. c #550C12",
"o. c #510E1A",
"O. c #6C0A0F",
"+. c #790B0F",
"@. c #7D0A0F",
"#. c #670E10",
"$. c #700D15",
"%. c #790D10",
"&. c #7F0F19",
"*. c #63121C",
"=. c #74131C",
"-. c #4B1321",
";. c #551420",
":. c #571622",
">. c #661620",
",. c #631A25",
"<. c #2B2940",
"1. c #2A2A40",
"2. c #2C2B42",
"3. c #2E2B42",
"4. c #2C2C42",
"5. c #2F2B44",
"6. c #2E2D44",
"7. c #2F2F46",
"8. c #302D46",
"9. c #3D2C42",
"0. c #322E48",
"q. c #313048",
"w. c #33314A",
"e. c #34334C",
"r. c #36344E",
"t. c #393752",
"y. c #3A3753",
"u. c #413D5B",
"i. c #734E46",
"p. c #810B0F",
"a. c #860C0F",
"s. c #8C0C0F",
"d. c #920C0F",
"f. c #9E0B0F",
"g. c #850E11",
"h. c #890B10",
"j. c #8D0C10",
"k. c #910C10",
"l. c #910D10",
"z. c #910D11",
"x. c #990C10",
"c. c #980D11",
"v. c #9B0D11",
"b. c #A60B10",
"n. c #A00C11",
"m. c #A90C10",
"M. c #A80C11",
"N. c #A80D11",
"B. c #B00D11",
"V. c #B80D11",
"C. c #B80D12",
"Z. c #C00D12",
"A. c #996458",
"S. c #B56A60",
"D. c #C0796A",
"F. c #C37E6D",
"G. c #C5816F",
"H. c #CA8974",
"J. c #D5987E",
"K. c #E5AF8D",
"L. c #F6DAC2",
"P. c #FFEFDD",
/* pixels */
"                                                                                          ",
"                                                                                          ",
"                                                                                          ",
"                                                                                          ",
"                                                                                          ",
"                                                                    +.                    ",
"                                                                    +.                    ",
"                                                                    +.+.                  ",
"                                                                  +.+.h.+.                ",
"                                          r r r                   +.+.C.h.                ",
"                                        r R u.4..                 +.Z.Z.k.+.              ",
"                                      r M ` w w k =               @.Z.C.Z.n.+.            ",
"                                      r 0.9 9 q &.k             %.v.g.k.M.V.x.+.          ",
"                                      r 0.S S 0 -.k             h.k.#.+.f.b.M.+.          ",
"                              u.      r 0.w 0 r k k             k.g.O.O.O.f.M.+.          ",
"                              y.e.  & r ^ ] b g k k P O         j.c.s.@.: ..N.+.          ",
"                              w.w.r.k ) f R b k a T & e         k.Z.; a.d.v.j.            ",
"                              ) ) 4.4.' k R - $ ) g & O %       p.B.. | %.N.+.            ",
"                            6.Y b u.^ o.:.J ^ 6.s , $ r O         +.. 2 N.j.              ",
"                            C Y k 0.A D :.*.9.] 7 1 . & %           . > +.                ",
"                  J.P.      a k k C F *.L G >.,.4 4 < - + $         .                     ",
"                G.L.P.J.      B r r   g $.=.R r.5 #.    % 3.u.    . .                     ",
"                D.i.G.A.    b T C     C Y H :.K 8       y Q R u.  . .                     ",
"                S.H.K.F.    C ^ 6.      a Y H 6 r         Q Q }   .                       ",
"                  G.K.S.  B Y 8.'       $.R C r 3         r.] Q Q .                       ",
"                        r.6.R R       a Y $.X. .. .         t.' ( .                       ",
"                        1.8.w.      r B C b - o O o           4.^ $                       ",
"                    B R ] C       r B k b k r - k % .         6.C B                       ",
"                    Q B B         r B r C 3.$ B r r $                                     ",
"                      Q         a r g g k o k C r r o .                                   ",
"                                a B g g ^ $ e r k r % .         .                         ",
"                                r R u ) ^ a $ k Y k r .         .                         ",
"                                B r ^ ^ R   $ B   Q v .         .                         ",
"                                  r 8.1.^   $   R Y Y .         .                         ",
"                                  r / k a       B - = f       .                           ",
"                                r Q R k       . O y O Q       .                           ",
"                                B Q k r       + - $ . .       .                           ",
"                                a Q r           o . .         .                           ",
"                                B h r           . . .                                     ",
"                                R r           . . .         .                             ",
"                                C r             . .                                       ",
"                              R g r             O %                                       ",
"                              Y u               $ r                                       ",
"                              B r                                                         ",
"                              B r                                                         ",
"                                                                                          ",
"                                                                                          ",
"                                                                                          ",
"                                                                                          ",
"                                                                                          "
};
