/* XPM */
static char *_2fdd576b82848c098e01d7f9ffdc5435TWWO6IDH47snzU6[] = {
/* columns rows colors chars-per-pixel */
"44 50 119 2 ",
"   c None",
".  c #090810",
"X  c #0A0912",
"o  c #0B0A14",
"O  c #0C0B16",
"+  c #0D0B16",
"@  c #0D0C17",
"#  c #0E0C18",
"$  c #0E0D19",
"%  c #0F0D1A",
"&  c #0F0D1B",
"*  c #0F0F1A",
"=  c #0F0E1C",
"-  c #110C17",
";  c #100E1C",
":  c #11101E",
">  c #14131F",
",  c #230910",
"<  c #240C14",
"1  c #250F1A",
"2  c #2F121E",
"3  c #131221",
"4  c #131122",
"5  c #101323",
"6  c #141321",
"7  c #141322",
"8  c #151322",
"9  c #131623",
"0  c #141423",
"q  c #141224",
"w  c #141324",
"e  c #151324",
"r  c #161526",
"t  c #161527",
"y  c #1D1521",
"u  c #171728",
"i  c #191828",
"p  c #181928",
"a  c #181829",
"s  c #19182A",
"d  c #19192A",
"f  c #1A192A",
"g  c #1A1A2B",
"h  c #1B1B2C",
"j  c #1B1A2D",
"k  c #1C1B2C",
"l  c #1C1A2D",
"z  c #1C1B2D",
"x  c #1B1C2D",
"c  c #1C1C2C",
"v  c #1C1C2E",
"b  c #1D1C2E",
"n  c #1E1D2F",
"m  c #1D1E2F",
"M  c #1E1B30",
"N  c #1E1C30",
"B  c #1D1E30",
"V  c #1F1F31",
"C  c #271B2C",
"Z  c #2D1B2C",
"A  c #321422",
"S  c #3D1320",
"D  c #3A1522",
"F  c #3D1420",
"G  c #3D1624",
"H  c #331C2C",
"J  c #201E31",
"K  c #211F33",
"L  c #221F34",
"P  c #1F2032",
"I  c #192335",
"U  c #1F2135",
"Y  c #202033",
"T  c #202133",
"R  c #212335",
"E  c #232237",
"W  c #242338",
"Q  c #252338",
"!  c #252339",
"~  c #252439",
"^  c #252639",
"/  c #21283C",
"(  c #29283E",
")  c #292A3E",
"_  c #2A2A3F",
"`  c #322538",
"'  c #3B283D",
"]  c #5A0B10",
"[  c #5B0C10",
"{  c #790B0F",
"}  c #7F0B0F",
"|  c #780C0F",
" . c #650C10",
".. c #690C10",
"X. c #760C10",
"o. c #471621",
"O. c #451623",
"+. c #4D1926",
"@. c #4A1F2E",
"#. c #551420",
"$. c #521724",
"%. c #2D2C43",
"&. c #2E2D44",
"*. c #33324A",
"=. c #36334D",
"-. c #860B0F",
";. c #810C0F",
":. c #880C0F",
">. c #820D10",
",. c #860D10",
"<. c #8F0D10",
"1. c #900C10",
"2. c #920C10",
"3. c #9D0C11",
"4. c #A60C11",
"5. c #A97062",
"6. c #BB7F6C",
"7. c #CC9B85",
"8. c #DCB7A6",
/* pixels */
"                                                                                        ",
"                                                                                        ",
"                                                                                        ",
"                                                                                        ",
"                                                                                        ",
"                                                                                        ",
"                                                                                        ",
"                                                                                        ",
"                                                                                        ",
"                                                                                        ",
"                                                                                        ",
"                                                                                        ",
"                                                                                        ",
"                                                                                        ",
"                                                                                        ",
"                                                                                        ",
"                                                                                        ",
"                                                                                        ",
"                                                                                        ",
"                                                                                        ",
"                                                                                        ",
"                                                                                        ",
"                                                                                        ",
"                                                {                                       ",
"                                                }                                       ",
"                                              3.4.                                      ",
"                                            2.,.<.2.                                    ",
"                                            ;.-.:...                                    ",
"                                U I 9       >.] [  .                                    ",
"                              M ` y G .       X.|                                       ",
"                              l / 5 s >         ,                                       ",
"                          *.Q k K h s 8 %                                               ",
"                          Q =.H v k C @ %                                               ",
"                        h x N O.#.' D o %                                               ",
"                  7.8.    u x G +.@.A   9 %.~ *                                         ",
"                  5.6.  l Q   v C O.2     E ) c F                                       ",
"                        l %.    $.F <         >                                         ",
"                      %.(     s Z 1 - .       .                                         ",
"                    T E     s s v 8 p o       .                                         ",
"                          s 8 s : u w ;       .                                         ",
"                          w s ~ x 8 v w                                                 ",
"                            E ~ s : R m                                                 ",
"                            N s     8 :                                                 ",
"                          s T w     ; .                                                 ",
"                            w       . .                                                 ",
"                          T w       .                                                   ",
"                          s         @                                                   ",
"                          u                                                             ",
"                                                                                        ",
"                                                                                        "
};
