/* XPM */
static char *_2ca92d5f1564512d9dc826510f46d50KpMM38bRcPX8zjeg[] = {
/* columns rows colors chars-per-pixel */
"39 50 134 2 ",
"   c None",
".  c #090810",
"X  c #0B0A14",
"o  c #0E0C18",
"O  c #0F0D1B",
"+  c #0F0E1B",
"@  c #140910",
"#  c #140C16",
"$  c #100E1C",
"%  c #110F1D",
"&  c #110F1E",
"*  c #10101B",
"=  c #10101C",
"-  c #11111C",
";  c #11111D",
":  c #11101F",
">  c #290910",
",  c #230E1A",
"<  c #300910",
"1  c #3F0910",
"2  c #380E17",
"3  c #30131F",
"4  c #0F1423",
"5  c #121020",
"6  c #131122",
"7  c #141221",
"8  c #141222",
"9  c #141322",
"0  c #151322",
"q  c #131623",
"w  c #151422",
"e  c #161525",
"r  c #171525",
"t  c #161526",
"y  c #161527",
"u  c #171627",
"i  c #1D1521",
"p  c #181725",
"a  c #181827",
"s  c #171628",
"d  c #171728",
"f  c #181728",
"g  c #181729",
"h  c #191A28",
"j  c #19182A",
"k  c #19192A",
"l  c #1A1B2A",
"z  c #1A1A2B",
"x  c #1B1A2B",
"c  c #1C1A29",
"v  c #1A1A2C",
"b  c #1A1B2C",
"n  c #1B1B2D",
"m  c #1C1B2C",
"M  c #1C1A2D",
"N  c #1D1B2E",
"B  c #1B1C2D",
"V  c #1D1D2E",
"C  c #1C1E2E",
"Z  c #1E1B30",
"A  c #1E1D30",
"S  c #1D1E30",
"D  c #1E1F31",
"F  c #1F1E32",
"G  c #1F1F32",
"H  c #20192A",
"J  c #231B2C",
"K  c #261E2D",
"L  c #291D2E",
"P  c #331523",
"I  c #371420",
"U  c #3B1726",
"Y  c #3D1624",
"T  c #221F33",
"R  c #2A1E30",
"E  c #2D1F33",
"W  c #162132",
"Q  c #1F2032",
"!  c #192335",
"~  c #212034",
"^  c #212235",
"/  c #212335",
"(  c #232136",
")  c #232137",
"_  c #212337",
"`  c #232337",
"'  c #242237",
"]  c #242338",
"[  c #27253B",
"{  c #29283E",
"}  c #29293E",
"|  c #35283D",
" . c #490C11",
".. c #570A10",
"X. c #5E0C10",
"o. c #59121D",
"O. c #790B0F",
"+. c #640B10",
"@. c #6B0C10",
"#. c #6C0C10",
"$. c #740C11",
"%. c #780C10",
"&. c #780D10",
"*. c #7D0D10",
"=. c #431421",
"-. c #451623",
";. c #4F1420",
":. c #4C1825",
">. c #4C1B27",
",. c #4D2131",
"<. c #2C2A41",
"1. c #2D2D43",
"2. c #2E2D44",
"3. c #2F2D45",
"4. c #313048",
"5. c #323149",
"6. c #3B3853",
"7. c #860D10",
"8. c #890C10",
"9. c #880D10",
"0. c #8C0C10",
"q. c #8D0C10",
"w. c #8F0C10",
"e. c #910D10",
"r. c #9B0C10",
"t. c #9B0D11",
"y. c #A30D11",
"u. c #B56A60",
"i. c #AB7363",
"p. c #C37F6E",
"a. c #B38374",
"s. c #D69A7F",
"d. c #E3B6A0",
"f. c #F0CFB9",
/* pixels */
"                                                                              ",
"                                                                              ",
"                                                                              ",
"                                                                              ",
"                                                                              ",
"                                                                              ",
"                                                                              ",
"                                                                              ",
"                                                                              ",
"                                                                              ",
"                                                                              ",
"                                                                              ",
"                                                                              ",
"                                                                              ",
"                                            O.                                ",
"                                            q.r.                              ",
"                                          9.y.t.                              ",
"                                          e.*.7.e.                            ",
"                                        O.#...+.X.                            ",
"                                        O.9.#.@.$.                            ",
"                                          q.$.%.e.                            ",
"                                            < 1                               ",
"                                            .                                 ",
"                                            .                                 ",
"                                            .                                 ",
"                                                                              ",
"                              5             3                                 ",
"                            ( ! q         l c                                 ",
"                          Z K i Y %     6.C .                                 ",
"                          M W 4 l p   X } l .                                 ",
"                    3.4.C p <.G r 5 5 % *   .                                 ",
"                    ( { 3.R ' 9 T % % o                                       ",
"                    ( C E =.;.| P #                                           ",
"              f.d.  v s H -.:.,.P 2         >                                 ",
"            p.i.i.  ' C   J U >.I                                             ",
"              d.u.  ( 1.    L g ,                                             ",
"                  4.]     v o. .@ .                                           ",
"                ] (     l v M 5 s X                                           ",
"                Q       s v M B r +                                           ",
"                      r j J q : r : .                                         ",
"                      r C [ g e / B .                                         ",
"                        ] G   9 a C                                           ",
"                      s G l   : + :                                           ",
"                      B l     % X .                                           ",
"                      s l     . .                                             ",
"                      G y     . .                                             ",
"                      l 5       %                                             ",
"                      v                                                       ",
"                                                                              ",
"                                                                              "
};
