/* XPM */
static char *fb08f047d5444fc4e46fc992e135b30f8SJxuMrT8qSNK0wv[] = {
/* columns rows colors chars-per-pixel */
"50 50 171 2 ",
"   c None",
".  c #090810",
"X  c #0A0912",
"o  c #0A0913",
"O  c #0C0B14",
"+  c #0C0A15",
"@  c #0C0B15",
"#  c #0C0B16",
"$  c #0D0C18",
"%  c #0F0D1A",
"&  c #0F0F1A",
"*  c #130910",
"=  c #190810",
"-  c #1E0910",
";  c #100E1C",
":  c #110F1E",
">  c #11111C",
",  c #12111F",
"<  c #280A10",
"1  c #3F0D14",
"2  c #390D18",
"3  c #3B0F1C",
"4  c #26101E",
"5  c #2B101D",
"6  c #2F101C",
"7  c #32101E",
"8  c #38101A",
"9  c #0E1523",
"0  c #0A1724",
"q  c #0C1524",
"w  c #071925",
"e  c #081825",
"r  c #121120",
"t  c #131122",
"y  c #101323",
"u  c #141322",
"i  c #151522",
"p  c #171523",
"a  c #151324",
"s  c #161424",
"d  c #171625",
"f  c #161725",
"g  c #161526",
"h  c #171627",
"j  c #1C1120",
"k  c #181625",
"l  c #171826",
"z  c #181728",
"x  c #151C2B",
"c  c #191829",
"v  c #191929",
"b  c #191A29",
"n  c #19192A",
"m  c #1B1B2D",
"M  c #1C1A2D",
"N  c #1D1B2F",
"B  c #1B1C2C",
"V  c #1A1F2F",
"C  c #1C1D2D",
"Z  c #1D1D2D",
"A  c #1C1D2F",
"S  c #1F1D31",
"D  c #1E1F30",
"F  c #1E1E31",
"G  c #1E1F31",
"H  c #271A2D",
"J  c #291828",
"K  c #371624",
"L  c #3B1C2A",
"P  c #201F33",
"I  c #1F2133",
"U  c #1A2537",
"Y  c #232133",
"T  c #222035",
"R  c #222135",
"E  c #212335",
"W  c #2F2031",
"Q  c #252539",
"!  c #262439",
"~  c #252639",
"^  c #27253B",
"/  c #27273B",
"(  c #29273D",
")  c #26293E",
"_  c #292A3F",
"`  c #420D15",
"'  c #490B10",
"]  c #550F17",
"[  c #45131C",
"{  c #52101C",
"}  c #54121E",
"|  c #5B151F",
" . c #790B0F",
".. c #670E10",
"X. c #6D0E10",
"o. c #790D10",
"O. c #7B0E10",
"+. c #7F0D10",
"@. c #63121C",
"#. c #66131D",
"$. c #74131C",
"%. c #7C121A",
"&. c #441320",
"*. c #431927",
"=. c #451B28",
"-. c #4B1B28",
";. c #571622",
":. c #5C1B28",
">. c #42292B",
",. c #4A2232",
"<. c #4C2131",
"1. c #4F2131",
"2. c #502335",
"3. c #78282A",
"4. c #2B2940",
"5. c #2A2B42",
"6. c #2D2942",
"7. c #2C2B42",
"8. c #2E2B42",
"9. c #2C2C42",
"0. c #2E2D44",
"q. c #2F2F46",
"w. c #302D46",
"e. c #322E48",
"r. c #313048",
"t. c #36344E",
"y. c #413D5B",
"u. c #810B0F",
"i. c #860C0F",
"p. c #8C0C0F",
"a. c #920C0F",
"s. c #9E0B0F",
"d. c #870B10",
"f. c #870D10",
"g. c #850E11",
"h. c #890D10",
"j. c #8D0C10",
"k. c #910C10",
"l. c #910D11",
"z. c #950D11",
"x. c #9D0C11",
"c. c #9C0D11",
"v. c #9E0C11",
"b. c #A00C11",
"n. c #A80C11",
"m. c #B80D12",
"M. c #A2151D",
"N. c #961F2B",
"B. c #AA1E2A",
"V. c #88202D",
"C. c #84282A",
"Z. c #C00D12",
"A. c #CF1218",
"S. c #EE1C24",
"D. c #884344",
"F. c #A14244",
"G. c #B15C5E",
"H. c #BD5B5E",
"J. c #996458",
"K. c #B56A60",
"L. c #C37E6D",
"P. c #C5816F",
"I. c #CA8974",
"U. c #CD8D77",
"Y. c #D5987E",
"T. c #DAA083",
"R. c #E0AE96",
"E. c #E7C6C7",
"W. c #F6DAC2",
"Q. c #F9E1CB",
"!. c gray99",
/* pixels */
"                                                                                                    ",
"                                                                                                    ",
"                                                                            u.j.                    ",
"                                                                            k.n. .                  ",
"                                                                           .k.Z.k. .                ",
"                                                                         .k.Z.Z.b. .                ",
"                                                                       . .Z.Z.Z.Z. .                ",
"                                                                      j.c.O.X.O.z.k. .              ",
"                                                                    j.k.h.v.i.i.a.g.v.              ",
"                                                                    k.g. .!.F.C.E...n. .            ",
"                                                                    g.v.+.H.D.3.G...n. .            ",
"                                                                      v.m.g.p.p.h.m.v.              ",
"                                                                        v.A.< ' b.v.                ",
"                                                                            . =                     ",
"                                                                            . `                     ",
"                                                                            M.M.S.                  ",
"                                                                          S.. `                     ",
"                                                                          S..                       ",
"                                                                            ` S.                    ",
"                                                                            V ,.S.                  ",
"                                                t T S ,                     | V.                    ",
"                                              N 5.w w x i             E 2.M.i                       ",
"                                            t e.U q 0 q V .         y._ B.. .                       ",
"                                            t e.U e 9 t A .         t.Y N.] ]                       ",
"                                    y.    % t e.) t t c c 8.  : # ; A T   ] %.                      ",
"                                    q.0.9.c s s Q 5.V t k : % t t % #     . `                       ",
"                                    _ ( 9.9.Q c ! % : Y Q . t % : .       .                         ",
"                                  q.S A y.Q 7 ;.-.S 9.S 4 . : # :         .                         ",
"                                  V S m T 7 } L &.:.0.=.2 : .             .                         ",
"                      U.W.Q.R.      A t h I J @.$.W <.H 8                 .                         ",
"                    K.I.>.P.J.    N P P       I N @.=.[ 5                 .                         ",
"                      K.Y.T.L.  t P ^ 9.      h S J 8 j                   .                         ",
"                        K.Y.    T S r.        #.{ 1.6 1 -                 .                         ",
"                              9.t.8.I       n I K 2 < * . .               .                         ",
"                          l T w.c         s c n m T & h a .               .                         ",
"                          I S S         g I s F 5.# h c i : .                                       ",
"                            E         h t h F n % s A s t t .                                       ",
"                                      s F g F T c % t V c t %                                       ",
"                                      m s F 8.S I @ c E E S :                                       ",
"                                        t w.S Q   @ t I A E c                                       ",
"                                        t ) m s     l s O > I                                       ",
"                                      k I Y m       . : , . c                                       ",
"                                      V E s t       : % . . .                                       ",
"                                      t E t         . . . .                                         ",
"                                      t E t         . . .                                           ",
"                                      T S t         . .                                             ",
"                                      V t             , t                                           ",
"                                      c t               t                                           ",
"                                      h t                                                           ",
"                                                                                                    "
};
