/* XPM */
static char *_122f2098caf4759eda4d93265a1e58eRPFjZKeqyYJv0pzw[] = {
/* columns rows colors chars-per-pixel */
"43 50 142 2 ",
"   c None",
".  c #090810",
"X  c #0A0912",
"o  c #0C0A15",
"O  c #0C0B16",
"+  c #0D0B17",
"@  c #0D0D17",
"#  c #0D0C18",
"$  c #0E0D19",
"%  c #0F0F19",
"&  c #0F0D1A",
"*  c #100E1C",
"=  c #110F1E",
"-  c #11111C",
";  c #11101E",
":  c #12111F",
">  c #240D17",
",  c #2E0910",
"<  c #2E0B12",
"1  c #28101E",
"2  c #37101A",
"3  c #071925",
"4  c #121020",
"5  c #121120",
"6  c #131320",
"7  c #131122",
"8  c #101323",
"9  c #141222",
"0  c #141322",
"q  c #141422",
"w  c #151623",
"e  c #141324",
"r  c #151425",
"t  c #161425",
"y  c #161725",
"u  c #171627",
"i  c #1A1827",
"p  c #171728",
"a  c #181728",
"s  c #1A172A",
"d  c #111A28",
"f  c #181828",
"g  c #181829",
"h  c #19182A",
"j  c #19192B",
"k  c #1C1A29",
"l  c #1B182C",
"z  c #1A192C",
"x  c #1A1A2C",
"c  c #1B1B2D",
"v  c #1C1B2E",
"b  c #1C1D2F",
"n  c #1D1D2F",
"m  c #1E1C2E",
"M  c #1C1E2E",
"N  c #1F1E2F",
"B  c #1F1C30",
"V  c #1E1D31",
"C  c #1F1E30",
"Z  c #261929",
"A  c #241A2A",
"S  c #261C2C",
"D  c #261E2F",
"F  c #2E1A2C",
"G  c #291C2E",
"H  c #2D1C2C",
"J  c #3A1622",
"K  c #3C1A27",
"L  c #341F2E",
"P  c #3F1B29",
"I  c #3E1B2A",
"U  c #201E31",
"Y  c #201F32",
"T  c #2A1E33",
"R  c #1E2030",
"E  c #1E2031",
"W  c #1F2032",
"Q  c #1E2436",
"!  c #1E2639",
"~  c #212034",
"^  c #202134",
"/  c #232035",
"(  c #222135",
")  c #212335",
"_  c #222235",
"`  c #232136",
"'  c #232236",
"]  c #252338",
"[  c #252539",
"{  c #262438",
"}  c #26243A",
"|  c #27243B",
" . c #27253B",
".. c #27263B",
"X. c #2A273F",
"o. c #29283E",
"O. c #2B293F",
"+. c #292A3F",
"@. c #372437",
"#. c #4D0D1A",
"$. c #540A10",
"%. c #5F0A10",
"&. c #5B0D10",
"*. c #44131C",
"=. c #4F131E",
"-. c #790B0F",
";. c #640B10",
":. c #700C10",
">. c #700D10",
",. c #790D10",
"<. c #7C0D10",
"1. c #421421",
"2. c #441623",
"3. c #4C1622",
"4. c #4E1824",
"5. c #551521",
"6. c #501A27",
"7. c #2C2C42",
"8. c #313048",
"9. c #323149",
"0. c #413D5B",
"q. c #9E0B0F",
"w. c #870B10",
"e. c #830D10",
"r. c #8B0D10",
"t. c #8E0C10",
"y. c #910C10",
"u. c #970C10",
"i. c #940E11",
"p. c #980D11",
"a. c #9D0C11",
"s. c #A40C11",
"d. c #A50C11",
"f. c #AA0D12",
"g. c #B50D12",
"h. c #9C6459",
"j. c #A47266",
"k. c #B37164",
"l. c #C58B74",
"z. c #D1927A",
"x. c #CA9580",
"c. c #DDBCAA",
/* pixels */
"                                                                                      ",
"                                                                                      ",
"                                                -.                                    ",
"                                                -.                                    ",
"                                                                                      ",
"                                                                                      ",
"                                                                                      ",
"                                                                                      ",
"                                                                                      ",
"                                                                                      ",
"                                                q.                                    ",
"                                                                                      ",
"                                                w.                                    ",
"                                              d.a.                                    ",
"                                              d.d.-.                                  ",
"                                            u.g.f.y.-.                                ",
"                                            y.t.<.t.t.                                ",
"                    -.-.              q.q.  :.%.:.$.u.y.  a.                -.-.      ",
"                                            y.:.&.;.,.                                ",
"                                            -.p.e.r.y.                                ",
"                                              -.. y.                                  ",
"                                                .                                     ",
"                                      q.        .                                     ",
"                                                .                                     ",
"                                                $.                                    ",
"                                                J                                     ",
"                              s 7.7             O.                                    ",
"                            l ! 3 d -       ) w k                                     ",
"                            B L *.#.w     0.7.w .                                     ",
"                      0.  % B W 8 w U   o i W . .                                     ",
"                      8.8.B m { ) 7 h = 7 %   . ,                                     ",
"                      { ) 8.F { = { % 7 %     . -.                                    ",
"                      ) ~ T 1.5.@.G > %       . ,.                                    ",
"              x.c.j.  l f A 3.P 6.I 2         .                                       ",
"              k.l.h.  B m   S 1.4.K           .                                       ",
"                z.  h  .7.    T F 1           .                                       ",
"                    +. .    Z 5.=.< .         .                                       ",
"                w  . .    w b B h 7 @         .                                       ",
"                  Y       l f B - l 7 .                                               ",
"                        f f l - 7 f 7 .                                               ",
"                        p l | p % B l @                                               ",
"                        w |  .  % ) E 6                                               ",
"                        e ) p     y @ m                                               ",
"                        B E e   . 7 . %                                               ",
"                        l p       o .                                                 ",
"                        f f     . .                                                   ",
"                        V w       .                                                   ",
"                        h 7       = 7                                                 ",
"                        p                                                             ",
"                                                                                      "
};
