/* XPM */
static char *_1dd577d82b840739e1c83dfba40136bkyyz1AHluDpA0NQ6[] = {
/* columns rows colors chars-per-pixel */
"46 50 163 2 ",
"   c None",
".  c #090810",
"X  c #0B0A13",
"o  c #0C0A15",
"O  c #0D0B17",
"+  c #0D0C17",
"@  c #0D0C18",
"#  c #0E0D19",
"$  c #0F0D1A",
"%  c #0F0E1B",
"&  c #100F1B",
"*  c #100E1C",
"=  c #110F1E",
"-  c #11111C",
";  c #12111E",
":  c #12101F",
">  c #13131F",
",  c #14131F",
"<  c #230C15",
"1  c #2C0A10",
"2  c #380B10",
"3  c #300F1E",
"4  c #28101E",
"5  c #3F121B",
"6  c #121020",
"7  c #121120",
"8  c #131221",
"9  c #131122",
"0  c #121222",
"q  c #141220",
"w  c #141322",
"e  c #141223",
"r  c #131420",
"t  c #151423",
"y  c #151623",
"u  c #171723",
"i  c #151324",
"p  c #161624",
"a  c #161725",
"s  c #161426",
"d  c #161526",
"f  c #171626",
"g  c #171627",
"h  c #171727",
"j  c #191522",
"k  c #181527",
"l  c #171826",
"z  c #181927",
"x  c #171728",
"c  c #181728",
"v  c #151A28",
"b  c #181829",
"n  c #19192A",
"m  c #1B192C",
"M  c #1A1A2C",
"N  c #1B1B2D",
"B  c #1B1C2C",
"V  c #1C1C2E",
"C  c #1D1D2F",
"Z  c #1F1C30",
"A  c #1E1D30",
"S  c #1F1E30",
"D  c #1E1F30",
"F  c #1E1F31",
"G  c #2D1421",
"H  c #241C2D",
"J  c #2E1B2C",
"K  c #2D1C2C",
"L  c #2F1D2E",
"P  c #391422",
"I  c #351E2E",
"U  c #201E31",
"Y  c #211E31",
"T  c #201E32",
"R  c #1F2133",
"E  c #1E2436",
"W  c #202033",
"Q  c #252030",
"!  c #222135",
"~  c #202234",
"^  c #212335",
"/  c #242335",
"(  c #242237",
")  c #242337",
"_  c #232537",
"`  c #292233",
"'  c #232338",
"]  c #252339",
"[  c #232538",
"{  c #27243A",
"}  c #26253A",
"|  c #26273B",
" . c #28263D",
".. c #2A273F",
"X. c #20283B",
"o. c #2A283F",
"O. c #2A293F",
"+. c #292A3F",
"@. c #450F17",
"#. c #480B10",
"$. c #520B10",
"%. c #560C10",
"&. c #550F17",
"*. c #590D10",
"=. c #5A0D11",
"-. c #590E19",
";. c #5C131D",
":. c #750C0F",
">. c #790A0F",
",. c #790B0F",
"<. c #7E0B0F",
"1. c #610C10",
"2. c #620D10",
"3. c #750D10",
"4. c #790D10",
"5. c #7A0D10",
"6. c #62111A",
"7. c #65121C",
"8. c #4C1622",
"9. c #491B27",
"0. c #4E1824",
"q. c #401D2C",
"w. c #561622",
"e. c #5D1B27",
"r. c #412030",
"t. c #2B2940",
"y. c #2C2941",
"u. c #2D2D43",
"i. c #2E2D44",
"p. c #2F2E45",
"a. c #322F48",
"s. c #333048",
"d. c #35334D",
"f. c #3B3854",
"g. c #413D5B",
"h. c #800B0F",
"j. c #890C0F",
"k. c #900C0F",
"l. c #830D10",
"z. c #870D10",
"x. c #8B0D10",
"c. c #8F0C10",
"v. c #8F0D11",
"b. c #910C10",
"n. c #930C10",
"m. c #950C10",
"M. c #990D11",
"N. c #9A0C11",
"B. c #A50C11",
"V. c #AA0D12",
"C. c #A2151D",
"Z. c #EE1C24",
"A. c #A6665C",
"S. c #A46B5E",
"D. c #A47266",
"F. c #B97064",
"G. c #C37F6E",
"H. c #C5816F",
"J. c #CD8D77",
"K. c #D99E82",
"L. c #CAA28C",
"P. c #E6BEAA",
"I. c #FFEFDD",
/* pixels */
"                                                                                            ",
"                                                                                            ",
"                                                                ,.,.                        ",
"                                                                ,.4.                        ",
"                                                              ,.B.b.                        ",
"                                                            h.b.V.m.                        ",
"                                                            m.x.3.x.M.                      ",
"                                                            4.,.l.<.2.,.                    ",
"                                                            4.$.%.#.=.,.                    ",
"                                                            b.b.k.j.:.                      ",
"                                                              4.2 2.                        ",
"                                                                .                           ",
"                                                                .                           ",
"                                                                .                           ",
"                                                                .                           ",
"                                                                .                           ",
"                                                                >                           ",
"                                              9                 B                           ",
"                                          9 [ X.v             - s.                          ",
"                                          ( ` u G r         [ y ,                           ",
"                                        9  .Q j 3 f       f._ y .                           ",
"                                  g.    * t.E 9 f U   * o ( _ . .                           ",
"                                  +.d.| f k y.( v w * 9 9 o   . .                           ",
"                                   .y.i.+.J U w U , * o #     .                             ",
"                                  t.M a.U ;.0. .U < # #       .                             ",
"                          J.I.    c M M P q.L e.9.4 <         .                             ",
"                        G.L.P.D.  M x f C 8.w.r.I @.          .                             ",
"                        F.A.K.S.  | S     C H 6.@.            .                             ",
"                          H.J.  M ! p.    -.L M G             &.                            ",
"                                i.U       C 7.=.1 .         Z..                             ",
"                            f +.] +.    f M C 9 9 o           C.                            ",
"                            R ! S     c R M S 9 M % .                                       ",
"                                    x e M c # n f w o                                       ",
"                                    e n x ] f 9 M e #                                       ",
"                                    s c ( Z f w ! R w                                       ",
"                                      U  .|   +   B n                                       ",
"                                      v _ 9     l # 9                                       ",
"                                    f R n       # # .                                       ",
"                                      M 9       # . .                                       ",
"                                    ! x         . .                                         ",
"                                    ! x         . .                                         ",
"                                    B 9           -                                         ",
"                                  ! 9             e                                         ",
"                                    9                                                       ",
"                                                                                            ",
"                                                                                            ",
"                                                                                            ",
"                                                                                            ",
"                                                                                            ",
"                                                                                            "
};
