/* XPM */
static char *_5ef2c45c5f34631e524446f1fa23533RxnlGATw4sKgB3gv[] = {
/* columns rows colors chars-per-pixel */
"50 50 173 2 ",
"   c None",
".  c #090810",
"X  c #0A0912",
"o  c #0B0A13",
"O  c #0B0A14",
"+  c #0C0A15",
"@  c #0C0B16",
"#  c #0D0B17",
"$  c #0E0D17",
"%  c #0E0D19",
"&  c #0F0F19",
"*  c #0F0D1A",
"=  c #0F0E1B",
"-  c #130B14",
";  c #100F1B",
":  c #100E1C",
">  c #110F1E",
",  c #110F1F",
"<  c #11101C",
"1  c #11101D",
"2  c #11101F",
"3  c #12111E",
"4  c #1A101B",
"5  c #2C0A10",
"6  c #300E17",
"7  c #28101E",
"8  c #36101D",
"9  c #0F1423",
"0  c #071925",
"q  c #0C1927",
"w  c #121020",
"e  c #121120",
"r  c #121021",
"t  c #131221",
"y  c #131122",
"u  c #141220",
"i  c #141223",
"p  c #131420",
"a  c #141420",
"s  c #151324",
"d  c #171525",
"f  c #141725",
"g  c #161426",
"h  c #161526",
"j  c #171627",
"k  c #171727",
"l  c #181121",
"z  c #181727",
"x  c #1A1827",
"c  c #171628",
"v  c #111A28",
"b  c #181829",
"n  c #1A1828",
"m  c #19192A",
"M  c #1B192C",
"N  c #1A1A2C",
"B  c #1B1B2D",
"V  c #1C1A2C",
"C  c #1D1A2D",
"Z  c #1D1A2E",
"A  c #1B1C2C",
"S  c #1C1C2C",
"D  c #1C1C2D",
"F  c #1C1C2E",
"G  c #1F1D2E",
"H  c #1F1C30",
"J  c #1E1D30",
"K  c #1E1F30",
"L  c #1E1F31",
"P  c #291420",
"I  c #2D1827",
"U  c #391422",
"Y  c #3D1927",
"T  c #351E2E",
"R  c #211F33",
"E  c #221F33",
"W  c #162233",
"Q  c #1E2031",
"!  c #1F2133",
"~  c #222033",
"^  c #212134",
"/  c #222135",
"(  c #202234",
")  c #212335",
"_  c #242237",
"`  c #242337",
"'  c #292233",
"]  c #232338",
"[  c #23263B",
"{  c #26253A",
"}  c #27273C",
"|  c #28263C",
" . c #2A273E",
".. c #2A273F",
"X. c #2A283F",
"o. c #292A3F",
"O. c #570A0F",
"+. c #5D0A0F",
"@. c #400F18",
"#. c #4D0D1A",
"$. c #5A0D11",
"%. c #590E19",
"&. c #44131C",
"*. c #41141E",
"=. c #750C0F",
"-. c #770C0F",
";. c #790B0F",
":. c #7B0B0F",
">. c #7C0B0F",
",. c #7E0B0F",
"<. c #7F0B0F",
"1. c #6E0D10",
"2. c #750D10",
"3. c #7A0E11",
"4. c #7C0D10",
"5. c #7D0E11",
"6. c #7B0D14",
"7. c #6B1119",
"8. c #4B1320",
"9. c #4E1824",
"0. c #571520",
"q. c #561622",
"w. c #5E1520",
"e. c #521F2E",
"r. c #4E202E",
"t. c #412030",
"y. c #2C2941",
"u. c #2C2C42",
"i. c #2D2D43",
"p. c #2E2C43",
"a. c #302D46",
"s. c #313048",
"d. c #35334D",
"f. c #36324D",
"g. c #413D5B",
"h. c #7B4E48",
"j. c #800B0F",
"k. c #820B0F",
"l. c #840B0F",
"z. c #850B0F",
"x. c #860B0F",
"c. c #870B0F",
"v. c #890B0F",
"b. c #8A0B0F",
"n. c #8C0B0F",
"m. c #8E0B0F",
"M. c #8F0B0F",
"N. c #890C0F",
"B. c #900B0F",
"V. c #940B0F",
"C. c #950B0F",
"Z. c #970B0F",
"A. c #900C0F",
"S. c #990B0F",
"D. c #9B0B0F",
"F. c #9C0B0F",
"G. c #9E0B0F",
"H. c #830D10",
"J. c #8B0D11",
"K. c #971115",
"L. c #9D1015",
"P. c #A11015",
"I. c #D0161C",
"U. c #DF1920",
"Y. c #B56A60",
"T. c #A57C6D",
"R. c #BF7869",
"E. c #C17B6B",
"W. c #D29986",
"Q. c #D69D86",
"!. c #D99E82",
"~. c #DFA687",
"^. c #FDEBD8",
/* pixels */
"                                                                ;.                                  ",
"                                                                ;.                                  ",
"                                                                ;.                                  ",
"                                                                ;.                                  ",
"                                                                ;.                                  ",
"                                                                ;.;.                                ",
"                                                              ;.k.;.                                ",
"                                                              ;.C.;.                                ",
"                                                    ;.      ;.;.Z.=.        ;.                      ",
"                                                    b.z.    ;.>.Z.,.      k.b.                      ",
"                                                      M.M.k.;.k.G.M.;.k.b.C.                        ",
"                                                      z.G.G.z.1.2.=.,.D.G.k.                        ",
"                                                    ;.;.k.Z.H.Z.H.M.N.G.z.;.;.                      ",
"                                            ;.;.;.k.k.k.M.M.3.U.3.I.K.G.D.k.k.k.>.;.;.              ",
"                                            ;.;.,.l.k.k.M.D.l.P.5.L.J.G.M.k.k.z.k.;.;.              ",
"                                                        l.G.G.=.2.2.V.G.M.                          ",
"                                                      z.G.D.k.k.G.M.>.C.G.k.                        ",
"                                                    ;.A.z.  ;.k.G.M.;.  >.D.;.                      ",
"                                                    l.l.      ;.C.>.      z.z.                      ",
"                                                              ;.C.;.                                ",
"                                                              ;.C.;.                                ",
"                                                                ;.;.                                ",
"                                                                ;.;.                                ",
"                                        i ] [ f               4 7.                                  ",
"                                      i ] W 0 v a           ) . +.                                  ",
"                                      r f.&.P #.S       g.i.) . +.                                  ",
"                                g.    r f.q r s S     O ~ ) ) . +.                                  ",
"                                f.i.A x C y.S z n 1 r , %     . O.                                  ",
"                                i.y.y.o.z M , z E , 1 % @     .                                     ",
"                              i.K ` a.8 w.Y  .R 6 @ ,         .                                     ",
"                      Q.^.    c B S s w.' 8.e.r.l -           .                                     ",
"                    E.T.W.h.    B s   I q.9.t.T @.            .                                     ",
"                    Y.E.~.R.  K )  .  B ! U 0.*.              .                                     ",
"                        !.  B H i.      %.{ B 7               .                                     ",
"                            s.R ]     s K 6.$.5 .             .                                     ",
"                        s {  .}     c B B E i 1 %             .                                     ",
"                          K K       K s ! S r B r @                                                 ",
"                                  c r B n % n b r @ .                                               ",
"                                i c s K i.1 1 S s i .                                               ",
"                                  n H o.~ % r ( ) b .                                               ",
"                                    f.S A   1 ] a ) .                                               ",
"                                  s ! B     & 1 # A                                                 ",
"                                r ] K r     , r . .                                                 ",
"                                  n c       # . .                                                   ",
"                                  s n       . .                                                     ",
"                                  ! s       . .                                                     ",
"                                B c r         , r                                                   ",
"                                ) i             s                                                   ",
"                                  i                                                                 ",
"                                                                                                    "
};
