/* XPM */
static char *_669edc64fdf493da1964af80c738071SoXrxenYqeXFLS2w[] = {
/* columns rows colors chars-per-pixel */
"50 50 180 2 ",
"   c None",
".  c gray8",
"X  c #1D1317",
"o  c #2D121C",
"O  c #231319",
"+  c #3D1515",
"@  c #36121E",
"#  c #3E131D",
"$  c #391E22",
"%  c #44171D",
"&  c #611616",
"*  c #651A17",
"=  c #661D19",
"-  c #681F1B",
";  c #792C1B",
":  c #4F0F26",
">  c #431022",
",  c #591725",
"<  c #6C1029",
"1  c #641029",
"2  c #7A162C",
"3  c #532728",
"4  c #4F2422",
"5  c #772826",
"6  c #743321",
"7  c #7A332A",
"8  c #613331",
"9  c #7C3D37",
"0  c #5F411E",
"q  c #79421F",
"w  c #4A6B03",
"e  c #6A4820",
"r  c #674620",
"t  c #674E32",
"y  c #6E5D4B",
"u  c #7A644B",
"i  c #565C65",
"p  c #82341C",
"a  c #8B3E1F",
"s  c #86391E",
"d  c #89122D",
"f  c #92122E",
"g  c #991D2E",
"h  c #9C1C31",
"j  c #83362C",
"k  c #8A3A35",
"l  c #BC2436",
"z  c #CD2B39",
"x  c #D8363C",
"c  c #E7383C",
"v  c #8C4429",
"b  c #8A4126",
"n  c #914320",
"m  c #9D4F24",
"M  c #8E5D25",
"N  c #894637",
"B  c #8E4D3C",
"V  c #8C4238",
"C  c #9D5730",
"Z  c #975B3F",
"A  c #975437",
"S  c #9F5025",
"D  c #A25323",
"F  c #A5582A",
"G  c #B55F3F",
"H  c #9D6733",
"J  c #B26226",
"K  c #BB6A28",
"L  c #BC792C",
"P  c #AF6530",
"I  c #B16730",
"U  c #B66B30",
"Y  c #BD7130",
"T  c #A26A28",
"R  c #C8772C",
"E  c #CC7D31",
"W  c #CA743C",
"Q  c #CB763C",
"!  c #C9743C",
"~  c #953645",
"^  c #BD3648",
"/  c #A33747",
"(  c #EB3E42",
")  c #F43C41",
"_  c #984F44",
"`  c #985747",
"'  c #935D53",
"]  c #8D564D",
"[  c #A34C47",
"{  c #A74F4A",
"}  c #B15A45",
"|  c #AF5846",
" . c #9C6143",
".. c #AF6D43",
"X. c #A86B4C",
"o. c #B7774B",
"O. c #B46355",
"+. c #B97A58",
"@. c #BF6940",
"#. c #B66C62",
"$. c #F44447",
"%. c #F6595F",
"&. c #C57E50",
"*. c #C27861",
"=. c #F76A70",
"-. c #EE666C",
";. c #5F830F",
":. c #93913F",
">. c #DB882F",
",. c #DA8734",
"<. c #D98A37",
"1. c #E18E30",
"2. c #E59231",
"3. c #E69739",
"4. c #9A9544",
"5. c #BD8954",
"6. c #A3A24B",
"7. c #BC8260",
"8. c #C38759",
"9. c #DA9857",
"0. c #C48249",
"q. c #E69B43",
"w. c #E89E47",
"e. c #E89F49",
"r. c #E29A4B",
"t. c #E9A14D",
"y. c #E9A454",
"u. c #EAA959",
"i. c #CA896B",
"p. c #C18275",
"a. c #D49572",
"s. c #D09F75",
"d. c #CD926A",
"f. c #DAA36A",
"g. c #D8A577",
"h. c #D9A478",
"j. c #ECAD63",
"k. c #E4A562",
"l. c #EDB267",
"z. c #EDB46D",
"x. c #EDB572",
"c. c #EFBB7E",
"v. c #EFBB74",
"b. c #727A87",
"n. c #ADBC92",
"m. c #CE9A89",
"M. c #D7AC98",
"N. c #DAA78A",
"B. c #ECBC86",
"V. c #E7B785",
"C. c #F0BF85",
"Z. c #E8BC94",
"A. c #BCCB99",
"S. c #F1C28B",
"D. c #F2C98D",
"F. c #ECC69B",
"G. c #F2C690",
"H. c #F4CD9B",
"J. c #F3CA93",
"K. c #F5D29C",
"L. c #F5D097",
"P. c #F5D4A4",
"I. c #F5D5A9",
"U. c #F7D9AB",
"Y. c #F8DBAA",
"T. c #E7CAB1",
"R. c #F8DEB3",
"E. c #F4D9B5",
"W. c #F9E1B7",
"Q. c #FAE5BC",
"!. c #B6C3DA",
"~. c #F2DFC3",
"^. c #FBE9C3",
"/. c #FCEEC9",
"(. c #FDF0CD",
"). c #FDF4D3",
"_. c #FFF8D7",
"`. c #FFF9D9",
"'. c #F4F6F9",
"]. c #FFFFFC",
/* pixels */
"                                                                                                    ",
"                                                                                                    ",
"                                    C C Y 2.2.2.2.2.2.2.2.Y C C C C C                               ",
"                                    C C Y 2.2.2.2.2.2.2.2.Y C C C C C                               ",
"                              C C 5.S.S.U._._._._._._._._.U.S.S.y.2.2.U C C                         ",
"                              ....d.H.H.W.`.`.`.`.`.`.`.`.W.H.H.v.u.y.0.....                        ",
"                        C C o.D.S.I.`.`.`.`.`.`.`.`.`.`.`.`.`.`.`.`.`.P.S.S.o.A C                   ",
"                  C C U E E f.Q.Q./.`.`.`.`.`.`.`.`.`.`.`.`.`.`.`.`.`./.^.Q.9.,.,.P C C             ",
"                  C C U 2.2.z.`.`.`.`.`.`.`.`.`.`.`.`.`.`.`.`.`.`.`.`.`.`.`.l.2.2.I C C             ",
"                  6 6  .S.S.U.`.`.`.`.`.`.`.`.`.`.`.`.`.`.`.`.`.`.`.`.`.`.`.P.S.B.Z 6 6             ",
"                  6 6  .S.S.I.`.`.`.`.`.`.`.`.`.`.`.`.`.`.`.`.`.`.`.`.`.`.`.I.S.B.Z 6 6             ",
"                  6 6  .S.S.I.`.`.`.`.`.`.`.`.`.`.`.`.`.`.`.`.`.`.`.`.`.`.`.P.S.B.Z 6 6             ",
"                  = * v w.w.l.H.K.W.`.`.`.`.`.`.`.`.`.`.`.`.`.`.`.`.`.E.H.H.j.e.r.b * =             ",
"                  & & a 2.2.t.S.S.U.`.`.`.`.`.`.`.`.`._.`.`.`.`.`.`.`.U.S.S.y.2.>.a & &             ",
"            & & N B.S.x.2.2.T . . . . . e 2.2.u.S.S.S.S.S.u.2.2.r . . . . . T 2.3.x.S.V.N & &       ",
"            & & v k.l.y.2.2.L r r t i i u M M 5.S.S.S.S.S.5.M M y i i t e e L 2.1.y.j.u.j & &       ",
"            & & j 1.1.1.2.2.2.2.3.s.!.!.b.. . u S.S.S.S.S.y . . b.!.!.f.2.2.2.2.2.1.1.,.p & &       ",
"                  | } ! 2.2.t.c.B.I.'.'.n.w w 4.S.C.S.S.S.:.w w n.'.'.E.c.B.w.2.2.! } |             ",
"                  [ [ G >.>.r.S.B.E.].].A.;.;.6.G.G.G.G.S.6.;.;.A.].].E.C.C.r.>.>.} [ [             ",
"                  & & & & * n 2.2.v.`.`.`.`.`.`.`.`.`.`.`.`.`._._._._.x.2.2.a & & & & &             ",
"                            p D D 8.R.R.^.`.`.`.`.`.`.`.`.`.`.`.^.R.R.5.D D p                       ",
"                              & * ` S.S.U.`.`.`.`.`.`.`.`.`.`.`.U.S.S.A & &                         ",
"                        & & 5 [ { k - - F 3.3.j.G.G.S.G.G.u.3.3.m - - k [ [ 5 & &                   ",
"                        9 9 ` #.#.` 7 7 C ,.,.9.g.g.g.g.g.9.,.<.S ; ; [ O.O.V 7 7                   ",
"                  { { p.`.`.`.`.`.Q.S.S.i.{ { k & & & & & k { { W 2.2.z.S.S.S.S.B.N & &             ",
"                  Q Q f.`.`.`.`.`./.Q.Q.Z.a.a.&.J J J J J &.a.a.B.H.K.U.Q.W.H.S.B.N & &             ",
"                  2.2.l.`.`.`.`.`.`.`.`.Q.S.Z.k.2.2.2.2.2.j.S.S.Q.`.`.`.`.`.I.S.B.N & &             ",
"            C C o.B.S.P.`.`.K.3.2.v.`.`.`.`.`.`.`.`.`.`.`.`.`.`.`.`.`.U.S.S.t.2.2.I C C             ",
"            v v X.H.K.R.`.`.P.t.e.x.T.T.~.).`.`.`.`._._.`.`.`.`.(./.^.Z.h.h.r.2.1.Y I P             ",
"            & & ] ).`.`.`.`.Q.Z.S.a.{ { m.).`.`.`.`.`._.`.`.`.`.U.C.C.*.{ { Q 2.2.2.2.>.p & &       ",
"            & & B F.K.W.`.`.).^.^.E.T.T.M.m.*.N.P.P.P.P.P.P.P.P.x.e.e.C 5 5 R 1.2.2.2.>.p & &       ",
"            & & N B.S.P.`.`.`.`.`.`.`.`.M.{ { i.C.C.S.S.C.S.S.C.y.2.2.n & & K 2.2.2.2.>.p & &       ",
"                  & & B S.G.U.`.`.`.`.`.M.{ { i.S.S.S.S.S.S.S.S.S.S.S.y.2.2.a & & & & &             ",
"                  & & N 5.+.s.P.L.L.K.K.d.k k +.S.S.S.S.S.H.I.I.I.P.U.z.y.t.v & & & & &             ",
"                        & & n 1.1.2.2.2.F & & X.C.S.S.S.S.W.`._.`.`.`.I.S.S.B & &                   ",
"                        & & - ; ; p ; ; D E R <.w.q.q.w.q.H.`._.`.`.`.(././.' & &                   ",
"                        & & & * * * * * m 2.2.1.2.2.1.1.1.S._._.`.`.`.`.`.`.' & &                   ",
"                        & & n 2.2.2.2.2.2.2.2.W { { j & & +.S.C.Q.`.`._.`.`.' & &                   ",
"                        + + q 2.2.2.2.2.,.W &.A 8 8 4 + +  .j.j.J.R.W.R.W.R.] & &                   ",
"                        . X 0 2.2.2.2.2.W [ { 8 X . . . . M 2.2.l.S.S.S.S.S.B & &                   ",
"                  . . . . . % g g g g g 2 , , @ . . . . . , g g x $.$.$.$.$.( c c 4 . .             ",
"                  . . . . . # d d d d d < > > @ . . . . . , f f z ) ) ) $.$.) $.( 4 . .             ",
"                  . . . . . o : : : : : @ . . . . . . . . , f f z $.) %.=.=.=.=.-.3 . .             ",
"                  . . . . . X o o o o @ O . . . . . . . . > < < h l l ^ ^ ^ / ~ ~ $ . .             ",
"                  . . . . . . . . . . . . . . . . . . . . @ : : 2 f f f f f 1 : : O . .             ",
"                        . . . . . . . . . . . . . . . . . @ : : : : : : : : : : :                   ",
"                        . . . . . . . . . . . . . . . . . o > > > > > > : : : : :                   ",
"                                    . . . . . . . . . . . . . . . . .                               ",
"                                                                                                    ",
"                                                                                                    "
};
