/* XPM */
static char *_ab1d7a25ddf48519c6f9fbff17d30a6UHGnSw4I8rCYg94D[] = {
/* columns rows colors chars-per-pixel */
"50 50 175 2 ",
"   c None",
".  c gray8",
"X  c #1A1215",
"o  c #2E0715",
"O  c #2D1419",
"+  c #371419",
"@  c #40131D",
"#  c #461515",
"$  c #611616",
"%  c #691C1C",
"&  c #6C221C",
"*  c #6D281D",
"=  c #772B1B",
"-  c #7F361F",
";  c #4E0F26",
":  c #461822",
">  c #541E20",
",  c #641522",
"<  c #6A1E2C",
"1  c #72182B",
"2  c #721E31",
"3  c #6F2221",
"4  c #752625",
"5  c #7B2B2A",
"6  c #772826",
"7  c #743321",
"8  c #7D332D",
"9  c #722235",
"0  c #3C5407",
"q  c #537A00",
"w  c #55673E",
"e  c #7B796B",
"r  c #84361D",
"t  c #86391E",
"y  c #8B3E1F",
"u  c #92122E",
"i  c #88282B",
"p  c #802F2D",
"a  c #86362D",
"s  c #8B3835",
"d  c #823A30",
"f  c #923D3A",
"g  c #B92235",
"h  c #D12C3A",
"j  c #EB393E",
"k  c #964821",
"l  c #944525",
"z  c #99532C",
"x  c #884536",
"c  c #8E4C3A",
"v  c #8F453A",
"b  c #98463A",
"n  c #9D5730",
"m  c #975B3F",
"M  c #96573B",
"N  c #AA5A25",
"B  c #A65238",
"V  c #AA5739",
"C  c #9A6527",
"Z  c #AA602B",
"A  c #BC6B29",
"S  c #B06026",
"D  c #B46A30",
"F  c #BD7130",
"G  c #AF6632",
"H  c #F0523C",
"J  c #D17F2D",
"K  c #C36E3E",
"L  c #C86530",
"P  c #CB763B",
"I  c #C5703E",
"U  c #D47833",
"Y  c #EA7336",
"T  c #903D43",
"R  c #B53145",
"E  c #CF3C4A",
"W  c #F43B40",
"Q  c #955440",
"!  c #9B5D46",
"~  c #985847",
"^  c #9B474B",
"/  c #A74F4A",
"(  c #A34C47",
")  c #AD5B54",
"_  c #9A685C",
"`  c #996457",
"'  c #A0624A",
"]  c #A6684E",
"[  c #BB6542",
"{  c #BF6940",
"}  c #B06F44",
"|  c #B5754A",
" . c #B26054",
".. c #A97359",
"X. c #B57A58",
"o. c #AB6E52",
"O. c #9F6F62",
"+. c #A07164",
"@. c #A67A63",
"#. c #B57665",
"$. c #F4474C",
"%. c #F54B51",
"&. c #F6555B",
"*. c #C57849",
"=. c #CA7D50",
"-. c #E65A63",
";. c #C37B63",
":. c #F66066",
">. c #F5696F",
",. c #F76A70",
"<. c #7B9757",
"1. c #859F3F",
"2. c #DB8A31",
"3. c #D78335",
"4. c #E08D31",
"5. c #E59231",
"6. c #E6973B",
"7. c #BF8254",
"8. c #B28977",
"9. c #98AF66",
"0. c #B2A566",
"q. c #C18557",
"w. c #D68E4F",
"e. c #E89F49",
"r. c #E9A24A",
"t. c #EAA553",
"y. c #EAA85A",
"u. c #D29669",
"i. c #C89876",
"p. c #CB9171",
"a. c #C7A174",
"s. c #DAA879",
"d. c #E9AB62",
"f. c #EDB56D",
"g. c #EFB86F",
"h. c #E3AC7F",
"j. c #EEB672",
"k. c #F0BD7A",
"l. c #7A8291",
"z. c #AD9A82",
"x. c #C59D81",
"c. c #CFAC8B",
"v. c #E4AF80",
"b. c #ECBC87",
"n. c #E2B287",
"m. c #F0BF81",
"M. c #DEBAA4",
"N. c #B6C587",
"B. c #C1CB8B",
"V. c #D0CE93",
"C. c #F2C585",
"Z. c #F1C28B",
"A. c #F3C98B",
"S. c #ECC79C",
"D. c #F2C790",
"F. c #F5D29D",
"G. c #D2CDB4",
"H. c #F5D3A3",
"J. c #F6D7A9",
"K. c #F7D9AB",
"L. c #F8DDB1",
"P. c #F9E1B6",
"I. c #FBE7BC",
"U. c #B6C3DA",
"Y. c #FBEAC3",
"T. c #FCEEC9",
"R. c #FBE7C0",
"E. c #FDF1CD",
"W. c #FEF5D3",
"Q. c #FFF8D7",
"!. c #FFF9D9",
"~. c #E6E1C4",
"^. c #FFFCEB",
"/. c white",
"(. c #FFFDF4",
/* pixels */
"                                                                                                    ",
"                                                                                                    ",
"                                                                                                    ",
"                                    n n F 5.5.5.5.5.5.5.5.F n n n n n                               ",
"                                    n n F 5.5.5.5.5.5.5.5.F n n n n n                               ",
"                              n n 7.Z.Z.K.!.!.!.!.!.!.!.!.K.Z.Z.t.5.5.F n n                         ",
"                            } 7.q.s.K.K.Y.!.!.!.!.!.!.!.!.Y.K.K.A.k.k.u.q.q.}                       ",
"                        n n 7.Z.Z.K.!.!.!.!.!.!.!.!.!.!.!.!.!.!.!.!.!.J.Z.Z.| n n                   ",
"                        2.2.f.E.W.W.!.!.!.!.!.!.!.!.!.!.!.!.!.!.!.!.!.W.E.E.d.2.2.G n n             ",
"                        5.5.f.Q.!.!.!.!.!.!.!.!.!.!.!.!.!.!.!.!.!.!.!.!.!.!.f.6.6.G z n             ",
"                        4.5.f.!.!.!.!.!.!.!.!.!.!.!.!.!.!.!.!.!.!.!.!.!.!.!.J.Z.b.Q 7 7             ",
"                        Z Z u.!.!.!.!.!.!.!.!.!.!.!.!.!.!.!.!.!.!.!.!.!.!.!.H.Z.b.m 7 7             ",
"                        7 7 @.!.!.!.!.!.!.!.!.!.!.!.!.!.!.!.!.!.!.!.!.!.!.Q.J.Z.b.m = -             ",
"                        $ $ Q A.Z.K.!.!.!.!.!.!.!.!.!.!.!.!.!.!.!.!.!.J.Z.Z.t.5.4.a $ $             ",
"                        = = m a.a.c.G.G.~.!.!.!.!.!.!.!.!.!.!.!.E.E.T.S.h.h.w.2.3.- $ $             ",
"                  $ $ y 5.5.C . . . . . e !.!.!.!.!.!.!.!.!.!.!.J.Z.Z.;./ / / / ^ 7 $ $             ",
"                  * 3 ! F.F.0.0 0 w l.l.z.j.j.H.!.!.!.!.!.!.!.!.A.t.t.n.M.M.v.p.p.a $ $             ",
"                  7 7 _ Q.!.B.q q <.U.U.c.5.5.C.!.!.!.!.!.!.!.!.j.5.5.F.!.Q.H.Z.b.v $ $             ",
"                  / / p.!.!.B.q q 9././.^.!.!.!.!.!.!.!.!.!.!.!.K.Z.Z.t.5.5.[ ( ( 4 $ $             ",
"                  v f #.Y.Y.V.1.1.N.(.(.^.!.!.!.!.!.!.!.!.E.I.Y.Z.j.j.e.5.5.G ^ b 4 $ $             ",
"                  $ $ c Z.Z.J.!.!.!.!.!.!.!.!.!.!.Q.Q.Q.!.K.Z.Z.t.5.5.4.5.5.z 7 7                   ",
"                      8 x x ..H.H.P.!.!.!.!.!.!.!.Q.I.H.H.f.r.r.Z t t t r r r                       ",
"                        $ $ Q Z.Z.J.!.!.!.!.!.!.!.!.L.Z.Z.y.5.5.k $ $ $ $ $                         ",
"                              $ $ $ $ $ 8 / / K 5.5.y.Z.Z.' $ $ s / /                               ",
"                              $ $ 4 p 5 f *.F w.t.y.m.J.J.x.O.O.#.;.;.~                             ",
"                                    / / K 5.4.y.Z.b.L.!.!.!.!.!.J.Z.Z.Q $ $                         ",
"                              / / ;.v.v.S.I.I.Y.E.E.W.!.!.!.!.!.W.T.T.` $ $                         ",
"                              ( ( ;.Z.Z.L.Q.!.!.!.!.Q.Q.Q.Q.!.!.!.!.!._ $ $                         ",
"                              $ $ +.!.!.!.!.!.!.!.!.L.Z.Z.L.!.!.!.!.!._ $ $ f / /                   ",
"                              $ $ +.!.!.!.!.!.P.Z.C.F.L.L.T.!.!.Y.L.L.` $ $ B I K a                 ",
"                              $ $ +.!.!.!.!.Q.A.5.5.C.!.!.Q.!.!.J.Z.Z.M $ $ A 5.4.t $ $             ",
"                              $ $ 8 ) ) *.6.6.C.E.E.Q.!.!.L.D.D.' & & $ $ $ A 5.4.y $ $             ",
"                              $ $ a  . .=.r.r.D.!.!.Q.E.T.S.s.s.~ % 3 % $ $ S 3.J - $ $             ",
"                              $ $ ( Z.Z.K.!.Q.Q.!.!.L.Z.Z.' $ $ s / / 6 $ $ $ $ $                   ",
"                              $ $ z t.t.k.K.K.K.K.J.i.! ~ ..X.X.*.P P B s s 6                       ",
"                              $ $ k 5.5.y.Z.Z.Z.Z.Z.] $ $ X.Z.Z.y.5.5.[ / /                         ",
"                              $ $ $ $ $ $ $ $ $ $ $ 8.!.!.!.!.!.J.Z.Z.Q $ $                         ",
"                              $ $ & r r r r r 3 $ $ 8.Y.Y.W.!.!.L.F.S.~ $ $                         ",
"                              $ $ k 5.5.4.5.4.N $ $ o.Z.Z.P.!.!.!.!.!.O.$ $                         ",
"                              $ $ k 5.5.U [ *.V f f v c c i.H.H.H.H.H.w.A A a $ $                   ",
"                              $ $ k 5.5.P / / / / / p $ $ X.Z.Z.Z.Z.b.t.5.5.y $ $                   ",
"                        X . @ u u g j W W W W i . . . . . + $ $ S 5.5.5.5.5.H W j , o o             ",
"                      O @ + 9 R R E %.%.$.W W i . . . . . + # # l L L Y Y Y H W j , o o             ",
"                  . . + u u R >.,.,.,.,.&.j W i . . . . . . . . , u u h W W W W j , o o             ",
"                  . X X O O : 9 9 9 9 9 2 1 1 : . . . . . . . . T -.-.-.:.:.$.W j > X X             ",
"                  . . . . . O ; ; ; ; ; ; ; ; O . . . . . . . . ^ ,.>.>.>.>.%.j j > . .             ",
"                        . . . . . . . . . . . . . . . . . . . . . . . . . . . . .                   ",
"                        . . . . . . . . . . . . . . . . . . . . . . . . . . . . .                   ",
"                                    . . . . . . . . . . . . . . . . .                               ",
"                                                                                                    "
};
