/* XPM */
static char *ab5fc442cd904b7ab93bc4f064fe5f61uUkKg8cAfkoaN764[] = {
/* columns rows colors chars-per-pixel */
"50 50 75 1 ",
"  c #776F65",
". c #7B6E64",
"X c #7D7166",
"o c #7C746B",
"O c #7D786F",
"+ c #7F7971",
"@ c #807367",
"# c #82756A",
"$ c #81786E",
"% c #8C7C6F",
"& c #977E6C",
"* c #9A7F6C",
"= c #857770",
"- c #847C73",
"; c #8A7D74",
": c #857F78",
"> c #8E7F78",
", c #927C74",
"< c #937F78",
"1 c #9D816E",
"2 c #868176",
"3 c #8B8276",
"4 c #87827A",
"5 c #8B847B",
"6 c #8E887F",
"7 c #938275",
"8 c #9E8371",
"9 c #95857D",
"0 c #9B817B",
"q c #95897E",
"w c #A6856F",
"e c #A68672",
"r c #A88772",
"t c #A78874",
"y c #A98975",
"u c #A38679",
"i c #A38D7E",
"p c #AD8C7A",
"a c #B18E7D",
"s c #AF927F",
"d c #B2917E",
"f c #8B8780",
"g c #8E8981",
"h c #958780",
"j c #948C83",
"k c #998B82",
"l c #948F89",
"z c #9C8F88",
"x c #979087",
"c c #999186",
"v c #96918B",
"b c #9C948C",
"n c #9E9790",
"m c #9F9891",
"M c #A58680",
"N c #A68A83",
"B c #AA8C85",
"V c #AC8F88",
"C c #A49082",
"Z c #AD9382",
"A c #A3948D",
"S c #AC908A",
"D c #A2998F",
"F c #AD9C8E",
"G c #B39482",
"H c #B69886",
"J c #A69791",
"K c #A39B94",
"L c #AC9D92",
"P c #A69F98",
"I c #B09F91",
"U c #AFA194",
"Y c #A6A099",
"T c #A8A29A",
"R c #B1A193",
/* pixels */
"mbbbbbvbmmbbcbcbxbbvmmqbYmmmvmmmnmnKnnnnnvmmnlnljn",
"mbbbbbbbbCbbbcbDbbbbqbq6mmmmvbmDnnnnbbnbnnmmnnnl4b",
"bbbbDbbbbbbbDDcibbbbbbq6mmmmbbbmnnnnznnmnmnnnnnl4b",
"DbbCbDbbbbbCbbbbibibDDq6mmmbbmbmmmnmnnnnnmmmmnnvgm",
"DbbbCDbDDbcbCbbAbbibbbq6bmmmmbmmKnbnnbmmKnmmnmnmjm",
"bDbDbbbbbbDbbbbbbbbbbbv6mmmmmmmmmbnnnKmKmmnKnnnngb",
"DDbbbbbbbbAbbbbbbDDbbqq2mmKmmmmmKKnnmmmmnnnnnnbm6m",
"cibcccbibcqcccvbqq66222O22666llvlll5555445::-::=Oj",
"qqqq*0h0hq--fgggffffvfvvlvvvvvvvnvvgnbzzzzbzjkckck",
"ssddppaaaa9fnvvvvvvlvlvvlvvbmvvvvvv:pBaaaaGGdaaaad",
"adddaaaaap3fvvvvvvvlllvvvbbvvmvvvvv:uaaGaGaGaaapad",
"addpaaaapp76lnlvvvvlvlvvvvvvvvvmvvv4uaaaaGaGadaaaa",
"adadadaapp<fvllvvvvvllvvmvvvvvvvnvv4*aaaGGaadaaaaa",
"aaaaaaaayp<5vvlvvfvvvvvvvvvvvmvvvvv:paaaGaaBadaada",
"adadaaGaaa*jlvllvvvvvvvvvvvvvvvvvvl><GaaGGdaaadyaa",
"aaddGaaary,fvvvvvvvl4444fvfffffffgg<*aaaaGaadaasaG",
"ooo27993.X-Ooooo46546622225q66ll632q67q7qqqq62Xo o",
"iiiipppt1iiikiiiqiyyyw7qssHsHHFsHdssHHsHHHHHHHZDjC",
"ttyyyytwwttutrtrtyyyrr73ddHHdHssHdpdssHHHHddssGi3y",
"ywttyyyywyyytryyttyyrr73dddHHHHHdsdsssdHdHdHHGGZ9y",
"ttyttytyryyyteeyyyyytt12ddHHHHHHGddsdGHddHHHssGs7y",
"yyywytyyyyyyrrryyyyytt37ddHHdHsHHdGdGdHHdHdHddGs9r",
"yyywwypywyptytytyyyyww37HdHdHsdHHGddHddHddGdHdHs7t",
"yyttwtwyypyyrrtuypyywt32sdsHdHHsHGHHGdHdHHHsdHs7;t",
"1e111111*&*1w8ee*&@...O=#XX###o#XXX#&oXX@X@X@XX$$1",
"gxjccqjxf-jvvvbbJvJbbmmKDDKmKKmKKb6jjbccbbmbbvbbvx",
"qqqqjqqj55zJAJJJJJJJJJJJDLJJKLLJJb2qkqqqqqckqqqqcc",
"cqqcqqqq9:AJJJJLLJJAJJJJDDKLLPLKJv-qkcqqqqqqjqqqqq",
"qqjqjqqq5:AAAJJJJJJAJJJJJJJJJLLJJz-6qqciqqcqqqqqqq",
"qqqjkkqq5:AAAJJAJJJAJJJJJJJJJPPLLz49qqqcqqqqqqqqqq",
"qqqqqqqqh:AAAJAAJJJJJJJJJAJJLJJJKb3qqqqqqccqqccqqq",
"qqqqqcqq5:AAAJJJJAAJJJJJAAJJJLJPUb5qqqqcqqqqqqqjqq",
"q7qqqqqq22jAAzAAbAAbAzAAkzAAAJAKAj4o=--$-$=O$O5h59",
"5jggggxggvggfjgjlljjlllz-:559ffhhjvjjllljljjjjfh5;",
"KYYYYYYYYYYYYYPYTTTTPTTY:>,h990hhhh9q9h9qq999hh995",
"mYTYYYKYYYYYYYTYTYTTYYTY39q999h9qhh909hh9qh9<qh99>",
"YYTTTYYYYYYYYYYPTTTTTTTK4>9h99hhh99,h9qq9hh999h9q;",
"mYTTTYYYKYYYPYPPYYYYTTYK:59999h99hq9h9hhh9hhh99995",
"mYYTYKYYYYYYKYPKYYYYYYYK3>999hhhhhhhh0k0h0h0h<9h99",
"mTYYYYmYYKYYYYYPTKYYPPPK6599hhhMkhhMkhq9hkh9hhh<q3",
"bYKYYKPLYYPPPPKYTPPPTTPK4>hhhhh>:;;-;---;;$;q9993$",
"4666g66566=:-o-Oo;jffjffl5;f5f>gjgj9jljjgh55555522",
"FDFFFFFFFFjkNBABBNBBBVBBVVVVVVVSVVSvDURULUFIRFIFFF",
"FFFFFFFFFL57MNNBBBBBBBBNVVSVBVVVSVSqLRRRULFLRFIFFF",
"FFFRFFFFIF5;NBNNBBBBBBBBVVVVBBBVVVVqFRRUUIIFIFRFFF",
"FFFFFFFIII5<BVNNMBMBBBNNVVVBBBBVVVBqFRRUFIIFFFFIFF",
"FFFFFIIFFF59BBNNMBBNBBNNVVVNBVBVBVVhFURURFFFFFFRFF",
"FILFFFFFFI9<BNBNBMBBBBVNBVVVBVBBBVBhFRRIIRFFFFIIFF",
"FFRIFFFFFF43NNNNNBBNBBVVVBBBBBVVBVV9ARLFIRIIIIFFFF",
"oXoXoXXXXo$-0,.......X..===<<<9<<<>4:qqq4XoooXXX  "
};
