/* XPM */
static char *_98ef1c4e3f24146fd56f8b7774f68edhtOVMbpkotqSLntg[] = {
/* columns rows colors chars-per-pixel */
"50 50 142 2 ",
"   c #6D6356",
".  c #6F685D",
"X  c #7E6D57",
"o  c #726759",
"O  c #756B5C",
"+  c #7A6E5D",
"@  c #7E715E",
"#  c #766D61",
"$  c #796F61",
"%  c #777165",
"&  c #7D7363",
"*  c #7D766A",
"=  c #7F786D",
"-  c #83745E",
";  c #88775F",
":  c #89785F",
">  c #837662",
",  c #857965",
"<  c #8B7C65",
"1  c #817769",
"2  c #847B6C",
"3  c #8E7F69",
"4  c #8C7E6A",
"5  c #8D7E6A",
"6  c #8D7F6A",
"7  c #8D7F6B",
"8  c #8C7E69",
"9  c #897D6C",
"0  c #8A7E6C",
"q  c #8A7E6D",
"w  c #887E6E",
"e  c #887E6F",
"r  c #887F6F",
"t  c #8A7F6E",
"y  c #8B7F6E",
"u  c #8A7E6B",
"i  c #907E65",
"p  c #907F66",
"a  c #907F66",
"s  c #917F68",
"d  c #817B70",
"f  c #857E71",
"g  c #867E70",
"h  c #877E70",
"j  c #847D71",
"k  c #887E70",
"l  c #887F70",
"z  c #897F70",
"x  c #897F71",
"c  c #887F73",
"v  c #887F74",
"b  c #887F71",
"n  c #8E806A",
"m  c #8E806B",
"M  c #8A806F",
"N  c #8D806C",
"B  c #8E806C",
"V  c #8F816C",
"C  c #8D816D",
"Z  c #918067",
"A  c #928066",
"S  c #918168",
"D  c #928168",
"F  c #928269",
"G  c #938269",
"H  c #90806A",
"J  c #93826A",
"K  c #93836A",
"L  c #94836A",
"P  c #95846A",
"I  c #94846B",
"U  c #90826D",
"Y  c #90836D",
"T  c #91836E",
"R  c #91836F",
"E  c #91846F",
"W  c #92846F",
"Q  c #92836B",
"!  c #99866B",
"~  c #878072",
"^  c #878074",
"/  c #868075",
"(  c #878175",
")  c #878075",
"_  c #898070",
"`  c #888071",
"'  c #898071",
"]  c #8A8071",
"[  c #888073",
"{  c #8A8172",
"}  c #8B8172",
"|  c #8C8272",
" . c #8C8372",
".. c #8C8273",
"X. c #8C8373",
"o. c #8D8373",
"O. c #8A8274",
"+. c #8B8274",
"@. c #888176",
"#. c #888276",
"$. c #888277",
"%. c #898277",
"&. c #8D8375",
"*. c #8B8477",
"=. c #8D8474",
"-. c #8E8474",
";. c #8C8477",
":. c #8E8576",
">. c #8F8676",
",. c #8F8677",
"<. c #8B8274",
"1. c #8A8479",
"2. c #8B8579",
"3. c #8B857A",
"4. c #8B857B",
"5. c #8D8578",
"6. c #8D8679",
"7. c #8C877B",
"8. c #8E877C",
"9. c #8C8579",
"0. c #8D887D",
"q. c #8E887D",
"w. c #8F887D",
"e. c #8F897E",
"r. c #8E887D",
"t. c #918471",
"y. c #928570",
"u. c #928775",
"i. c #928572",
"p. c #948877",
"a. c #968874",
"s. c #908778",
"d. c #908778",
"f. c #918879",
"g. c #928979",
"h. c #90887B",
"j. c #968B79",
"k. c #92897C",
"l. c #948B7C",
"z. c #92897B",
"x. c #938D81",
"c. c #989285",
/* pixels */
"8.%.= d ;.;.;.5.k.k.v x x y v v v 9 9 v v v v 5 9 9 1 v v v k.u.g.g.g.g.u.j.j.7.7.7.7.7.7.7.7.7.7.#.",
"2 1 2 > 2 < < < 5 9 , , , , 2 > - - - ; < - ; ; - - 1 1 9 s s s S S S S I S Y Y  .2 r r 2 2 f ` f > ",
"1 1 * > 2 < 9 9 s 5 9 > , , > > - - - - - ; - ; - - - d < a s ! S S Y Y S Y S M r 2 r , 2 , 2 ` 2 2 ",
"1 1 % 1 , , 2 y 9 9 1 > - > 1 $ - O - - > > > - - > % d 9 < 9 5 n < < < S n Y , * 2 = * 2 * = = = * ",
"o.&.u.-.v %.2 j 2 2 1 $ $ 1 1 2 # 1 v 2 9 9 9 k 2 < x 2 9 y v x  .= d f d = f ~ ~ f ~ ~  . .>.>.>. .",
"n 8 8 y s x $ $ + O o o O O o O O O 1 - - - ; > > > > - > > j > @ @ @ @ @ @ @ @ @ & >  .Y  .y.Y Y n ",
"P 5 s 5 5 e & $ $ + O o $ O O O O O 1 , > - > , > , : - , , 2 > & @ & @ @ @ @ @ O @ & _ Y  .Y Y Y Y ",
", < 5 < 5 1 + & $ O o o O O O + O - 2 > , ; > , < , , < , < * & % @ @ @ # @ @ + O @ # * n n Y Y E n ",
"w w j x M z.{ w w 2 % = x t.v y o.j.l.p.5.o.*.^ j %.;.;.*.7.x./ ~ f ~ = = f ~ f f 2  .7. .7. . .7.~ ",
"- ; : - ; - ; ; - ; > 2 s s ! s P L P P ! P Z C w , , , 8 , , 1 , * * = d < < < - , , , n , , < Y n ",
"; ; , : : - - - - ; > 2 s ! ! s a a P a I L Z I 1 > n u , , , 1 , , , * d n , n < , < n , n n n n Z ",
"X + - - - @ X @ - - $ v a s s s i i < > < 8 Z 8 * 1 1 > > & 1 @ + # # % d , Y < n < < n n , < < n @ ",
"j j / j j j = * > 2 v v x x v k , 2 2 2 1 e e 5.5.%.%.&.%.;.o.2 = = d ~ ~ 2 M r r 2 r r = 2 2 2 * * ",
"j j w w 2 = j % O + $ - $ - $ > $ $ # = 2 2 < x C o.C o.C -.C / r n Y n Y Y Y Y Y n S Y 7.2 * * * = ",
"= 1 * & % & * & O - > - $ - $ $ $ O $ d 1 e 8 e M o.M C C M { x n < < : S S < < S : < < ~ * & & % % ",
"1 * > * * & % + O > , - $ > > $ $ $ # j 1 < e e C C C M M C { 2 < < S S : A < S < S < , = * % & & & ",
"= = 2 w j j v j 1 x x k * = 2 9 x 2 2 2 2 2 2 x j * = j j j %.4. . .7. . .~ * ~ #.~ r ~ 7.~ = d = f ",
"x o.C n s 5 s s s i ! P e v s i i < < , , : , < < j e C T I -.I Y Y a.y.g.y. ., 2 , > > - > & - > @ ",
"1 n 5 Z 5 < < a i i s i 5 x i : : < ; ; - - : , , j 8 5 n 5 n n Y a.I I I I _ - , : - @ - > @ > @ @ ",
"1 n s s i i a < i < i s < j < a : : > ; : - ; , , x 2 s K T T I y.I a.a.a.a.n > @ @ : @ > : @ > @ @ ",
"2 j M 2 1 2 < 2 , 9 > 9 j j 2 y < , 9 > , , 1 * 2 = j _ e 2 { { Y  . .~  . . .& & & & , 2 & 2 , @ > ",
"k.w.;.;.v t.t.t.P y.v d.p.p.p.l.d.v v k v j v v 7. . . .;.3.2 8 r M  .0. .f f 2  .7.7.Y g. . .7.0.7.",
";.&.-.o.v ! ! s s s x y t.x p.p.v j < 9 2 , 2 j M 2 M 8 _ ^ - - @ : ,  .= & & * & ~  .r Y  .Y  .0. .",
"j.u.o.{ x y.y.s ! s x y t.x t.p.v j 2 2 , 2 2 * M M M M M ~ - - @ > : ~ * 2 * > 2 ~  .r  . . . .0.g.",
"%.%.j 2 ;.a.a.P y.s 2 j 2 k x v ~ = * * = * % = 1 2 w 2 ~ / > > > , , ~ d = = 2 ~ ~ ~ 2 f  .~ f 7. .",
"T n 5 < < 9 < , , > j y y s y y.i.V M n n M #.2 2 1 1 = j 2 * = * , =  .r  .r r 2  .~ r  . .g.e.7.Y ",
", : , , ; < , > > , 2 < 8 < 8 s M Z : n n , = * * % & & & * & & & = * r , 2 , 2 2 , 2 , 2 2 2  .n , ",
", , , : , < < > - 2 2 8 < 8 < < n n n n , n 2 & & & & * * & * & % % * 2 & 2 r , 2 2 , , r 2 r  ., - ",
"> 9 < , , , , - O 1 v & @ & & & & 1 & > & & = * * * * * * * % * % # * r = r = r , 2 2 2 f r = #., , ",
"v v v v v t.v j j v %.%./ / 7.$.( 7.3.*.#.f >.~ _ =.=.~  ._ 2 M f ~ 7.7.7.g.g.7.7.g.g.g.l.l.0.l.0. .",
"9 > 9 , > 9 9 , d $ + # + $ & + O @ * * f & @ - , , n n n > @ - 2 f _ _ Y n Y Y Y Y  .g.j.g. .n 2 , ",
"- 9 , 1 > 1 > 2 = # # # # $ & # # % & & f & , @ n - - n @ - @ @ & f Y n _ Y Y ~ Y  .y.y.g.g. .r , , ",
"- > 1 > - 1 1 1 d o O # # # $ O + % % % ^ 1 > > , > , , & @ @ @ * d ` M _ _ _  ._ Y  . .y.>.~ r & > ",
"d v v v v k 9 v v d % v k v v 2 w 2 { &.5./ = *.*.( 7.>.#.~ d ~ #.~ ( =  .~  . .*. .>. .>.c.7.d 2 r ",
", , 8 < > ; ; , > v 2 > - - - - - - , , , 8 ^ , , , n n , > @ & * > d * , , > > > , > , n Y  . ., , ",
"- , 8 8 , - , , 9 1 - - , - - O @ @ - ; , > 2 1 , * , * , * > > > > ( > > , , , > , , , , n n  ., , ",
", , s , , > > > , v > > - > ; - + @ o O O & * 1 * @ & n & & , > > * f * , , , > > > , , n , , 2 n , ",
"1 9 9 1 1 1 9 , 5 9 v v v v v k 2 w * w ^ %.w w 2 ` n _ ` ` * % f f d d r _ n 2 2 , 2 * 2 r ~ ~ ~ 2 ",
"> 1 > $ > 1 1 - > - - > > 1 > - @ > = { I y.P Z n n A Y Y n n ` n n n n n n S n n n n *.2 , 2 , , & ",
"+ - - o O - > $ - - > , ; > - - @ > 2 n Z Z i < Z : A S A Z n , n - , n n n n n , , , 2 > & & + @ @ ",
"O o - O - $ o - O - > - , , - - > > j e i i 8 < , < K Z i 8 , 1 n , n , : n n n Z X Z + + @ @ O @ @ ",
"1 1 1 1 & d 1 1 1 % % 1 v v v 2 2 x j j { 2 = 2 w 2 w _ w 1 x j , = * = 2 r 2 r * , * f d = = % = 2 ",
", - - > - > - - > v d 1 1 1 2 > , 1 1 * 1 w j & , > , , @ @ > & > > 7., > , , @ @ @ @ @ @ > & _ , , ",
"; ; - - - - - - ; v 1 > > > > - $ @ + & * 1 j > > @ ; & @ + + + + + f & @ - @ @ @ @ @ @ @ @ @ 2 > : ",
", ; - - - - - ; - v 1 1 1 1 - - + @ & & = 1 = > > @ > @ $ + + > > @ f & > @ @ > @ @ @ @ @ @ > 2 , : ",
", , 1 > 1 > > > > v % 1 $ 1 1 # o & & & * = ( * = 2 1 * # # & 1 = & f = , , , = # + > * , * * * , & ",
"v y 5 v v 5 v 5 v v 1 2 1 1 v 1 2 , , , , , ^  .{ -. . .j 2 1 d 2 2 f ~ r 2 2 , * f 2 = = , f 7.Y Y ",
"a s , 9 5 5 < < 5 5 1 - # # - 1 @ X - - - ; M 2 2 M 2 M d $ $ $ & & = = & > @ + @ * & * % % * f , < ",
"s , , 1 < 9 < < 9 2 $ $ $ - - $ $ - - - - - 1 , 2 9 9 2 1 # # % & & % * > > > @ @ % & % * % % d < , ",
"$ # o 1 * # $ $ $ 1 * O $ $ $ # #   o # o $ * 1 2 2 1 > * # . # # # * % & > & + # = # # # # * ~ % # "
};
