/* XPM */
static char *_9ca58af020e4b0495a43133fd73a121H0yw8EtsrMa54e56[] = {
/* columns rows colors chars-per-pixel */
"50 50 146 2 ",
"   c #181426",
".  c #1A1629",
"X  c #1C1A2D",
"o  c #1E1D32",
"O  c #201E34",
"+  c #1F2135",
"@  c #202036",
"#  c #22243B",
"$  c #23283E",
"%  c #232740",
"&  c #252B43",
"*  c #282D46",
"=  c #282D47",
"-  c #292D47",
";  c #282E47",
":  c #282C46",
">  c #272E48",
",  c #272E48",
"<  c #282E48",
"1  c #292E48",
"2  c #282F48",
"3  c #292E49",
"4  c #282F49",
"5  c #292F49",
"6  c #2A2E48",
"7  c #2A2F49",
"8  c #282F4A",
"9  c #2B2F4A",
"0  c #2A2F4B",
"q  c #2C2E4B",
"w  c #282F48",
"e  c #293049",
"r  c #29304A",
"t  c #29304B",
"y  c #2A304B",
"u  c #29304C",
"i  c #2A314C",
"p  c #2B314C",
"a  c #2A314D",
"s  c #2A324C",
"d  c #2B324C",
"f  c #2B324D",
"g  c #2B324E",
"h  c #2B334E",
"j  c #2B334F",
"k  c #2C314D",
"l  c #2D314E",
"z  c #2D324E",
"x  c #2C334E",
"c  c #2D324F",
"v  c #2C334F",
"b  c #2D334F",
"n  c #2B344F",
"m  c #2C344F",
"M  c #2C324E",
"N  c #2C3350",
"B  c #2E3350",
"V  c #2F3350",
"C  c #2C3450",
"Z  c #2C3451",
"A  c #2D3451",
"S  c #2C3551",
"D  c #2D3551",
"F  c #2F3452",
"G  c #2E3552",
"H  c #2F3552",
"J  c #2D3652",
"K  c #2E3652",
"L  c #2E3653",
"P  c #2F3653",
"I  c #2E3654",
"U  c #2F3654",
"Y  c #2E3754",
"T  c #2F3754",
"R  c #2F3755",
"E  c #2E3552",
"W  c #2E3855",
"Q  c #2F3957",
"!  c #303653",
"~  c #303856",
"^  c #303857",
"/  c #313857",
"(  c #303957",
")  c #313957",
"_  c #323857",
"`  c #313857",
"'  c #313958",
"]  c #323958",
"[  c #303A58",
"{  c #323A59",
"}  c #323B59",
"|  c #313B5A",
" . c #323B5A",
".. c #333B5A",
"X. c #323B5B",
"o. c #333B5B",
"O. c #313C5A",
"+. c #323C5B",
"@. c #333C5B",
"#. c #343B5C",
"$. c #333C5C",
"%. c #333E5D",
"&. c #343C5C",
"*. c #343C5D",
"=. c #343D5D",
"-. c #343E5D",
";. c #353D5E",
":. c #343E5E",
">. c #353E5E",
",. c #353E5F",
"<. c #343F5F",
"1. c #353F5F",
"2. c #363E5F",
"3. c #363F5F",
"4. c #343C5C",
"5. c #363F60",
"6. c #373F61",
"7. c #374061",
"8. c #354162",
"9. c #374062",
"0. c #364162",
"q. c #374162",
"w. c #374163",
"e. c #364263",
"r. c #374365",
"t. c #374465",
"y. c #374466",
"u. c #374263",
"i. c #384162",
"p. c #384163",
"a. c #394164",
"s. c #384264",
"d. c #394264",
"f. c #384365",
"g. c #394365",
"h. c #384366",
"j. c #394366",
"k. c #3A4366",
"l. c #3A4367",
"z. c #384466",
"x. c #394466",
"c. c #384566",
"v. c #384567",
"b. c #3A4466",
"n. c #3A4467",
"m. c #394365",
/* pixels */
"& & & * * % + o   O O & & & & & & & & & & & & & & & * % & @ X . @ q ;.9.Q t & & & & * & & & & & & & ",
"& & & * & % o o . O # % & & & & & & % & & & % & & & % * & @ X   @ e +.t.Q t & & & & & & & & & & & $ ",
"t i i i a q : % O % & 0 0 0 & & & & & & & & % * & & & % & @ +   @ t -.9.O.t & & $ * & & $ & & & & & ",
") ) ) ' ^ ^ F l q c ! Q F 0 & & % & & & & & * % & & % * $ # X   @ t -.9.Q t & & * & & & & & & & & & ",
"w.6.w.6.6.6.6.6.;.6.6.9.+.S , & & & & & & * * & & & & & & @ o . @ q ;.i.' i % & $ * & & & & & & & & ",
"6.w.6.w.6.6.6.6.9.6.6.9.' i * & & & ; 0 , , 8 8 2 2 2 t 2 $ + o # c -.i.' S , , 2 2 e t 2 2 & & # $ ",
"' ' ' ' ' ' X.' ) ) ) ' S & # + & q ! ! Y Y Y Y J J Q K K d 2 & t ) i.w.;.' Y J J K K K J m ; # + + ",
"i i i i i i i i i i i i & # o o & ! ;.;.;.;.;.;.-.;.-.-.-.%.O.Q %.9.b.b.9.9.5.6.<.%.-.-.@.) ; # X X ",
"* * & % & & & & & & & & $ + . X & _ b.b.b.t.t.t.b.b.j.j.j.j.j.t.y.t.w.h.j.j.h.w.j.j.i.j.i.@.e @     ",
"* & & * & & & & & & & & + o . o & ) b.i.;.) %.%.) %.X.' X.X.' %.' O.O.+.X.X.X.X.....@...@.! & @     ",
"& & & & & & & : & & & % % +   X & _ j.;.) J n n m i J S S n n i S S S S J N S N m m m J m 0 # X     ",
"$ $ & & & & & : & % & & + o . o & _ j...J ; & * * * * & & * & * & & & & & * : : & ; & & ; $ @ X     ",
"# # + $ $ + % O + % + % o o . o $ V #._ d & & & & & & & % & & % & & & & & & & & & & & & & $ + X     ",
"o + o + + + O O o o o o o X   X # 6 ! q 2 & & & & & & & * & & & & & & % & & , & & & & & & $ + .     ",
". . . . X . . . . . . .         + $ ; ; * * & & & & & & & & & & & & & & & & & & & & & & & $ @ X     ",
". . . .   . X X o o X o o X o o # & ; 0 8 e 2 2 2 2 e 8 e 8 8 8 8 , , , & & % % * 0 , * 0 & $ O . o ",
"O O O . . . O # & & & & & & & & 0 c J ! K Q K ! ! K ~ ~ J ) J J J J ! m ; $ # $ q ! ! ! Y J c ; & & ",
"# # O X . X # e _ _ _ _ _ _ _ ) ....;.;.;.;.;.-.-.-.;.;.;.;.;.;.;.;.;.) ; # X $ q ..;.#.;.+.' ' ) ) ",
"& & # O . O & ) k.j.b.k.a.k.9.t.i.j.b.j.b.b.b.i.b.j.j.j.j.j.b.b.i.b.j.@.; O . # ! k.l.k.j.j.j.w.j.i.",
"& & # O . X & Q j.i.3.......%.%.@.......' ' %.%.@.@.....' #...........J & O . # V 6.j.6.;.X.X.X.....",
"& & # o . X ; ) j.+.' J n n m n m J n m J i n n n S S n J J N N m m J t $ X . # V 6.9.' Q J N S J c ",
"& $ # o . X & ) t.%.S * & & * * & * & & * * * & & * & * * & & * * & * $ @ X . # ! j.;.J 0 & , & & ; ",
"% & # o . X $ n +.K i * & & & & & & & & % & & & & & & % & & & & & & & $ @ X . # q ..) F , & & & & & ",
"& & + o . . # 8 J n 8 & & & & & & & & & & & & & & & & & & & * % $ & & $ @ X   O % F c 0 * & & & & & ",
"& % # X . . @ $ e * & & & & & & & * * $ & $ $ & & & & & & & & & & & & $ + .   o + * 2 * & & & & & & ",
", 8 & @ @ o # $ e & & $ $ $ & & & $ & & * e e t 2 8 * 0 8 2 2 2 * 0 2 * $ + O @ & * 2 & & & * * 2 * ",
"J J n 0 * * e m K e $ @ # # % & & $ * 2 d K J ! J Q Y Q Q K J J Q J K J t ; & 6 n J n e 2 & t i J K ",
"<.<.%.) ! _ } -.-.x $ o + @ $ & $ * & d ! @.;.;.<.+.;.;.;.-.;.;.+.8.+.+.%.) ) ..@.+.Q n , 2 c ) ;.;.",
"j.j.b.w.i.i.b.b.t.m # . o + $ & & $ 2 n ..j.b.b.n.n.w.b.b.b.j.j.w.w.t.t.w.t.b.t.b.b.@.J 2 * J %.b.i.",
"' ' %.' @.} @.@.Q 2 @ . X + $ & $ * * n ..j.i.i.;.+.+.' ' +.;.' %.' %.O.%.' %.' %.' ! ; # $ 0 J %.%.",
"J m n n i c m m n & + . X + $ & 2 $ $ J @.b.i.' ~ F S N S i J i S S n S n m n S c J ; $ + + # 0 i J ",
"* * * * * * & ; & + o   X + $ & $ $ * J ' j.;.! 0 & * & * * * * & & * & * * & * * & $ O X . + # & * ",
"% & & % & & & & $ # O   X @ $ & & & & d Q %.) n * & & & & & & $ & & & & & & & & & & + + X X + + & & ",
"* & & & & & & & & @ X   X @ $ & & & & 2 i J n 8 * & & % & & & & & & & & & $ & & & & + + X   + + & & ",
", & & & & & & & $ # X   X @ $ & & & & & * 8 * * & & & & & & & & $ & & & & & & & & , + + X   + + % & ",
"% % % % % % & & ; $ # X @ # ; ; 2 2 2 e e * 2 2 2 2 2 2 2 * e t 2 2 2 2 & & $ $ $ + + +   X + + $ $ ",
"+ + o + + # & q ! c 6 & ; c F J Q K K Q J ! J J K K K K Q J J ! K K Y c * # + + + + o X     X + + + ",
"X . X X o o & ! ;.@._ ) ) ..;.;.+.<.<.+.;.;.;.;.-.-.;.;.;.;.;.;.<.<.;.) 0 # X . . X .           X X ",
"  . . .   o = ' k.k.b.j.j.j.i.j.b.9.t.9.b.b.j.j.b.b.j.i.b.j.i.j.b.b.j...0 O       .   X . . . . . . ",
"+ % + % # & F X.b.i.;.@...@.@.' ) O.%.%.) %.....%.' ' %.%.) @.@.%.' %.J & o   X o # # # $ $ & + # # ",
"! ! z z ! ! @.7.j.;.) J c c c F n n n n m m F c S n n n n n n J F F ! e $ X   O & q ! ! z ! z V S J ",
"7.i.i.t.7.t.i.b.b.@.c ; * * & & * & & 2 * * & & & * & & & & , 2 & & ; $ @ X . # c 6.i.t.7.i.i.i.y.8.",
"-.-.-.-.@.3.9.t.j.@.m ; & & & & & & & & & & & & & & $ & & & & & & & * $ @ X . # q ..;.-.-.-.i.3.8.8.",
"! ! K ! ! ! %.9.i.@.F & & & & & & & & & % & & & & & & & & & & & & & ; $ @ X   @ & J ! ! ! ! ! ! S S ",
"e e e * * t ) -.i...V & & & & & & & & & & & & & & * % * 2 & & $ & * & $ + .   O + , 2 2 e e 2 2 , , ",
"& & & & & & c ! ..! q & $ $ $ $ $ $ # $ # $ $ $ # # $ $ + $ $ $ # % $ # + X   o + & & & $ * * $ % & ",
"& & $ & & & ; 0 q & # @ O @ # O + + + + + + @ O @ @ + + + + o . + + + + X . . X $ & & & & & $ * % & ",
"& & & & & & # @ O O o X X X X X X X X X X X X X X X . X X X .   X . X . .   . + + & & & & & * $ & & ",
"& & & & & $ + X                                                               X + , , & & & & & & & ",
"& & & $ & $ + X                                                             . X + $ & & & , & & & & "
};
