/* XPM */
static char *_c5da34bc4be4199eca740fb388cda81QNQnL4pgjpvGuIpb[] = {
/* columns rows colors chars-per-pixel */
"15 15 24 1 ",
"  c #171324",
". c #181423",
"X c #191224",
"o c #1A1325",
"O c #191126",
"+ c #181425",
"@ c #252B41",
"# c #242A42",
"$ c #252B43",
"% c #262A43",
"& c #242C43",
"* c #262C42",
"= c #252B45",
"- c #262C44",
"; c #262C46",
": c #394366",
"> c #3B4367",
", c #384565",
"< c #3A4565",
"1 c #384567",
"2 c #3A4467",
"3 c #3B4666",
"4 c #3A4468",
"5 c #3B4568",
/* pixels */
"$;.$$$$$=+,*;#;",
"2222$@$$&+4#=*#",
";$$$O><<4,2224+",
"$$$@ <$$*##=#*+",
"ooO++$*$*=#;#*.",
";O,24222222+422",
"&+,$$$$$=#*+2%#",
"#.$$$$$$*#=+#;;",
"222+&$2244,12*4",
"*##+%#2$*%%&#+#",
";#*+%=%%&%&&#+*",
" +24>1<<444++o+",
"222$$$$$#%;+222",
"&#2$$$$$%&&o;*#",
"$$++ o+ ++++&;#"
};
