/* XPM */
static char *b13b8d319e664e409e88c9480f398b6eNz40pLakSxzSO5fJ[] = {
/* columns rows colors chars-per-pixel */
"50 50 229 2 ",
"   c None",
".  c #72683E",
"X  c #756A3E",
"o  c #756B3E",
"O  c #786D3A",
"+  c #796D3A",
"@  c #796D3B",
"#  c #7C6F38",
"$  c #796E3C",
"%  c #796E3D",
"&  c #7A6E3C",
"*  c #7A6F3E",
"=  c #7A703E",
"-  c #7A713E",
";  c #7B713E",
":  c #7F753E",
">  c #8E7C2E",
",  c #927F2D",
"<  c #8B7A30",
"1  c #82753C",
"2  c #85773D",
"3  c #867C3D",
"4  c #A88E1F",
"5  c #AB901E",
"6  c #BE9E13",
"7  c #BF9E13",
"8  c #BF9F15",
"9  c #BD9E1B",
"0  c #BFA01C",
"q  c #9C8526",
"w  c #9D8726",
"e  c #9C8627",
"r  c #9F8825",
"t  c #998328",
"y  c #9C8628",
"u  c #958230",
"i  c #97863A",
"p  c #92893D",
"a  c #978D3D",
"s  c #99883A",
"d  c #9B8A3B",
"f  c #9C8A3B",
"g  c #9F8D3B",
"h  c #9B903C",
"j  c #9B913D",
"k  c #9E953D",
"l  c #A58C21",
"z  c #A38B26",
"x  c #BA9E22",
"c  c #B89E28",
"v  c #A28E33",
"b  c #A28E34",
"n  c #AF9830",
"m  c #A49039",
"M  c #A6963B",
"N  c #A1983D",
"B  c #A49B3D",
"V  c #AB993A",
"C  c #A89A3A",
"Z  c #AB9A3A",
"A  c #AC9D3B",
"S  c #A89E3C",
"D  c #A89F3C",
"F  c #A9A03C",
"G  c #ADA23C",
"H  c #ACA33C",
"J  c #ADA33C",
"K  c #ADA43C",
"L  c #ADA53C",
"P  c #AFA53C",
"I  c #B7A033",
"U  c #BBA336",
"Y  c #BEA636",
"T  c #BBA739",
"R  c #B4AC3C",
"E  c #B9B03C",
"W  c #BCB33C",
"Q  c #BDB43C",
"!  c #CFAB0F",
"~  c #D4AD06",
"^  c #D2AC08",
"/  c #DEB608",
"(  c #CDAA12",
")  c #C0A21E",
"_  c #C4A51C",
"`  c #E0B601",
"'  c #E0B703",
"]  c #E1B703",
"[  c #E1B803",
"{  c #E1B903",
"}  c #E0B807",
"|  c #E2BA0B",
" . c #E2BB11",
".. c #E3BD15",
"X. c #E3BE16",
"o. c #E3BE17",
"O. c #E4BF1A",
"+. c #E4BF1B",
"@. c #CAAD2B",
"#. c #CAAE2C",
"$. c #D2B222",
"%. c #D1B42E",
"&. c #D7B82B",
"*. c #DDBD2B",
"=. c #C6AB30",
"-. c #C5AB34",
";. c #C7AE36",
":. c #C8AF38",
">. c #CDB234",
",. c #C2B139",
"<. c #CBB538",
"1. c #CCB638",
"2. c #CCB738",
"3. c #C6BA3A",
"4. c #C8BA3A",
"5. c #CDBB39",
"6. c #DBBD32",
"7. c #D9BC36",
"8. c #D1BC38",
"9. c #D1BD38",
"0. c #D6BF38",
"q. c #E0BE21",
"w. c #E0BE22",
"e. c #E5C10B",
"r. c #E8C612",
"t. c #E4C01C",
"y. c #E7C21C",
"u. c #E6C41C",
"i. c #ECC71E",
"p. c #CCC33B",
"a. c #CEC33B",
"s. c #CFC53B",
"d. c #CFC73B",
"f. c #C9C13C",
"g. c #DEC737",
"h. c #D0C43A",
"j. c #D4C739",
"k. c #D4C83A",
"l. c #D4CB3B",
"z. c #D5CC3B",
"x. c #D5CD3B",
"c. c #DECC38",
"v. c #DED73B",
"b. c #E5C223",
"n. c #E2C127",
"m. c #E6C324",
"M. c #E7C624",
"N. c #E6C426",
"B. c #EFCB27",
"V. c #E6C528",
"C. c #E7C529",
"Z. c #EDCB29",
"A. c #E9C82E",
"S. c #EAC92F",
"D. c #F0CB22",
"F. c #F0CC24",
"G. c #F0CD29",
"H. c #F1D225",
"J. c #F2D225",
"K. c #F3D726",
"L. c #F4D22F",
"P. c #F6D72D",
"I. c #E7C731",
"U. c #E8C830",
"Y. c #E8C831",
"T. c #E8C931",
"R. c #E9CA31",
"E. c #EBCB32",
"W. c #EACD32",
"Q. c #EBCF32",
"!. c #E5D337",
"~. c #EDD333",
"^. c #EFD233",
"/. c #EED431",
"(. c #EBD237",
"). c #EED136",
"_. c #EBD434",
"`. c #E8D536",
"'. c #EFD634",
"]. c #EDD835",
"[. c #E2D739",
"{. c #E6DC3A",
"}. c #F2D133",
"|. c #F0D233",
" X c #F5D333",
".X c #F0D433",
"XX c #F1D634",
"oX c #F1DB30",
"OX c #F0D834",
"+X c #F1DB35",
"@X c #F2DD35",
"#X c #F3DE35",
"$X c #F7DC35",
"%X c #F8D934",
"&X c #F9DC35",
"*X c #FADF36",
"=X c #F5E128",
"-X c #EDE53A",
";X c #F4E036",
":X c #F4E236",
">X c #F4E336",
",X c #F7E336",
"<X c #F6E637",
"1X c #FAE036",
"2X c #F9E337",
"3X c #FAE236",
"4X c #FBE336",
"5X c #FBE637",
"6X c #F7E837",
"7X c #F9EB30",
"8X c #FAED31",
"9X c #FCE937",
"0X c #F1EA3A",
"qX c #FCEB38",
"wX c #F9EC38",
"eX c #F9EF3A",
"rX c #FDEC38",
"tX c #FDEE38",
"yX c #FCF035",
"uX c #FDF137",
"iX c #FDF039",
"pX c #FCF139",
"aX c #FEF239",
"sX c #FEF339",
"dX c #FEF539",
"fX c #FEF53A",
"gX c #FFF63A",
"hX c #FFF73A",
"jX c #FFF83A",
/* pixels */
"                                                                                                    ",
"                                                                                                    ",
"                                                                                                    ",
"                                                                                                    ",
"                                                                                                    ",
"                                                                                                    ",
"                                                                                                    ",
"                                                                                                    ",
"                                                                                                    ",
"                                                                                                    ",
"                                                                                                    ",
"                                        . . . . . . . . . .                                         ",
"                                        F E E E P : p E E D                                         ",
"                                      3 s.pXpXpX{.h R -XeXh.2                                       ",
"                                  . k v.`.~.~.~._.[.W h g.).7.f .                                   ",
"                                  B 3.>X.X^.#X.X).#Xj.P T 0.2X4.B                                   ",
"                                ; x.6XT.}.*XdX5X XE.#X0Xa D dXdXz.=                                 ",
"                                ; x.6XT.}.*XdX5X XE.#X0Xa M 3X3X9.%                                 ",
"                                ; x.6XT.}.*XdX5X XE.$X0Xa M 3X3X9.%                                 ",
"                                ; x.6XT.}.*XdX5X XE.#X0Xa F gXgXz.;                                 ",
"                              N p.!.#X<X$X2XdX5X%X2X>X].k.Q F c.(.:.g                               ",
"                            . P dX'.OXjX4X*XdX5X%XiX>XT.eX4.X 5.*X*XC X                             ",
"                            . P dX'.'.dX4X*XdX5X*XiX>XQ.eXf.X s.dXdXG .                             ",
"                            . C #XQ.OXjXrXrXdXiXrXdX>XT.'.,.o d.jXjXP .                             ",
"                            . m I.T.^.7XtXdXjXiXiX8XoXT.T.U X h.iXdXG .                             ",
"                            . m T.T.M.e.H.4XdXrXP.r.y.T.I.U X <.%X*XC .                             ",
"                            . m I.T.N.o.G.2XdX5XL.y.b.I.T.U X 5.4X5XA .                             ",
"                            . m T.I.I.U.}.*XdX5X XQ.I.I.T.U o h.dXdXG .                             ",
"                            . m I.I.I.I.}.*XdX5X XE.T.I.T.U X <.2X*XV .                             ",
"                              s -.6.I.I.}.*XdX5X XE.N.q.=.n w $.n.;.m                               ",
"                                % -.T.I.}.*XdX5X XE.+.~ > w ` ` 6 +                                 ",
"                                % ) +.S.}.*XdX5X XE.+.~ > b D.D.@.%                                 ",
"                                + 6  .U.Z.H.=XK.F.T.+.~ > b B.F.#.+                                 ",
"                                + 6  .T.o.` [ [ | C.+.~ > w ` ` 0 +                                 ",
"                                  t c I.b.t.t.t.+.o._ z I %.i.x t                                   ",
"                                  . i >.*.N.N.N.q.( 5 u &.S.7.f .                                   ",
"                                      1 9 } } } ^ , l ^ / 0 2                                       ",
"                                        w 4 4 4 z & > l l w                                         ",
"                                        . . . . . . . . . .                                         ",
"                                                                                                    ",
"                                                                                                    ",
"                                                                                                    ",
"                                                                                                    ",
"                                                                                                    ",
"                                                                                                    ",
"                                                                                                    ",
"                                                                                                    ",
"                                                                                                    ",
"                                                                                                    ",
"                                                                                                    "
};
