/* XPM */
static char *result[] = {
/* columns rows colors chars-per-pixel */
"50 50 209 2 ",
"   c #72683E",
".  c #756A3E",
"X  c #756B3E",
"o  c #786D3A",
"O  c #796D3A",
"+  c #796D3B",
"@  c #7C6F38",
"#  c #7A6E3C",
"$  c #7A6E3D",
"%  c #7A6F3E",
"&  c #7A713E",
"*  c #7F753E",
"=  c #8E7C2E",
"-  c #8B7A30",
";  c #85773D",
":  c #867C3D",
">  c #A88E1F",
",  c #AB901E",
"<  c #BE9E13",
"1  c #BF9E13",
"2  c #BF9F15",
"3  c #BFA01B",
"4  c #BFA01C",
"5  c #9C8526",
"6  c #9C8527",
"7  c #9D8726",
"8  c #9F8825",
"9  c #93802D",
"0  c #998328",
"q  c #9C8628",
"w  c #948230",
"e  c #92893D",
"r  c #978E3D",
"t  c #9B8A3B",
"y  c #9C8A3B",
"u  c #9F8D3B",
"i  c #9B903C",
"p  c #9B923D",
"a  c #9E953D",
"s  c #A58C21",
"d  c #A38B26",
"f  c #BA9E22",
"g  c #A28E34",
"h  c #A6963B",
"j  c #AA963A",
"k  c #A1983D",
"l  c #A49B3D",
"z  c #A79E3C",
"x  c #AB993A",
"c  c #AB9A3A",
"v  c #AC9D3B",
"b  c #A89F3C",
"n  c #B59D31",
"m  c #BEA329",
"M  c #A9A03C",
"N  c #ADA23C",
"B  c #ACA33C",
"V  c #ADA33C",
"C  c #ADA43C",
"Z  c #ADA53C",
"A  c #AFA53C",
"S  c #B7A033",
"D  c #BBA739",
"F  c #B4AC3C",
"G  c #B9B03C",
"H  c #BCB33C",
"J  c #BDB43C",
"K  c #D4AD06",
"L  c #D2AC08",
"P  c #DEB608",
"I  c #C2A011",
"U  c #CFAC13",
"Y  c #C4A61F",
"T  c #D1AD10",
"R  c #E0B601",
"E  c #E0B702",
"W  c #E0B703",
"Q  c #E1B903",
"!  c #E2B805",
"~  c #E2BA07",
"^  c #CAAD2B",
"/  c #CBAE2C",
"(  c #D2B222",
")  c #D1B42E",
"_  c #D7B82B",
"`  c #C8AE36",
"'  c #C5AC38",
"]  c #C8AF38",
"[  c #CFB436",
"{  c #C7B63A",
"}  c #C8B038",
"|  c #CBB538",
" . c #CCB638",
".. c #C8BA3A",
"X. c #CDBB39",
"o. c #C8BC3B",
"O. c #D0B432",
"+. c #D9BC36",
"@. c #D9BD36",
"#. c #D1BC38",
"$. c #D2BD38",
"%. c #D6BF38",
"&. c #E7C012",
"*. c #E8C710",
"=. c #E9C215",
"-. c #EAC416",
";. c #EAC417",
":. c #E9C913",
">. c #E9CB13",
",. c #EBCE16",
"<. c #EBC519",
"1. c #ECC71E",
"2. c #EDC81D",
"3. c #EEC81E",
"4. c #EECB1E",
"5. c #EECE1E",
"6. c #F0D91F",
"7. c #CCC33B",
"8. c #CEC33B",
"9. c #CFC53B",
"0. c #CFC73B",
"q. c #C9C13C",
"w. c #DEC737",
"e. c #D0C43A",
"r. c #D0C63B",
"t. c #D4CB3B",
"y. c #D6CA3A",
"u. c #D5CC3B",
"i. c #D5CD3B",
"p. c #DECC38",
"a. c #D9D23B",
"s. c #DED73B",
"d. c #E2C127",
"f. c #EAC723",
"g. c #EBC724",
"h. c #E9C82E",
"j. c #F0CB22",
"k. c #F0CC24",
"l. c #F1CC25",
"z. c #F2CD26",
"x. c #F2CE28",
"c. c #F2CF29",
"v. c #F3D627",
"b. c #F3D827",
"n. c #F4D12C",
"m. c #F5D82C",
"M. c #F6DD2C",
"N. c #F6DF2D",
"B. c #E9C935",
"V. c #EBD337",
"C. c #EED136",
"Z. c #E5D93A",
"A. c #ECD938",
"S. c #E8DE3A",
"D. c #F7D533",
"F. c #F6D434",
"G. c #F8D633",
"H. c #F8D634",
"J. c #F8D734",
"K. c #F0DC37",
"L. c #F5DD36",
"P. c #F8D834",
"I. c #F9D935",
"U. c #F9DA35",
"Y. c #F9DB35",
"T. c #F9DC35",
"R. c #FADD35",
"E. c #FADE35",
"W. c #FADF36",
"Q. c #F4E126",
"!. c #F5E429",
"~. c #F7E72B",
"^. c #F7E32E",
"/. c #EDE53A",
"(. c #F6E037",
"). c #F9E232",
"_. c #FAE036",
"`. c #F9E337",
"'. c #FAE236",
"]. c #FBE336",
"[. c #FBE436",
"{. c #FBE437",
"}. c #FBE537",
"|. c #FBE637",
" X c #FAEE31",
".X c #FCE837",
"XX c #FBEF34",
"oX c #F1EA3A",
"OX c #FAE838",
"+X c #FCEB38",
"@X c #F9EF3A",
"#X c #FDEC38",
"$X c #FDEE38",
"%X c #FDEF38",
"&X c #FCF134",
"*X c #FCF235",
"=X c #FDF337",
"-X c #FEF537",
";X c #FEF139",
":X c #FEF239",
">X c #FEF339",
",X c #FEF438",
"<X c #FEF439",
"1X c #FEF539",
"2X c #FEF638",
"3X c #FFF63A",
"4X c #FFF73A",
"5X c #FFF83A",
"6X c None",
/* pixels */
"6X6X6X6X6X6X6X6X6X6X6X6X6X6X6X6X6X6X6X6X6X6X6X6X6X6X6X6X6X6X6X6X6X6X6X6X6X6X6X6X6X6X6X6X6X6X6X6X6X6X",
"6X6X6X6X6X6X6X6X6X6X6X6X6X6X6X6X6X6X6X6X6X6X6X6X6X6X6X6X6X6X6X6X6X6X6X6X6X6X6X6X6X6X6X6X6X6X6X6X6X6X",
"6X6X6X6X6X6X6X6X6X6X6X6X6X6X6X6X6X6X6X6X6X6X6X6X6X6X6X6X6X6X6X6X6X6X6X6X6X6X6X6X6X6X6X6X6X6X6X6X6X6X",
"6X6X6X6X6X6X6X6X6X6X6X6X6X6X6X6X6X6X6X6X6X6X6X6X6X6X6X6X6X6X6X6X6X6X6X6X6X6X6X6X6X6X6X6X6X6X6X6X6X6X",
"6X6X6X6X6X6X6X6X6X6X6X6X6X6X6X6X6X6X6X6X6X6X6X6X6X6X6X6X6X6X6X6X6X6X6X6X6X6X6X6X6X6X6X6X6X6X6X6X6X6X",
"6X6X6X6X6X6X6X6X6X6X6X6X6X6X6X6X6X6X6X6X6X6X6X6X6X6X6X6X6X6X6X6X6X6X6X6X6X6X6X6X6X6X6X6X6X6X6X6X6X6X",
"6X6X6X6X6X6X6X6X6X6X6X6X6X6X6X6X6X6X6X6X6X6X6X6X6X6X6X6X6X6X6X6X6X6X6X6X6X6X6X6X6X6X6X6X6X6X6X6X6X6X",
"6X6X6X6X6X6X6X6X6X6X6X6X6X6X6X6X6X6X6X6X6X6X6X6X6X6X6X6X6X6X6X6X6X6X6X6X6X6X6X6X6X6X6X6X6X6X6X6X6X6X",
"6X6X6X6X6X6X6X6X6X6X6X6X6X6X6X6X6X6X6X6X6X6X6X6X6X6X6X6X6X6X6X6X6X6X6X6X6X6X6X6X6X6X6X6X6X6X6X6X6X6X",
"6X6X6X6X6X6X6X6X6X6X6X6X6X6X6X6X6X6X6X6X6X6X6X6X6X6X6X6X6X6X6X6X6X6X6X6X6X6X6X6X6X6X6X6X6X6X6X6X6X6X",
"6X6X6X6X6X6X6X6X6X6X6X6X6X6X6X6X6X6X6X6X6X6X6X6X6X6X6X6X6X6X6X6X6X6X6X6X6X6X6X6X6X6X6X6X6X6X6X6X6X6X",
"6X6X6X6X6X6X6X6X6X6X6X6X6X6X6X6X6X6X6X6X                    6X6X6X6X6X6X6X6X6X6X6X6X6X6X6X6X6X6X6X6X",
"6X6X6X6X6X6X6X6X6X6X6X6X6X6X6X6X6X6X6X6Xb G G e * B G G G b 6X6X6X6X6X6X6X6X6X6X6X6X6X6X6X6X6X6X6X6X",
"6X6X6X6X6X6X6X6X6X6X6X6X6X6X6X6X6X6X6X; e.@X/.F p S.>X>X>Xr.: 6X6X6X6X6X6X6X6X6X6X6X6X6X6X6X6X6X6X6X",
"6X6X6X6X6X6X6X6X6X6X6X6X6X6X6X6X6X  y @.C.w.i H Z.L.R.R.R.K.s.a   6X6X6X6X6X6X6X6X6X6X6X6X6X6X6X6X6X",
"6X6X6X6X6X6X6X6X6X6X6X6X6X6X6X6X6Xl ..`.%.D A a.<X.X{.].U.E.OXo.l 6X6X6X6X6X6X6X6X6X6X6X6X6X6X6X6X6X",
"6X6X6X6X6X6X6X6X6X6X6X6X6X6X6X6X& t.3X3Xz r oX5X5X5X5X1XW.H.J.#Xi.& 6X6X6X6X6X6X6X6X6X6X6X6X6X6X6X6X",
"6X6X6X6X6X6X6X6X6X6X6X6X6X6X6X6X% #._._.h r oX5X5X5X5X1XW.H.J.#Xi.& 6X6X6X6X6X6X6X6X6X6X6X6X6X6X6X6X",
"6X6X6X6X6X6X6X6X6X6X6X6X6X6X6X6X% $.'.'.h r oX5X5X5X5X1XW.H.J.#Xi.& 6X6X6X6X6X6X6X6X6X6X6X6X6X6X6X6X",
"6X6X6X6X6X6X6X6X6X6X6X6X6X6X6X6X& u.4X4Xz r oX5X5X5X5X1XW.H.J.#Xi.& 6X6X6X6X6X6X6X6X6X6X6X6X6X6X6X6X",
"6X6X6X6X6X6X6X6X6X6X6X6X6X6X6Xu } V.p.M J y.(.$X5X5X5X4X$X].H.W.A.7.k 6X6X6X6X6X6X6X6X6X6X6X6X6X6X6X",
"6X6X6X6X6X6X6X6X6X6X6X6X6X6X  c W.W. .. q.%XI..X5X5X5X5X5X+XH.H._.3XC   6X6X6X6X6X6X6X6X6X6X6X6X6X6X",
"6X6X6X6X6X6X6X6X6X6X6X6X6X6X  V 1X1X9.X q.%XI..X5X5X5X5X5X+XH.H._.3XC   6X6X6X6X6X6X6X6X6X6X6X6X6X6X",
"6X6X6X6X6X6X6X6X6X6X6X6X6X6X  Z 5X5X0.X { '.P..X5X5X5X5X5X+XH.H.Y.}.v   6X6X6X6X6X6X6X6X6X6X6X6X6X6X",
"6X6X6X6X6X6X6X6X6X6X6X6X6X6X  N :X:X8.X ' H.H.). X2X5X5X5X+XH.H.H.H.j   6X6X6X6X6X6X6X6X6X6X6X6X6X6X",
"6X6X6X6X6X6X6X6X6X6X6X6X6X6X  x T.T.| . ' H.H.4.>. X5X5X5X+XH.H.H.H.j   6X6X6X6X6X6X6X6X6X6X6X6X6X6X",
"6X6X6X6X6X6X6X6X6X6X6X6X6X6X  v |.|.X.. ' H.H.l.5.XX5X-XQ.b.H.H.H.H.j   6X6X6X6X6X6X6X6X6X6X6X6X6X6X",
"6X6X6X6X6X6X6X6X6X6X6X6X6X6X  V 1X1X9.X ' H.H.P.W.>X5X*X:.;.H.H.H.H.j   6X6X6X6X6X6X6X6X6X6X6X6X6X6X",
"6X6X6X6X6X6X6X6X6X6X6X6X6X6X  c W.W. .. ' H.H.[.;X3X5X,Xm.n.H.H.H.H.j   6X6X6X6X6X6X6X6X6X6X6X6X6X6X",
"6X6X6X6X6X6X6X6X6X6X6X6X6X6X6Xu ` d.( 7 n O.f.^.5X5X5X=Xv.x.H.H.B.] u 6X6X6X6X6X6X6X6X6X6X6X6X6X6X6X",
"6X6X6X6X6X6X6X6X6X6X6X6X6X6X6X6XO 1 R R 6 = K 6.5X5X5X&X*.=.H.G.[ $ 6X6X6X6X6X6X6X6X6X6X6X6X6X6X6X6X",
"6X6X6X6X6X6X6X6X6X6X6X6X6X6X6X6X# ^ j.j.g = K 6.5X5X5X2X~.M.G.2.Y + 6X6X6X6X6X6X6X6X6X6X6X6X6X6X6X6X",
"6X6X6X6X6X6X6X6X6X6X6X6X6X6X6X6X# / k.k.g = K ,.!.!.!.!.!.N.D.&.< o 6X6X6X6X6X6X6X6X6X6X6X6X6X6X6X6X",
"6X6X6X6X6X6X6X6X6X6X6X6X6X6X6X6XO 2 W W q = K E Q Q Q Q Q -.D.&.< o 6X6X6X6X6X6X6X6X6X6X6X6X6X6X6X6X",
"6X6X6X6X6X6X6X6X6X6X6X6X6X6X6X6X6X0 f 1.) S d I ! <.3.3.3.z.F.m 0 6X6X6X6X6X6X6X6X6X6X6X6X6X6X6X6X6X",
"6X6X6X6X6X6X6X6X6X6X6X6X6X6X6X6X6X  y +.h._ w , U g.c.c.c.h.+.t   6X6X6X6X6X6X6X6X6X6X6X6X6X6X6X6X6X",
"6X6X6X6X6X6X6X6X6X6X6X6X6X6X6X6X6X6X6X; 3 P L s 9 T ~ ~ ~ 4 ; 6X6X6X6X6X6X6X6X6X6X6X6X6X6X6X6X6X6X6X",
"6X6X6X6X6X6X6X6X6X6X6X6X6X6X6X6X6X6X6X6X5 > > - @ 8 > > > 5 6X6X6X6X6X6X6X6X6X6X6X6X6X6X6X6X6X6X6X6X",
"6X6X6X6X6X6X6X6X6X6X6X6X6X6X6X6X6X6X6X6X                    6X6X6X6X6X6X6X6X6X6X6X6X6X6X6X6X6X6X6X6X",
"6X6X6X6X6X6X6X6X6X6X6X6X6X6X6X6X6X6X6X6X6X6X6X6X6X6X6X6X6X6X6X6X6X6X6X6X6X6X6X6X6X6X6X6X6X6X6X6X6X6X",
"6X6X6X6X6X6X6X6X6X6X6X6X6X6X6X6X6X6X6X6X6X6X6X6X6X6X6X6X6X6X6X6X6X6X6X6X6X6X6X6X6X6X6X6X6X6X6X6X6X6X",
"6X6X6X6X6X6X6X6X6X6X6X6X6X6X6X6X6X6X6X6X6X6X6X6X6X6X6X6X6X6X6X6X6X6X6X6X6X6X6X6X6X6X6X6X6X6X6X6X6X6X",
"6X6X6X6X6X6X6X6X6X6X6X6X6X6X6X6X6X6X6X6X6X6X6X6X6X6X6X6X6X6X6X6X6X6X6X6X6X6X6X6X6X6X6X6X6X6X6X6X6X6X",
"6X6X6X6X6X6X6X6X6X6X6X6X6X6X6X6X6X6X6X6X6X6X6X6X6X6X6X6X6X6X6X6X6X6X6X6X6X6X6X6X6X6X6X6X6X6X6X6X6X6X",
"6X6X6X6X6X6X6X6X6X6X6X6X6X6X6X6X6X6X6X6X6X6X6X6X6X6X6X6X6X6X6X6X6X6X6X6X6X6X6X6X6X6X6X6X6X6X6X6X6X6X",
"6X6X6X6X6X6X6X6X6X6X6X6X6X6X6X6X6X6X6X6X6X6X6X6X6X6X6X6X6X6X6X6X6X6X6X6X6X6X6X6X6X6X6X6X6X6X6X6X6X6X",
"6X6X6X6X6X6X6X6X6X6X6X6X6X6X6X6X6X6X6X6X6X6X6X6X6X6X6X6X6X6X6X6X6X6X6X6X6X6X6X6X6X6X6X6X6X6X6X6X6X6X",
"6X6X6X6X6X6X6X6X6X6X6X6X6X6X6X6X6X6X6X6X6X6X6X6X6X6X6X6X6X6X6X6X6X6X6X6X6X6X6X6X6X6X6X6X6X6X6X6X6X6X",
"6X6X6X6X6X6X6X6X6X6X6X6X6X6X6X6X6X6X6X6X6X6X6X6X6X6X6X6X6X6X6X6X6X6X6X6X6X6X6X6X6X6X6X6X6X6X6X6X6X6X",
"6X6X6X6X6X6X6X6X6X6X6X6X6X6X6X6X6X6X6X6X6X6X6X6X6X6X6X6X6X6X6X6X6X6X6X6X6X6X6X6X6X6X6X6X6X6X6X6X6X6X"
};
