/* XPM */
static char *d13ad1aab63f47cac1f2e2440b9b7c26iVxoiBhTKPtYdvtG[] = {
/* columns rows colors chars-per-pixel */
"50 50 166 2 ",
"   c None",
".  c #72683E",
"X  c #786C3A",
"o  c #7F723D",
"O  c #7F733D",
"+  c #8F7D2D",
"@  c #867633",
"#  c #867634",
"$  c #887831",
"%  c #8F7D30",
"&  c #877839",
"*  c #87793A",
"=  c #87793C",
"-  c #897A39",
";  c #8B7E3D",
":  c #A88E1F",
">  c #B69818",
",  c #B6991A",
"<  c #B79A1D",
"1  c #968229",
"2  c #8B823D",
"3  c #8F863D",
"4  c #938338",
"5  c #968438",
"6  c #968538",
"7  c #95863C",
"8  c #98873B",
"9  c #968C3D",
"0  c #9F8C39",
"q  c #988F3D",
"w  c #A68C21",
"e  c #A78E20",
"r  c #A48C22",
"t  c #A18B29",
"y  c #AF9420",
"u  c #B49922",
"i  c #B89C22",
"p  c #A08F3B",
"a  c #A79130",
"s  c #A0903B",
"d  c #A1933C",
"f  c #A1973C",
"g  c #A89438",
"h  c #A99538",
"j  c #A1983D",
"k  c #A2983C",
"l  c #A2993D",
"z  c #B59E33",
"x  c #B39D38",
"c  c #B09D3A",
"v  c #B19F3A",
"b  c #BFAB28",
"n  c #ABA03B",
"m  c #B7A032",
"M  c #BAA130",
"N  c #BBA335",
"B  c #B8A337",
"V  c #BBA436",
"C  c #B1A23B",
"Z  c #B0A43B",
"A  c #B2A73C",
"S  c #BBA739",
"D  c #B3A93C",
"F  c #B3AA3C",
"G  c #B5AC3C",
"H  c #BEB33B",
"J  c #B9B03C",
"K  c #CBA70B",
"L  c #CCA80C",
"P  c #CDA90E",
"I  c #CCA90F",
"U  c #D7B10D",
"Y  c #CDAA12",
"T  c #C9A91B",
"R  c #CDB21C",
"E  c #E0B601",
"W  c #E0B703",
"Q  c #E0B706",
"!  c #E2BA07",
"~  c #E3BD15",
"^  c #C2A524",
"/  c #C0A52D",
"(  c #C0A62E",
")  c #D9B927",
"_  c #D1B329",
"`  c #D1B42C",
"'  c #D5BF2E",
"]  c #DABA29",
"[  c #DFBE29",
"{  c #C8AE34",
"}  c #C4AB38",
"|  c #C6B239",
" . c #C6B339",
".. c #C1B53B",
"X. c #C4B639",
"o. c #CAB338",
"O. c #CEBE3A",
"+. c #D3B733",
"@. c #DDBF32",
"#. c #E9C916",
"$. c #E5C11F",
"%. c #E6C21F",
"&. c #EACB1B",
"*. c #EEC81E",
"=. c #EED41B",
"-. c #EED51D",
";. c #EFD61F",
":. c #C9C03B",
">. c #C9C13B",
",. c #C9C13C",
"<. c #DEC232",
"1. c #DACA38",
"2. c #E5C223",
"3. c #E6C324",
"4. c #EEC920",
"5. c #E6C42B",
"6. c #E4C42E",
"7. c #EBCE2E",
"8. c #F0CB22",
"9. c #F0CC24",
"0. c #F2CF29",
"q. c #EDD22D",
"w. c #F2DD23",
"e. c #F2DC25",
"r. c #F1DB2E",
"t. c #E2CB37",
"y. c #E2CC37",
"u. c #E6CE37",
"i. c #EED433",
"p. c #EED533",
"a. c #ECD236",
"s. c #E5DC3A",
"d. c #E6DE3B",
"f. c #F2DC30",
"g. c #F0D937",
"h. c #F6DA35",
"j. c #F3DE35",
"k. c #F3DE37",
"l. c #F7DC36",
"z. c #F9DC35",
"x. c #FADD35",
"c. c #FADF36",
"v. c #F2E234",
"b. c #FAE036",
"n. c #F8E337",
"m. c #FAE236",
"M. c #FBE336",
"N. c #FBE437",
"B. c #FBE637",
"V. c #F9EB37",
"C. c #F0E53A",
"Z. c #FBEF39",
"A. c #FCF235",
"S. c #FCF236",
"D. c #FDF437",
"F. c #FBF239",
"G. c #FDF338",
"H. c #FDF339",
"J. c #FEF239",
"K. c #FEF339",
"L. c #FEF539",
"P. c #FCF53A",
"I. c #FEF63A",
"U. c #FFF63A",
"Y. c #FFF73A",
"T. c #FFF83A",
/* pixels */
"                                                                                                    ",
"                                                                                                    ",
"                                                                                                    ",
"                                                                                                    ",
"                                                                                                    ",
"                                                                                                    ",
"                                                                                                    ",
"                                                                                                    ",
"                                                                                                    ",
"                                                                                                    ",
"                                                                                                    ",
"                                            . . . . . .                                             ",
"                                          . . q J J J G 3                                           ",
"                                        . . . H K.K.K.C.9 .                                         ",
"                                        . . . S x.x.x.a.7 .                                         ",
"                                        . O 0 x o.g.N.k...j                                         ",
"                                        X 6 <.h 3 s.I.I.I.O..                                       ",
"                                      . e R v.n ; t.x.M.M.| .                                       ",
"                                      . i &.S.F ; y.M.M.M.| .                                       ",
"                                      . N i.K.F 2 s.T.I.I.,..                                       ",
"                                      . X.V.I.1.B n O.M.M.u.} 8                                     ",
"                                      . ,.T.T.r._ * x x.x.b.l.s .                                   ",
"                                      . ,.T.T.-.Y @ F I.I.I.F.j .                                   ",
"                                      . b w.D.=.K @ F T.T.T.I.j .                                   ",
"                                      . < #.D.-.Y @ A K.K.K.Z.d .                                   ",
"                                      . M q.S.r.` * x x.z.z.l.0 .                                   ",
"                                      . V p.K.k.+.= n B.N.N.n.s .                                   ",
"                                      . V p.D.k.+.= F I.I.I.P.j .                                   ",
"                                      . V p.K.l.+.= C x.M.x.l.s .                                   ",
"                                      . V q.e.' z t ^ 4.*.[ } 8                                     ",
"                                      . V 3.U e # L E E E > .                                       ",
"                                      . < ~ %.a - ) 8.8.8.( .                                       ",
"                                      . e T 6.g - ] 9.9.4.( .                                       ",
"                                        X 6 @.h # L W W ! > .                                       ",
"                                        . O 0 x { 2.*.2.u 1                                         ",
"                                        . . . m 0.0.0.5.4 .                                         ",
"                                        . . . y ! ! ! U % .                                         ",
"                                          . . + : : : e $                                           ",
"                                            . . . . . .                                             ",
"                                                                                                    ",
"                                                                                                    ",
"                                                                                                    ",
"                                                                                                    ",
"                                                                                                    ",
"                                                                                                    ",
"                                                                                                    ",
"                                                                                                    ",
"                                                                                                    ",
"                                                                                                    ",
"                                                                                                    "
};
