/* XPM */
static char *dc57cc040a964f9ed9660c60d87d0eafE5KyNbyfcOYLfqvE[] = {
/* columns rows colors chars-per-pixel */
"50 50 92 1 ",
"  c None",
". c #72683E",
"X c #786C3A",
"o c #786D3A",
"O c #7A703E",
"+ c #7A713E",
"@ c #8F7C2E",
"# c #817335",
"$ c #807236",
"% c #827438",
"& c #82753C",
"* c #857B3D",
"= c #867C3D",
"- c #A88E1F",
"; c #B2951A",
": c #BC9D18",
"> c #BD9E1B",
", c #9C8526",
"< c #978E3D",
"1 c #9F8D39",
"2 c #988E3D",
"3 c #A48B23",
"4 c #AD9837",
"5 c #AD9838",
"6 c #A89F3C",
"7 c #B2A33A",
"8 c #B1A83C",
"9 c #B2A83C",
"0 c #B8B03C",
"q c #B9B03C",
"w c #C7A40E",
"e c #C9A91B",
"r c #CFAD19",
"t c #DAB81D",
"y c #E0B706",
"u c #E1B903",
"i c #E0B807",
"p c #E3BD15",
"a c #E3BE17",
"s c #DBBA24",
"d c #DDBD2B",
"f c #C1A833",
"g c #CEB333",
"h c #C4BC3C",
"j c #E5C10A",
"k c #E6C316",
"l c #E4C018",
"z c #E4C01C",
"x c #E5C11E",
"c c #E5C11F",
"v c #CFC53B",
"b c #E5C323",
"n c #E6C426",
"m c #E7C62D",
"M c #E8C72F",
"N c #E8C82F",
"B c #EFD72C",
"V c #F3DF24",
"C c #F2DD2A",
"Z c #E8C830",
"A c #E8C831",
"S c #E8C931",
"D c #E9C931",
"F c #E9CA31",
"G c #E9CB32",
"H c #EACC32",
"J c #EACD32",
"K c #EDD333",
"L c #EED533",
"P c #E8D536",
"I c #EED634",
"U c #E0D138",
"Y c #E0D83B",
"T c #F0D834",
"R c #F1DA34",
"E c #F1DB35",
"W c #F2DC35",
"Q c #F2DD35",
"! c #F5E429",
"~ c #F4E130",
"^ c #F4E236",
"/ c #F5E436",
"( c #F9EC30",
") c #F8E937",
"_ c #F8EA37",
"` c #F9EC38",
"' c #FAEE38",
"] c #FCF235",
"[ c #FCF139",
"{ c #FCF239",
"} c #FFF73A",
"| c #FFF83A",
/* pixels */
"                                                  ",
"                                                  ",
"                                                  ",
"                                                  ",
"                                                  ",
"                                                  ",
"                                                  ",
"                                                  ",
"                                                  ",
"                                                  ",
"                                                  ",
"                    ..........                    ",
"                  ..6qqqqqqqq6..                  ",
"                 *==v[[[[[[[[v==*                 ",
"                +hYYPKKKKKKKKPYYh+                ",
"               29U//KAAKWWKAAK//U9<               ",
"              +9[IAJAAA^||^AAAJAT{9+              ",
"             =hUIJK)LAA/||^AAL)LAIUh=             ",
"            .=Y/AAI|RAA^||^AAW}LAA/Y=             ",
"            .=Y^AAT}RAA^||^AAT|TAS/Y=             ",
"           .6vPKAW`|TAA^||^AAR|`WAIPv6.           ",
"           .q[IAJ`||TAA^||^AAR||`ASK[q.           ",
"           .q[LAA_||WAA/||/AAR||_JAL[q.           ",
"           .7TJAJ_||_^^`||`^^_||_AAJW7.           ",
"           .4AAAA~(((((]||](((((~AAAA5.           ",
"           .4AAANkjjjju!||!jujjjkNAAA5.           ",
"           .4AAANxaallaC||CaaalaxAAAA5.           ",
"           .4AAAAAAAAAA^||^AAAAAAAAAA5.           ",
"           .4AAAAAAAAAA^||^AAAAAAAAAA5.           ",
"           .1fsbAAAAAAA^||^AAAAAAAbsf1.           ",
"            .#waAAAAAAA^||^AAAAAAAaw$             ",
"            .#waAAAAAAA^||^AAAAAAMaw#             ",
"             $;rbmNAAAAC!!BAAAAAMbr;$             ",
"              X3ybAAAAAlyuaAAAAAby3X              ",
"               @3raabAAnxanAAAAxr3@               ",
"                X;wwtnnnnnnnbdge;X                ",
"                 $$#:iiiiiiiie&%$                 ",
"                    ,----3---,                    ",
"                    ..........                    ",
"                                                  ",
"                                                  ",
"                                                  ",
"                                                  ",
"                                                  ",
"                                                  ",
"                                                  ",
"                                                  ",
"                                                  ",
"                                                  ",
"                                                  "
};
