/* XPM */
static char *f59b1e3b5407436dc61fc44ca0cc99d9IJWwFJdq02aFIshI[] = {
/* columns rows colors chars-per-pixel */
"50 50 224 2 ",
"   c None",
".  c #72683E",
"X  c #756A3E",
"o  c #756B3E",
"O  c #786D3A",
"+  c #796D3A",
"@  c #796D3B",
"#  c #7C6F38",
"$  c #796E3D",
"%  c #7A6E3C",
"&  c #7A6F3E",
"*  c #7A713E",
"=  c #7F753E",
"-  c #8E7C2E",
";  c #927F2D",
":  c #8B7A30",
">  c #82753C",
",  c #85773D",
"<  c #867C3D",
"1  c #A88E1F",
"2  c #AB901E",
"3  c #BE9E13",
"4  c #BF9E13",
"5  c #BF9F15",
"6  c #BD9E1B",
"7  c #BFA01B",
"8  c #9C8526",
"9  c #9C8527",
"0  c #9D8726",
"q  c #9F8825",
"w  c #998328",
"e  c #9C8628",
"r  c #948230",
"t  c #97863A",
"y  c #92893D",
"u  c #978E3D",
"i  c #99883A",
"p  c #9C8A3B",
"a  c #9F8D3B",
"s  c #9B903C",
"d  c #9B913D",
"f  c #9E953D",
"g  c #A58C21",
"h  c #A38B26",
"j  c #BA9E22",
"k  c #B89E28",
"l  c #A28E34",
"z  c #AF9830",
"x  c #A39039",
"c  c #A6963B",
"v  c #A1983D",
"b  c #A49B3D",
"n  c #A79E3C",
"m  c #AB993A",
"M  c #A89A3A",
"N  c #AB9A3A",
"B  c #AC9D3B",
"V  c #A89F3C",
"C  c #A9A03C",
"Z  c #ADA23C",
"A  c #ACA33C",
"S  c #ADA33C",
"D  c #ADA43C",
"F  c #ADA53C",
"G  c #AFA53C",
"H  c #B7A033",
"J  c #BBA436",
"K  c #BEA636",
"L  c #BBA739",
"P  c #B4AC3C",
"I  c #B9B03C",
"U  c #BCB33C",
"Y  c #BDB43C",
"T  c #CFAB0F",
"R  c #D4AD06",
"E  c #D2AC08",
"W  c #DEB608",
"Q  c #CDAA12",
"!  c #C0A21E",
"~  c #C4A51C",
"^  c #E0B601",
"/  c #E0B703",
"(  c #E1B703",
")  c #E1B803",
"_  c #E1B903",
"`  c #E0B807",
"'  c #E2BA0B",
"]  c #E2BB11",
"[  c #E3BD15",
"{  c #E3BE16",
"}  c #E3BE17",
"|  c #E4BF1A",
" . c #E4BF1B",
".. c #CAAD2B",
"X. c #CBAE2C",
"o. c #D2B222",
"O. c #D1B42E",
"+. c #D7B82B",
"@. c #DDBD2B",
"#. c #C6AB30",
"$. c #C4AB34",
"%. c #C8AE36",
"&. c #CCB234",
"*. c #C2B139",
"=. c #C8B038",
"-. c #CBB538",
";. c #CCB638",
":. c #C6BA3A",
">. c #C8BA3A",
",. c #CDBB39",
"<. c #DABD32",
"1. c #D9BC36",
"2. c #D9BD36",
"3. c #D1BC38",
"4. c #D2BD38",
"5. c #D6BF38",
"6. c #E0BE21",
"7. c #E0BE22",
"8. c #E5C10B",
"9. c #E8C612",
"0. c #E4C01C",
"q. c #E7C21C",
"w. c #E6C41C",
"e. c #ECC71E",
"r. c #CCC33B",
"t. c #CEC33B",
"y. c #CFC53B",
"u. c #CFC73B",
"i. c #C9C13C",
"p. c #DEC737",
"a. c #D0C43A",
"s. c #D4C739",
"d. c #D4C83A",
"f. c #D4CB3B",
"g. c #D5CC3B",
"h. c #D5CD3B",
"j. c #DECC38",
"k. c #DED73B",
"l. c #E5C223",
"z. c #E2C127",
"x. c #E6C324",
"c. c #E7C624",
"v. c #E6C426",
"b. c #EFCB27",
"n. c #E6C528",
"m. c #E7C529",
"M. c #EDCB29",
"N. c #E9C82E",
"B. c #EAC92F",
"V. c #F0CB22",
"C. c #F0CC24",
"Z. c #F0CD29",
"A. c #F1D225",
"S. c #F2D225",
"D. c #F3D726",
"F. c #F4D22F",
"G. c #F6D72D",
"H. c #E7C731",
"J. c #E8C830",
"K. c #E8C831",
"L. c #E8C931",
"P. c #E9CA31",
"I. c #EBCB32",
"U. c #EACD32",
"Y. c #EBCF32",
"T. c #E5D337",
"R. c #EDD333",
"E. c #EFD233",
"W. c #EED431",
"Q. c #EBD337",
"!. c #EED136",
"~. c #EBD434",
"^. c #E8D536",
"/. c #EFD634",
"(. c #EDD835",
"). c #E2D739",
"_. c #E7DC3A",
"`. c #F2D133",
"'. c #F0D233",
"]. c #F5D333",
"[. c #F0D433",
"{. c #F1D634",
"}. c #F1DB30",
"|. c #F0D834",
" X c #F1DB35",
".X c #F2DD35",
"XX c #F3DE35",
"oX c #F7DC35",
"OX c #F8D934",
"+X c #F9DC35",
"@X c #FADF36",
"#X c #F5E128",
"$X c #EDE53A",
"%X c #F4E036",
"&X c #F4E236",
"*X c #F4E336",
"=X c #F7E336",
"-X c #F6E637",
";X c #FAE036",
":X c #F9E337",
">X c #FAE236",
",X c #FBE336",
"<X c #FBE637",
"1X c #F7E837",
"2X c #F9EB30",
"3X c #FAED31",
"4X c #FCE937",
"5X c #F1EA3A",
"6X c #F9EB38",
"7X c #FCEB38",
"8X c #F9EF3A",
"9X c #FDEC38",
"0X c #FDEE38",
"qX c #FCF035",
"wX c #FDF137",
"eX c #FDF039",
"rX c #FCF139",
"tX c #FEF239",
"yX c #FEF339",
"uX c #FEF539",
"iX c #FEF53A",
"pX c #FFF63A",
"aX c #FFF73A",
"sX c #FFF83A",
/* pixels */
"                                                                                                    ",
"                                                                                                    ",
"                                                                                                    ",
"                                                                                                    ",
"                                                                                                    ",
"                                                                                                    ",
"                                                                                                    ",
"                                                                                                    ",
"                                                                                                    ",
"                                                                                                    ",
"                                                                                                    ",
"                                        . . . . . . . . . .                                         ",
"                                        V I I y > D I I I V                                         ",
"                                      , a.8X$XP d _.rXrXrXy.<                                       ",
"                                  . p 2.!.p.s U ).^.R.R.R.^.k.f .                                   ",
"                                  b >.:X5.L G d.XX'.'. XR.{.*X:.b                                   ",
"                                * d.aXaXn u 5X.XU.].<XaX@X`.J.-Xh.*                                 ",
"                                & 4.@X:Xc u 5X.XI.].<XaX@X`.J.6Xh.*                                 ",
"                                & 4.:X:Xc u 5X.XI.].<XrX@X'.J.-Xh.*                                 ",
"                                * d.aXaXn u 5X.XI.].<XaX@X'.J.1Xh.*                                 ",
"                              a =.!.j.C Y d./.*X*X+X<XaX@X@X-XXXT.r.v                               ",
"                            . N @X:X-.o i.6XU.*XwX+X<XrX@X,XaX{./.aXS .                             ",
"                            . S aXaXt.o i.6XU.*XrX+X<XaX@X:XaX{./.iXD .                             ",
"                            . D aXaXy.o *.|.B.*XaX4X0XaX0X0XsX|.Y..XM .                             ",
"                            . S rXrXt.o J J.B.|.3XwXaXaXwX0X2XW.K.K.x .                             ",
"                            . N +X+X-.o J J.J.q.9.G.4XaX,XS.8.c.K.J.x .                             ",
"                            . B <X<X,.o J J.K.l.q.F.<XrX:XZ.[ v.J.J.x .                             ",
"                            . S rXaXy.o L J.K.K.I.].<XaX@X`.J.J.J.J.x .                             ",
"                            . N :X@X;.X J K.K.K.I.].<XrX@X`.K.K.H.J.x .                             ",
"                              a %.7.o.h z #.6.v.I.].<XaX@X`.K.K.<.K i                               ",
"                                @ 4 ^ ^ 8 - R | I.].<XaX@X'.K.K.$.&                                 ",
"                                & ..V.V.l ; R 0.I.].<XrX@X'.K. .! @                                 ",
"                                & X.C.C.l - R | B.b.D.#XS.b.N.] 3 O                                 ",
"                                @ 4 ^ / e - R | m.' _ _ W [ N.] 3 O                                 ",
"                                  w j e.O.H h ~ } }  .0.q.v.H.k w                                   ",
"                                  . p 2.B.+.r 2 T @.v.v.v.@.&.t .                                   ",
"                                      , 7 W E g ; E ` ` ` ! >                                       ",
"                                        8 1 1 : # 0 g g 1 8                                         ",
"                                        . . . . . . . . o .                                         ",
"                                                                                                    ",
"                                                                                                    ",
"                                                                                                    ",
"                                                                                                    ",
"                                                                                                    ",
"                                                                                                    ",
"                                                                                                    ",
"                                                                                                    ",
"                                                                                                    ",
"                                                                                                    ",
"                                                                                                    "
};
