/* XPM */
static char *_1242c1a60c647ded293733904ced2489nPKWNiXHV8A4KAr[] = {
/* columns rows colors chars-per-pixel */
"50 50 104 2 ",
"   c None",
".  c #72683E",
"X  c #7A6E3D",
"o  c #7A6F3D",
"O  c #7F733D",
"+  c #8F7C2E",
"@  c #8F7C2F",
"#  c #887831",
"$  c #8F7D30",
"%  c #82753D",
"&  c #8E7F3C",
"*  c #A88E1F",
"=  c #AE931D",
"-  c #B1961E",
";  c #988328",
":  c #8F863D",
">  c #928136",
",  c #938237",
"<  c #938338",
"1  c #91823C",
"2  c #95863C",
"3  c #95873C",
"4  c #96883C",
"5  c #96893C",
"6  c #968C3D",
"7  c #968D3D",
"8  c #978D3D",
"9  c #978E3D",
"0  c #A68C21",
"q  c #AF9420",
"w  c #B59C2D",
"e  c #B59D2E",
"r  c #AB963A",
"t  c #AB973A",
"y  c #A39B3D",
"u  c #B7A032",
"i  c #BBA739",
"p  c #B5AC3C",
"a  c #BBA839",
"s  c #BCAA3A",
"d  c #BCAB3A",
"f  c #BCAC3A",
"g  c #BDB23B",
"h  c #BEB33B",
"j  c #B9B03C",
"k  c #BEB43C",
"l  c #BEB63C",
"z  c #BFB63C",
"x  c #D5AE07",
"c  c #D5AF09",
"v  c #D7B10D",
"b  c #E0B601",
"n  c #E0B703",
"m  c #E2BA07",
"M  c #DEBF2C",
"N  c #C3AB38",
"B  c #C5AC38",
"V  c #C6AD38",
"C  c #C9AF38",
"Z  c #C9B037",
"A  c #C2B83B",
"S  c #D4B837",
"D  c #D5B937",
"F  c #E1BE21",
"G  c #EEC81E",
"H  c #E2C023",
"J  c #E3C125",
"K  c #E4C227",
"L  c #EEC920",
"P  c #E6C42B",
"I  c #E1C12D",
"U  c #F0CB22",
"Y  c #F0CC24",
"T  c #F2CF29",
"R  c #E4CB37",
"E  c #E7CC36",
"W  c #ECD136",
"Q  c #ECD236",
"!  c #ECD336",
"~  c #ECD437",
"^  c #EDD537",
"/  c #EDD737",
"(  c #EDD837",
")  c #EED937",
"_  c #F9DC35",
"`  c #FADD35",
"'  c #FADF36",
"]  c #FAE036",
"[  c #FAE236",
"{  c #FBE336",
"}  c #FBE437",
"|  c #FBE637",
" . c #F0E439",
".. c #F0E53A",
"X. c #F0E73A",
"o. c #F0E83A",
"O. c #F1E93A",
"+. c #F1EA3A",
"@. c #FEF239",
"#. c #FEF339",
"$. c #FEF539",
"%. c #FFF63A",
"&. c #FFF73A",
"*. c #FFF83A",
/* pixels */
"                                                                                                    ",
"                                                                                                    ",
"                                                                                                    ",
"                                                                                                    ",
"                                                                                                    ",
"                                                                                                    ",
"                                                                                                    ",
"                                                                                                    ",
"                                                                                                    ",
"                                                                                                    ",
"                                                                                                    ",
"                                                . . . .                                             ",
"                                              y j j j p :                                           ",
"                                            . h #.#.#...6 .                                         ",
"                                            . i ` ` ` Q 2 .                                         ",
"                                            . d } } } ( 4 .                                         ",
"                                            O A &.&.&.o.6 . .                                       ",
"                                          1 V E ] ` ] ~ 4 . .                                       ",
"                                        . 5 / ] ] ] E V r : .                                       ",
"                                        . 9 o.*.*.*.l % S N .                                       ",
"                                        . 4 ( ] } ] d O S B .                                       ",
"                                        . 2 Q ] ] ` i O S B .                                       ",
"                                        . 9 o.&.&.&.k O D B .                                       ",
"                                        . 6 o.*.&.&.l O D V .                                       ",
"                                        . 5  .#.#.#.h O S N .                                       ",
"                                        . 4 Q ` _ _ a O D V .                                       ",
"                                        . 5 ( } } } f O D V .                                       ",
"                                        . 6 ..&.&.#.k O D V .                                       ",
"                                        . 4 Q ] ] ` i O D B .                                       ",
"                                        . > H G L L e O D B .                                       ",
"                                        . + x n x n = % D N .                                       ",
"                                        X , J U U U M V r & .                                       ",
"                                          1 Z I Y Y Y K , . .                                       ",
"                                            o - n n n c + . .                                       ",
"                                            . e G G G F > .                                         ",
"                                            . u T T T P 1 .                                         ",
"                                            . q m m m v $ .                                         ",
"                                              ; * * * 0 #                                           ",
"                                                . . . .                                             ",
"                                                                                                    ",
"                                                                                                    ",
"                                                                                                    ",
"                                                                                                    ",
"                                                                                                    ",
"                                                                                                    ",
"                                                                                                    ",
"                                                                                                    ",
"                                                                                                    ",
"                                                                                                    ",
"                                                                                                    "
};
