/* XPM */
static char *b6c6a00797f4498f96a203d950da3aa9qNgkKp81EWCT2hMq[] = {
/* columns rows colors chars-per-pixel */
"50 50 171 2 ",
"   c None",
".  c #72683E",
"X  c #786D3A",
"o  c #796D3A",
"O  c #7D7038",
"+  c #7E713B",
"@  c #7E723D",
"#  c #7F753D",
"$  c #8F7C2E",
"%  c #8F7D2F",
"&  c #927F2C",
"*  c #877732",
"=  c #807236",
"-  c #8F7D30",
";  c #80763E",
":  c #847B3D",
">  c #8A7D3C",
",  c #8B7F3D",
"<  c #A88E1F",
"1  c #AD921D",
"2  c #AE931E",
"3  c #BD9D13",
"4  c #9E8725",
"5  c #988328",
"6  c #98832C",
"7  c #98842F",
"8  c #8B813D",
"9  c #8B823D",
"0  c #8D843D",
"q  c #938237",
"w  c #998737",
"e  c #9C8D32",
"r  c #938338",
"t  c #91813B",
"y  c #95863C",
"u  c #95873C",
"i  c #96883C",
"p  c #968C3D",
"a  c #978D3D",
"s  c #9A8839",
"d  c #9A893A",
"f  c #9F933B",
"g  c #A38B22",
"h  c #A48B21",
"j  c #A58C24",
"k  c #A58D26",
"l  c #AF9420",
"z  c #AA9225",
"x  c #AA932E",
"c  c #B69D2F",
"v  c #A79232",
"b  c #A89334",
"n  c #A89438",
"m  c #AB9638",
"M  c #A2993D",
"N  c #A39B3D",
"B  c #AE993A",
"V  c #B69E30",
"C  c #ABA23C",
"Z  c #B7A032",
"A  c #BEA535",
"S  c #BEA735",
"D  c #B1A139",
"F  c #BBA739",
"G  c #BDA538",
"H  c #BDA638",
"J  c #B6AB3B",
"K  c #B1A93C",
"L  c #BBA93A",
"P  c #BCAA3A",
"I  c #BEB33B",
"U  c #B9B03C",
"Y  c #BEB53C",
"T  c #D5AE07",
"R  c #D5AF09",
"E  c #D7B10D",
"W  c #DEB70A",
"Q  c #C3A111",
"!  c #E0B601",
"~  c #E0B703",
"^  c #E2BA07",
"/  c #E2BC06",
"(  c #E3BD0A",
")  c #E4BF0E",
"_  c #E0BA12",
"`  c #E2BC13",
"'  c #E4BF1A",
"]  c #CAAB21",
"[  c #C7AA28",
"{  c #D8B825",
"}  c #D8B92A",
"|  c #C1A934",
" . c #C2AC36",
".. c #C9AF34",
"X. c #CAB135",
"o. c #C6B038",
"O. c #C6B239",
"+. c #C7B63A",
"@. c #C9BE3B",
"#. c #C9BF3B",
"$. c #D0B432",
"%. c #D3BA37",
"&. c #E0BD21",
"*. c #EEC81E",
"=. c #EBD21B",
"-. c #C9C13C",
";. c #D7C739",
":. c #D5C839",
">. c #DAD33B",
",. c #E3C125",
"<. c #E4C227",
"1. c #EAC723",
"2. c #EEC920",
"3. c #E8C826",
"4. c #E4C329",
"5. c #E6C42B",
"6. c #E2CD29",
"7. c #E4CF29",
"8. c #E9CA2A",
"9. c #F0CB22",
"0. c #F0CC24",
"q. c #F2CF29",
"w. c #EFD629",
"e. c #E5C630",
"r. c #E6C631",
"t. c #E1C737",
"y. c #E0C837",
"u. c #E1C937",
"i. c #EACD32",
"p. c #E2CF38",
"a. c #ECD236",
"s. c #EDD437",
"d. c #EDD537",
"f. c #ECD737",
"g. c #E5D93A",
"h. c #E5DB3A",
"j. c #E6DE3B",
"k. c #F5DD36",
"l. c #F9DC35",
"z. c #FADD35",
"x. c #FADF36",
"c. c #F3E027",
"v. c #F4E12A",
"b. c #F7E72B",
"n. c #F7E72C",
"m. c #F7E82D",
"M. c #F8EA2E",
"N. c #EDE239",
"B. c #F6E433",
"V. c #F4E337",
"C. c #F6E636",
"Z. c #F6E637",
"A. c #FAE036",
"S. c #FAE236",
"D. c #FBE336",
"F. c #FBE437",
"G. c #FBE637",
"H. c #F8EA34",
"J. c #F9EB35",
"K. c #F0E53A",
"L. c #F1E83A",
"P. c #F1E93A",
"I. c #F9EC38",
"U. c #FCF139",
"Y. c #FEF239",
"T. c #FEF339",
"R. c #FEF539",
"E. c #FCF53A",
"W. c #FFF63A",
"Q. c #FFF73A",
"!. c #FFF83A",
/* pixels */
"                                                                                                    ",
"                                                                                                    ",
"                                                                                                    ",
"                                                                                                    ",
"                                                                                                    ",
"                                                                                                    ",
"                                                                                                    ",
"                                                                                                    ",
"                                                                                                    ",
"                                                                                                    ",
"                                                                                                    ",
"                                                . . . . . .                                         ",
"                                              N U U U K : .                                         ",
"                                            . I T.T.T.K.p . .                                       ",
"                                            . F z.z.z.a.y . .                                       ",
"                                          0 C ;.F.F.y.G m t .                                       ",
"                                        . a P.R.Q.Q.Y @ X.S o                                       ",
"                                        . i f.z.A.x.P # :.6.3 6                                     ",
"                                        . i f.A.A.A.P ; >.v._ q .                                   ",
"                                        . a P.R.!.!.Y ; >.Z.5.w .                                   ",
"                                      . B %.k.F.f.J D  .N.U.K.M .                                   ",
"                                      . O.z.A.z.y.> v 3.H.!.T.M .                                   ",
"                                      . -.R.R.R.h.9 j ( b.!.U.N .                                   ",
"                                      . -.!.!.!.h.9 g / b.m.=.e .                                   ",
"                                      . @.T.T.T.h.9 k ) n.c.W 6 .                                   ",
"                                      . o.l.l.l.t.> b 8.J.Z.<.w .                                   ",
"                                      . +.F.F.J.p.> m i.I.Z.r.d .                                   ",
"                                      . @.T.R.R.h.9 n i.I.Z.r.d .                                   ",
"                                      . O.A.z.A.y.> n i.I.Z.r.d .                                   ",
"                                      . B $.1.2.&.z x | 6.w.r.d .                                   ",
"                                        . $ T ! ! ! 1 O Q ` r.d .                                   ",
"                                        . q ,.9.9.9.c + [ ' _ 7 .                                   ",
"                                        . q <.9.0.2.V @ ..{ 3 &                                     ",
"                                        . - E ! ! ^ 2 @ ..| X                                       ",
"                                          * 4 ] *.*.} G m t .                                       ",
"                                            . Z q.q.q.5.r . .                                       ",
"                                            . l ^ ^ / E - . .                                       ",
"                                              5 1 h h g = .                                         ",
"                                                . . . . . .                                         ",
"                                                                                                    ",
"                                                                                                    ",
"                                                                                                    ",
"                                                                                                    ",
"                                                                                                    ",
"                                                                                                    ",
"                                                                                                    ",
"                                                                                                    ",
"                                                                                                    ",
"                                                                                                    ",
"                                                                                                    "
};
