/* XPM */
static char *f65c7fcffecb483785b5c48a28111876Keysg3dkk6y0HSln[] = {
/* columns rows colors chars-per-pixel */
"50 50 107 2 ",
"   c None",
".  c #72683E",
"X  c #7A6E3D",
"o  c #7E723D",
"O  c #887831",
"+  c #887833",
"@  c #8F7D30",
"#  c #887A39",
"$  c #8A7D3C",
"%  c #8B7D3C",
"&  c #8B7E3D",
"*  c #8B7F3D",
"=  c #A88E1F",
"-  c #AE931E",
";  c #B69818",
":  c #95812E",
">  c #988328",
",  c #8B813D",
"<  c #8B823D",
"1  c #8E843D",
"2  c #8F863D",
"3  c #928136",
"4  c #938338",
"5  c #94843B",
"6  c #95853B",
"7  c #95863C",
"8  c #96883C",
"9  c #968C3D",
"0  c #9B8A3B",
"q  c #9C923C",
"w  c #A68C21",
"e  c #AF9420",
"r  c #B59C2D",
"t  c #A39B3D",
"y  c #B69E30",
"u  c #B09B39",
"i  c #B49E39",
"p  c #BFA42C",
"a  c #B7A032",
"s  c #B7A039",
"d  c #BBA739",
"f  c #B5AC3C",
"g  c #BCA93A",
"h  c #BCAB3A",
"j  c #BEB33B",
"k  c #B9B03C",
"l  c #BEB53C",
"z  c #CCA80C",
"x  c #D6B009",
"c  c #D7B10D",
"v  c #E0B601",
"b  c #E0B703",
"n  c #E2BA07",
"m  c #C0A52D",
"M  c #D8B826",
"N  c #C6B038",
"B  c #C6B239",
"V  c #C6B339",
"C  c #C7B439",
"Z  c #C7B63A",
"A  c #C9BD3B",
"S  c #C9BF3B",
"D  c #D1B534",
"F  c #D3B937",
"G  c #D8BB32",
"H  c #E1BE21",
"J  c #EEC81E",
"K  c #C9C13B",
"L  c #C9C13C",
"P  c #DBC037",
"I  c #E9C626",
"U  c #EEC920",
"Y  c #EDCA26",
"T  c #E6C42B",
"R  c #F0CB22",
"E  c #F0CC24",
"W  c #F2CF29",
"Q  c #E1C737",
"!  c #E1C937",
"~  c #E1CA37",
"^  c #E8C935",
"/  c #EBCB35",
"(  c #E2CD38",
")  c #E3CF38",
"_  c #ECD236",
"`  c #EDD837",
"'  c #E5D93A",
"]  c #E5DB3A",
"[  c #E6DE3B",
"{  c #F2D936",
"}  c #F6DC36",
"|  c #F9DC35",
" . c #FADD35",
".. c #FADF36",
"X. c #FAE036",
"o. c #FAE236",
"O. c #FBE336",
"+. c #FBE437",
"@. c #FBE637",
"#. c #F0E53A",
"$. c #F1E83A",
"%. c #FEF239",
"&. c #FEF339",
"*. c #FEF539",
"=. c #FFF63A",
"-. c #FFF73A",
";. c #FFF83A",
/* pixels */
"                                                                                                    ",
"                                                                                                    ",
"                                                                                                    ",
"                                                                                                    ",
"                                                                                                    ",
"                                                                                                    ",
"                                                                                                    ",
"                                                                                                    ",
"                                                                                                    ",
"                                                                                                    ",
"                                                                                                    ",
"                                                . . . .                                             ",
"                                              t k k k f 2                                           ",
"                                            . j &.&.&.#.9 .                                         ",
"                                            . d  . . ._ 7 .                                         ",
"                                          . . h +.+.+.` 8 .                                         ",
"                                        . . . l =.=.=.$.q X                                         ",
"                                        . . . d X.X.X.} P i .                                       ",
"                                        . o 0 s F { X.X.X.C .                                       ",
"                                        . 5 / u 2 [ =.;.;.L .                                       ",
"                                        . 6 / u * ( X.+.+.C .                                       ",
"                                        . 6 / u * ~ X. .X.B .                                       ",
"                                        . 6 / u , ] =.=.=.S .                                       ",
"                                        . 6 / u , [ ;.;.=.L .                                       ",
"                                        . 6 / u , ] *.%.%.A .                                       ",
"                                        . 6 / u * Q |  .| N .                                       ",
"                                        . 6 / u * ( +.@.+.C .                                       ",
"                                        . 6 / u * ' *.*.=.S .                                       ",
"                                        . 6 / u % ~ X.X.X.B .                                       ",
"                                        . 6 / u # M U U U p .                                       ",
"                                        . 5 ^ i + z v v v ; .                                       ",
"                                        . o 0 i D I R R R m .                                       ",
"                                        . . . y E U E Y G i .                                       ",
"                                        . . . - v n n x : X                                         ",
"                                          . . r J J J H 3 .                                         ",
"                                            . a W W W T 5 .                                         ",
"                                            . e n n n c @ .                                         ",
"                                              > = = = w O                                           ",
"                                                . . . .                                             ",
"                                                                                                    ",
"                                                                                                    ",
"                                                                                                    ",
"                                                                                                    ",
"                                                                                                    ",
"                                                                                                    ",
"                                                                                                    ",
"                                                                                                    ",
"                                                                                                    ",
"                                                                                                    ",
"                                                                                                    "
};
