/* XPM */
static char *result[] = {
/* columns rows colors chars-per-pixel */
"50 50 166 2 ",
"   c #72683E",
".  c #786C3A",
"X  c #7F723D",
"o  c #7F733D",
"O  c #8F7D2D",
"+  c #867633",
"@  c #867634",
"#  c #887831",
"$  c #8F7D30",
"%  c #877839",
"&  c #87793A",
"*  c #87793C",
"=  c #897A39",
"-  c #8B7E3D",
";  c #A88E1F",
":  c #B69818",
">  c #B6991A",
",  c #B79A1D",
"<  c #968229",
"1  c #8B823D",
"2  c #8F863D",
"3  c #938338",
"4  c #968438",
"5  c #968538",
"6  c #95863C",
"7  c #98873B",
"8  c #968C3D",
"9  c #9F8C39",
"0  c #988F3D",
"q  c #A68C21",
"w  c #A78E20",
"e  c #A48C22",
"r  c #A18B29",
"t  c #AF9420",
"y  c #B49922",
"u  c #B89C22",
"i  c #A08F3B",
"p  c #A79130",
"a  c #A0903B",
"s  c #A1933C",
"d  c #A1973C",
"f  c #A89438",
"g  c #A99538",
"h  c #A1983D",
"j  c #A2983C",
"k  c #A2993D",
"l  c #B59E33",
"z  c #B39D38",
"x  c #B09D3A",
"c  c #B19F3A",
"v  c #BFAB28",
"b  c #ABA03B",
"n  c #B7A032",
"m  c #BAA130",
"M  c #BBA335",
"N  c #B8A337",
"B  c #BBA436",
"V  c #B1A23B",
"C  c #B0A43B",
"Z  c #B2A73C",
"A  c #BBA739",
"S  c #B3A93C",
"D  c #B3AA3C",
"F  c #B5AC3C",
"G  c #BEB33B",
"H  c #B9B03C",
"J  c #CBA70B",
"K  c #CCA80C",
"L  c #CDA90E",
"P  c #CCA90F",
"I  c #D7B10D",
"U  c #CDAA12",
"Y  c #C9A91B",
"T  c #CDB21C",
"R  c #E0B601",
"E  c #E0B703",
"W  c #E0B706",
"Q  c #E2BA07",
"!  c #E3BD15",
"~  c #C2A524",
"^  c #C0A52D",
"/  c #C0A62E",
"(  c #D9B927",
")  c #D1B329",
"_  c #D1B42C",
"`  c #D5BF2E",
"'  c #DABA29",
"]  c #DFBE29",
"[  c #C8AE34",
"{  c #C4AB38",
"}  c #C6B239",
"|  c #C6B339",
" . c #C1B53B",
".. c #C4B639",
"X. c #CAB338",
"o. c #CEBE3A",
"O. c #D3B733",
"+. c #DDBF32",
"@. c #E9C916",
"#. c #E5C11F",
"$. c #E6C21F",
"%. c #EACB1B",
"&. c #EEC81E",
"*. c #EED41B",
"=. c #EED51D",
"-. c #EFD61F",
";. c #C9C03B",
":. c #C9C13B",
">. c #C9C13C",
",. c #DEC232",
"<. c #DACA38",
"1. c #E5C223",
"2. c #E6C324",
"3. c #EEC920",
"4. c #E6C42B",
"5. c #E4C42E",
"6. c #EBCE2E",
"7. c #F0CB22",
"8. c #F0CC24",
"9. c #F2CF29",
"0. c #EDD22D",
"q. c #F2DD23",
"w. c #F2DC25",
"e. c #F1DB2E",
"r. c #E2CB37",
"t. c #E2CC37",
"y. c #E6CE37",
"u. c #EED433",
"i. c #EED533",
"p. c #ECD236",
"a. c #E5DC3A",
"s. c #E6DE3B",
"d. c #F2DC30",
"f. c #F0D937",
"g. c #F6DA35",
"h. c #F3DE35",
"j. c #F3DE37",
"k. c #F7DC36",
"l. c #F9DC35",
"z. c #FADD35",
"x. c #FADF36",
"c. c #F2E234",
"v. c #FAE036",
"b. c #F8E337",
"n. c #FAE236",
"m. c #FBE336",
"M. c #FBE437",
"N. c #FBE637",
"B. c #F9EB37",
"V. c #F0E53A",
"C. c #FBEF39",
"Z. c #FCF235",
"A. c #FCF236",
"S. c #FDF437",
"D. c #FBF239",
"F. c #FDF338",
"G. c #FDF339",
"H. c #FEF239",
"J. c #FEF339",
"K. c #FEF539",
"L. c #FCF53A",
"P. c #FEF63A",
"I. c #FFF63A",
"U. c #FFF73A",
"Y. c #FFF83A",
"T. c None",
/* pixels */
"T.T.T.T.T.T.T.T.T.T.T.T.T.T.T.T.T.T.T.T.T.T.T.T.T.T.T.T.T.T.T.T.T.T.T.T.T.T.T.T.T.T.T.T.T.T.T.T.T.T.",
"T.T.T.T.T.T.T.T.T.T.T.T.T.T.T.T.T.T.T.T.T.T.T.T.T.T.T.T.T.T.T.T.T.T.T.T.T.T.T.T.T.T.T.T.T.T.T.T.T.T.",
"T.T.T.T.T.T.T.T.T.T.T.T.T.T.T.T.T.T.T.T.T.T.T.T.T.T.T.T.T.T.T.T.T.T.T.T.T.T.T.T.T.T.T.T.T.T.T.T.T.T.",
"T.T.T.T.T.T.T.T.T.T.T.T.T.T.T.T.T.T.T.T.T.T.T.T.T.T.T.T.T.T.T.T.T.T.T.T.T.T.T.T.T.T.T.T.T.T.T.T.T.T.",
"T.T.T.T.T.T.T.T.T.T.T.T.T.T.T.T.T.T.T.T.T.T.T.T.T.T.T.T.T.T.T.T.T.T.T.T.T.T.T.T.T.T.T.T.T.T.T.T.T.T.",
"T.T.T.T.T.T.T.T.T.T.T.T.T.T.T.T.T.T.T.T.T.T.T.T.T.T.T.T.T.T.T.T.T.T.T.T.T.T.T.T.T.T.T.T.T.T.T.T.T.T.",
"T.T.T.T.T.T.T.T.T.T.T.T.T.T.T.T.T.T.T.T.T.T.T.T.T.T.T.T.T.T.T.T.T.T.T.T.T.T.T.T.T.T.T.T.T.T.T.T.T.T.",
"T.T.T.T.T.T.T.T.T.T.T.T.T.T.T.T.T.T.T.T.T.T.T.T.T.T.T.T.T.T.T.T.T.T.T.T.T.T.T.T.T.T.T.T.T.T.T.T.T.T.",
"T.T.T.T.T.T.T.T.T.T.T.T.T.T.T.T.T.T.T.T.T.T.T.T.T.T.T.T.T.T.T.T.T.T.T.T.T.T.T.T.T.T.T.T.T.T.T.T.T.T.",
"T.T.T.T.T.T.T.T.T.T.T.T.T.T.T.T.T.T.T.T.T.T.T.T.T.T.T.T.T.T.T.T.T.T.T.T.T.T.T.T.T.T.T.T.T.T.T.T.T.T.",
"T.T.T.T.T.T.T.T.T.T.T.T.T.T.T.T.T.T.T.T.T.T.T.T.T.T.T.T.T.T.T.T.T.T.T.T.T.T.T.T.T.T.T.T.T.T.T.T.T.T.",
"T.T.T.T.T.T.T.T.T.T.T.T.T.T.T.T.T.T.T.T.T.T.            T.T.T.T.T.T.T.T.T.T.T.T.T.T.T.T.T.T.T.T.T.T.",
"T.T.T.T.T.T.T.T.T.T.T.T.T.T.T.T.T.T.T.T.T.    0 H H H F 2 T.T.T.T.T.T.T.T.T.T.T.T.T.T.T.T.T.T.T.T.T.",
"T.T.T.T.T.T.T.T.T.T.T.T.T.T.T.T.T.T.T.T.      G J.J.J.V.8   T.T.T.T.T.T.T.T.T.T.T.T.T.T.T.T.T.T.T.T.",
"T.T.T.T.T.T.T.T.T.T.T.T.T.T.T.T.T.T.T.T.      A z.z.z.p.6   T.T.T.T.T.T.T.T.T.T.T.T.T.T.T.T.T.T.T.T.",
"T.T.T.T.T.T.T.T.T.T.T.T.T.T.T.T.T.T.T.T.  o 9 z X.f.M.j. .h T.T.T.T.T.T.T.T.T.T.T.T.T.T.T.T.T.T.T.T.",
"T.T.T.T.T.T.T.T.T.T.T.T.T.T.T.T.T.T.T.T.. 5 ,.g 1 a.I.I.I.;.  T.T.T.T.T.T.T.T.T.T.T.T.T.T.T.T.T.T.T.",
"T.T.T.T.T.T.T.T.T.T.T.T.T.T.T.T.T.T.T.  w T c.C - r.v.v.v.}   T.T.T.T.T.T.T.T.T.T.T.T.T.T.T.T.T.T.T.",
"T.T.T.T.T.T.T.T.T.T.T.T.T.T.T.T.T.T.T.  u %.A.D - t.n.n.n.|   T.T.T.T.T.T.T.T.T.T.T.T.T.T.T.T.T.T.T.",
"T.T.T.T.T.T.T.T.T.T.T.T.T.T.T.T.T.T.T.  M u.G.D 1 s.U.U.U.:.  T.T.T.T.T.T.T.T.T.T.T.T.T.T.T.T.T.T.T.",
"T.T.T.T.T.T.T.T.T.T.T.T.T.T.T.T.T.T.T.  ..B.P.<.N b o.m.m.y.{ 7 T.T.T.T.T.T.T.T.T.T.T.T.T.T.T.T.T.T.",
"T.T.T.T.T.T.T.T.T.T.T.T.T.T.T.T.T.T.T.  >.Y.Y.e.) % c x.x.x.k.a   T.T.T.T.T.T.T.T.T.T.T.T.T.T.T.T.T.",
"T.T.T.T.T.T.T.T.T.T.T.T.T.T.T.T.T.T.T.  >.Y.Y.=.P @ S K.K.K.D.j   T.T.T.T.T.T.T.T.T.T.T.T.T.T.T.T.T.",
"T.T.T.T.T.T.T.T.T.T.T.T.T.T.T.T.T.T.T.  v q.S.*.J + D Y.Y.Y.L.k   T.T.T.T.T.T.T.T.T.T.T.T.T.T.T.T.T.",
"T.T.T.T.T.T.T.T.T.T.T.T.T.T.T.T.T.T.T.  , @.Z.-.U @ Z H.H.H.C.d   T.T.T.T.T.T.T.T.T.T.T.T.T.T.T.T.T.",
"T.T.T.T.T.T.T.T.T.T.T.T.T.T.T.T.T.T.T.  m 0.F.d._ & x l.l.l.g.i   T.T.T.T.T.T.T.T.T.T.T.T.T.T.T.T.T.",
"T.T.T.T.T.T.T.T.T.T.T.T.T.T.T.T.T.T.T.  B i.G.h.O.* V N.N.N.b.s   T.T.T.T.T.T.T.T.T.T.T.T.T.T.T.T.T.",
"T.T.T.T.T.T.T.T.T.T.T.T.T.T.T.T.T.T.T.  B i.G.h.O.* S K.K.K.D.j   T.T.T.T.T.T.T.T.T.T.T.T.T.T.T.T.T.",
"T.T.T.T.T.T.T.T.T.T.T.T.T.T.T.T.T.T.T.  B i.G.h.O.* c x.x.x.k.a   T.T.T.T.T.T.T.T.T.T.T.T.T.T.T.T.T.",
"T.T.T.T.T.T.T.T.T.T.T.T.T.T.T.T.T.T.T.  B 6.w.` l r ~ 3.3.] { 7 T.T.T.T.T.T.T.T.T.T.T.T.T.T.T.T.T.T.",
"T.T.T.T.T.T.T.T.T.T.T.T.T.T.T.T.T.T.T.  M 2.W e + K R R R :   T.T.T.T.T.T.T.T.T.T.T.T.T.T.T.T.T.T.T.",
"T.T.T.T.T.T.T.T.T.T.T.T.T.T.T.T.T.T.T.  u ! #.p = ( 7.7.7.^   T.T.T.T.T.T.T.T.T.T.T.T.T.T.T.T.T.T.T.",
"T.T.T.T.T.T.T.T.T.T.T.T.T.T.T.T.T.T.T.  w Y 5.f = ' 8.8.8./   T.T.T.T.T.T.T.T.T.T.T.T.T.T.T.T.T.T.T.",
"T.T.T.T.T.T.T.T.T.T.T.T.T.T.T.T.T.T.T.T.. 4 +.f + L E E E >   T.T.T.T.T.T.T.T.T.T.T.T.T.T.T.T.T.T.T.",
"T.T.T.T.T.T.T.T.T.T.T.T.T.T.T.T.T.T.T.T.  X 9 z [ 1.&.$.y < T.T.T.T.T.T.T.T.T.T.T.T.T.T.T.T.T.T.T.T.",
"T.T.T.T.T.T.T.T.T.T.T.T.T.T.T.T.T.T.T.T.      n 9.9.9.4.3   T.T.T.T.T.T.T.T.T.T.T.T.T.T.T.T.T.T.T.T.",
"T.T.T.T.T.T.T.T.T.T.T.T.T.T.T.T.T.T.T.T.      t Q Q Q I $   T.T.T.T.T.T.T.T.T.T.T.T.T.T.T.T.T.T.T.T.",
"T.T.T.T.T.T.T.T.T.T.T.T.T.T.T.T.T.T.T.T.T.    O ; ; ; q # T.T.T.T.T.T.T.T.T.T.T.T.T.T.T.T.T.T.T.T.T.",
"T.T.T.T.T.T.T.T.T.T.T.T.T.T.T.T.T.T.T.T.T.T.            T.T.T.T.T.T.T.T.T.T.T.T.T.T.T.T.T.T.T.T.T.T.",
"T.T.T.T.T.T.T.T.T.T.T.T.T.T.T.T.T.T.T.T.T.T.T.T.T.T.T.T.T.T.T.T.T.T.T.T.T.T.T.T.T.T.T.T.T.T.T.T.T.T.",
"T.T.T.T.T.T.T.T.T.T.T.T.T.T.T.T.T.T.T.T.T.T.T.T.T.T.T.T.T.T.T.T.T.T.T.T.T.T.T.T.T.T.T.T.T.T.T.T.T.T.",
"T.T.T.T.T.T.T.T.T.T.T.T.T.T.T.T.T.T.T.T.T.T.T.T.T.T.T.T.T.T.T.T.T.T.T.T.T.T.T.T.T.T.T.T.T.T.T.T.T.T.",
"T.T.T.T.T.T.T.T.T.T.T.T.T.T.T.T.T.T.T.T.T.T.T.T.T.T.T.T.T.T.T.T.T.T.T.T.T.T.T.T.T.T.T.T.T.T.T.T.T.T.",
"T.T.T.T.T.T.T.T.T.T.T.T.T.T.T.T.T.T.T.T.T.T.T.T.T.T.T.T.T.T.T.T.T.T.T.T.T.T.T.T.T.T.T.T.T.T.T.T.T.T.",
"T.T.T.T.T.T.T.T.T.T.T.T.T.T.T.T.T.T.T.T.T.T.T.T.T.T.T.T.T.T.T.T.T.T.T.T.T.T.T.T.T.T.T.T.T.T.T.T.T.T.",
"T.T.T.T.T.T.T.T.T.T.T.T.T.T.T.T.T.T.T.T.T.T.T.T.T.T.T.T.T.T.T.T.T.T.T.T.T.T.T.T.T.T.T.T.T.T.T.T.T.T.",
"T.T.T.T.T.T.T.T.T.T.T.T.T.T.T.T.T.T.T.T.T.T.T.T.T.T.T.T.T.T.T.T.T.T.T.T.T.T.T.T.T.T.T.T.T.T.T.T.T.T.",
"T.T.T.T.T.T.T.T.T.T.T.T.T.T.T.T.T.T.T.T.T.T.T.T.T.T.T.T.T.T.T.T.T.T.T.T.T.T.T.T.T.T.T.T.T.T.T.T.T.T.",
"T.T.T.T.T.T.T.T.T.T.T.T.T.T.T.T.T.T.T.T.T.T.T.T.T.T.T.T.T.T.T.T.T.T.T.T.T.T.T.T.T.T.T.T.T.T.T.T.T.T.",
"T.T.T.T.T.T.T.T.T.T.T.T.T.T.T.T.T.T.T.T.T.T.T.T.T.T.T.T.T.T.T.T.T.T.T.T.T.T.T.T.T.T.T.T.T.T.T.T.T.T."
};
