/* XPM */
static char *b63a248ca86b4244d43dca8449ed5bfaVnwRsCq3GppUfKwf[] = {
/* columns rows colors chars-per-pixel */
"40 40 8 1 ",
"  c None",
". c #222034",
"X c #45283C",
"o c #AC3232",
"O c #DF7126",
"+ c #ECB12D",
"@ c #FBF236",
"# c white",
/* pixels */
"                                        ",
"                                        ",
"                                        ",
"                                        ",
"                                        ",
"                                        ",
"                                        ",
"                                        ",
"                                        ",
"                 ..  ..                 ",
"           ..   .@@..##.   ..           ",
"          .@+. .+XX+@oo@. .@#.          ",
"           ..@.@XX+O+@oo#.#..           ",
"            .+X+XX+oO@oo@o@.            ",
"           .+XX+XXX+@ooo@oo@.           ",
"           .+.XX+XXXooo@ooX@.           ",
"          .+X..+XX+++@oo@XXo@.          ",
"          .OX.+XX+OOO+@oo@Xo+.          ",
"          .OX.O.XOo+@O+oX+Xo+.          ",
"           .OO...OoO+O+XXX++.           ",
"            ...+.OoooO+X@XX.            ",
"            .O+..XOOO+oXX@+.            ",
"           .+...XXXXooooXXX@.           ",
"           .O...+XXO+oo@XXX+.           ",
"            .O...OOoO++XXX+.            ",
"            .oo...OoO+XXXOO.            ",
"             ..O..OoO+XX+..             ",
"               .OOo..O++.               ",
"                ...+@...                ",
"                  .O+.                  ",
"                   ..                   ",
"                                        ",
"                                        ",
"                                        ",
"                                        ",
"                                        ",
"                                        ",
"                                        ",
"                                        ",
"                                        "
};
