/* XPM */
static char *_f4d95a815004fb2c628451321dfbbafsx5NzptNvQrd05lJ[] = {
/* columns rows colors chars-per-pixel */
"50 50 236 2 ",
"   c None",
".  c #050505",
"X  c #0B0403",
"o  c #0B0906",
"O  c #0B0C0A",
"+  c #070807",
"@  c #140101",
"#  c #1D0100",
"$  c #140905",
"%  c #1B0A04",
"&  c #140C08",
"*  c #190F0A",
"=  c #0E110D",
"-  c #11130E",
";  c #1C140D",
":  c #131512",
">  c #161912",
",  c #1A1B14",
"<  c #1B1E19",
"1  c #181610",
"2  c #240402",
"3  c #2B0502",
"4  c #210A02",
"5  c #2C0B05",
"6  c #230E0B",
"7  c #2A0B09",
"8  c #330402",
"9  c #3A0504",
"0  c #3C0D01",
"q  c #370E08",
"w  c #22140C",
"e  c #2A130B",
"r  c #291409",
"t  c #3D1B02",
"y  c #3E1309",
"u  c #361607",
"i  c #261A14",
"p  c #301D17",
"a  c #1D221A",
"s  c #1F2117",
"d  c #39220E",
"f  c #242116",
"g  c #23241B",
"h  c #232A1E",
"j  c #2A281C",
"k  c #332A1B",
"l  c #372A19",
"z  c #34301F",
"x  c #262D22",
"c  c #2B2E24",
"v  c #252521",
"b  c #382C23",
"n  c #293125",
"m  c #2E3529",
"M  c #38382A",
"N  c #363C31",
"B  c #4D0100",
"V  c #430B01",
"C  c #450701",
"Z  c #540B00",
"A  c #550703",
"S  c #421D06",
"D  c #491603",
"F  c #541405",
"G  c #581903",
"H  c #4C1D13",
"J  c #650A00",
"K  c #790A02",
"L  c #790B0A",
"P  c #740807",
"I  c #641C02",
"U  c #6B1B02",
"Y  c #671402",
"T  c #731D01",
"R  c #791700",
"E  c #49250B",
"W  c #562505",
"Q  c #462917",
"!  c #542B12",
"~  c #592519",
"^  c #49331A",
"/  c #5A3818",
"(  c #563100",
")  c #672404",
"_  c #7B2301",
"`  c #762501",
"'  c #683200",
"]  c #793A07",
"[  c #732918",
"{  c #683A17",
"}  c #793510",
"|  c #652417",
" . c #482B24",
".. c #433A2C",
"X. c #483826",
"o. c #56362A",
"O. c #573930",
"+. c #713126",
"@. c #3C4435",
"#. c #3C4738",
"$. c #5B401B",
"%. c #6C4417",
"&. c #795313",
"*. c #4C442B",
"=. c #5B4829",
"-. c #434B3D",
";. c #494337",
":. c #574636",
">. c #684926",
",. c #794A25",
"<. c #665725",
"1. c #664933",
"2. c #655936",
"3. c #7B5035",
"4. c #7D6E38",
"5. c #464B42",
"6. c #4A5443",
"7. c #4C5747",
"8. c #5A5546",
"9. c #745749",
"0. c #754F40",
"q. c #5C6756",
"w. c #646B58",
"e. c #756754",
"r. c #6F6C4E",
"t. c #747B65",
"y. c #716F67",
"u. c #871A00",
"i. c #8A2A02",
"p. c #8A2704",
"a. c #972801",
"s. c #853700",
"d. c #993803",
"f. c #A62B00",
"g. c #A63601",
"h. c #BD3B00",
"j. c #B83900",
"k. c #C33900",
"l. c #814200",
"z. c #934802",
"x. c #9A5402",
"c. c #9C4811",
"v. c #8E5000",
"b. c #A74300",
"n. c #B24B00",
"m. c #BA4B04",
"M. c #A55905",
"N. c #B85A00",
"B. c #A45219",
"V. c #A74C18",
"C. c #9C6503",
"Z. c #9D720D",
"A. c #A66701",
"S. c #B76700",
"D. c #A77803",
"F. c #AC6B1B",
"G. c #935928",
"H. c #835D38",
"J. c #905C2E",
"K. c #A35928",
"L. c #966326",
"P. c #85693C",
"I. c #8B6236",
"U. c #926F31",
"Y. c #B7772E",
"T. c #CC4800",
"R. c #D64500",
"E. c #C55804",
"W. c #D15C00",
"Q. c #DE5610",
"!. c #EB5201",
"~. c #CA6801",
"^. c #D46A03",
"/. c #C67702",
"(. c #D87C01",
"). c #D67E1F",
"_. c #EA6400",
"`. c #EA7703",
"'. c #F26C00",
"]. c #CD7528",
"[. c #885848",
"{. c #8C7646",
"}. c #8C6D51",
"|. c #A67A43",
" X c #B57B5B",
".X c #817667",
"XX c #987D73",
"oX c #977C6F",
"OX c #7C8C75",
"+X c #B68000",
"@X c #BE8214",
"#X c #A29236",
"$X c #B98120",
"%X c #BFB334",
"&X c #959336",
"*X c #C88A00",
"=X c #DB8A01",
"-X c #D99501",
";X c #D1910F",
":X c #E38300",
">X c #E58C00",
",X c #EA9A04",
"<X c #F99902",
"1X c #F68400",
"2X c #D8AA00",
"3X c #DCB300",
"4X c #D7AA16",
"5X c #CDAA00",
"6X c #EAAC07",
"7X c #F1A400",
"8X c #E7B603",
"9X c #FCBC00",
"0X c #F8B504",
"qX c #F5BA13",
"wX c #CB8431",
"eX c #C1842F",
"rX c #ECB427",
"tX c #E9CA05",
"yX c #FAC600",
"uX c #FDD300",
"iX c #F6D904",
"pX c #FFE200",
"aX c #FEEE00",
"sX c #FEF100",
"dX c #978A5A",
"fX c #B58B54",
"gX c #A4AB5D",
"hX c #919174",
"jX c #A78374",
"kX c #9BA079",
"lX c #D09451",
"zX c #D4A558",
"xX c #D3B257",
"cX c #D1AD73",
"vX c #929881",
"bX c #B4B8A9",
/* pixels */
"                                                                                                    ",
"                                                                                                    ",
"                                                                                                    ",
"                                                                                                    ",
"                                                                                                    ",
"                                                                                                    ",
"                                                                                                    ",
"                                                                                                    ",
"                                                            B B 9 :                                 ",
"                                                          s.S._ +.y.5.                              ",
"                                                        A s.-Xc.[.bX8.*                             ",
"                                                  B B B J K u.[.vXbX9.C                             ",
"                          # #                 B ) C.D.A.S.F.0.e.t.}.K.C.I                           ",
"                        0 0 S D             ) I &.tXpXiXtX%XOXt.0.P /.2XI                           ",
"                      # ] ~.*XA.B 7 : : q ] 5X3X6XuXuX0X#Xr.7.kX XL /.-XI                           ",
"                      # s.'.yXD.A 5.O.q ` M.tXiXpXuX9X7X4.6.#.jX XL N.-XA.l.                        ",
"                      # T W.iX*XL jXXXu.n.>X0XuXaXyX<X:X<.-.-.{.K.L n.>XuXA.B                       ",
"                      # J m.6X/.L vXXXA d.^.>X0X9X:XY.P...*.}.Y.K.L n.,X0XA.B                       ",
"                      b ~ a.=XE.L XXy.9 s.E.^.>X=XM.<.-.*.>.I.J.G.+.c.~.,Xx.B                       ",
"                  . a q.O.D S.n.P y.e.9 _ b.E.E.M.X.c c P.H.t E 1.hX+.a./.d.B                       ",
"                @ G d.Y.@XD.b.} o.8.;.3 ` d.i.} $.j f d / 2.r.X.;.hXr.+.d.G 7                       ",
"                @ U j._.7X0XB.+.N N b 8 T i.) Q x s k ^ ^ 2.gX=.O.dXr.O.+.H *                       ",
"                @ 8 Y j.:XqXzX9.6 m  .B Y U M v s > ;.t.w.&XiXx.p.).d.[ .X5.4 C C u                 ",
"              D s.x.x.` s.A.fX|.1.Q b O.H y j , a -.q.OXdX4XuX*XN.b.b.c.8. .t z.L.P./               ",
"            # G !.1X-X' W { J.|.|.Q l e./ S i , x w.OX&X;X9XyX0X/.u.g.M.l l { -XrXxX&.(             ",
"            @ D k._.1X=XeX X>.%.J.S W Q.^.N.A X.7.7.U.8X,X9XaX,XE.d.a.Y u 9.cXwX,XqXtXD.B           ",
"            @ 5 R d.m.^.wXfX/ O.{.~ R R.'.^.Z o.7.@.<.Z.(.>X8X~.d.` | ~ 5 9.cX;X:X7X9X*XA           ",
"            . $ 3 C Y p.G.U.~ 2.vX+.K a.W.^.Y  .N n h n z.m.m.d._ 5 M @.w 4.xX].^.(.7X/.B           ",
"            . - c r 0 ' { { W 1.OX .A R g.V.e.;.v < < g F R u.Y E *.m g o >.lXcXlXQ.(.N.B           ",
"            . = x s ; d S E Q ..#.M Q Z [ 3.w.;.v e b N  .~ | y j -.m > $ $.Y.cXzX].$XJ.y e         ",
"            . + = a g $ # 5 M c < 7.8.2 N 5.N N ..A O.w.q.q.7.v a #.n > o ! L.|.gXcXkXy.h , :       ",
"          . = - O : 1 4 ' M.E i 1 -.N @ a x v v H g.E.$X*.m n v s a , - = r E J.I.r.-.#.x : O       ",
"          . k d + & r W x.M.! i : c c O - : > 7 G k.'.`.%.l d X.l & = = $ 0 I { / v f f g = +       ",
"          + ,.,.% # D (.z.u ;.m + : : : O + . 0 R a.R.!.B.,.%.L.,.4 $ o 2 p.R.G 3 3 5 4 1 O +       ",
"          X { { 4 G g._.d.7 M x + $ $ O a a O i ! _ a.d.} / / { / ; $ 4 D a.k.j.b.D.D.&.* $         ",
"          X Q E 5 ` j.!.i.4 j s $ V 0 X x m : < k H G E E t t E d 1 ; 5 Z R f.R.`.7X3XD.2           ",
"            % r S D Y k._ 2 , w 3 f.a.2 f x a , O $ % 4 % % % i s O - ; 3 Z u.h.T.T.' t             ",
"              $ r e y T F ; 1 1 e T U w 1 a a : O : - & f f 1 > - = = - % 5 V U ` T V               ",
"                X O w 9 e a - : a w 6 , = O , ; : < 1 1 ..;. .1 O = O + O $ @ # # #                 ",
"                  & 6 Y D = > : = ; 1 = = & 3 w < 7 w i s.m.E.W X . . . + X                         ",
"                    e F 7 + O O . O = O O 6 A y q G D w I i.d.D X X . . .                           ",
"                      O + . . + . . . . + r R Z C f.Y @ # # #                                       ",
"                                        $ # 8 3 2 0 0                                               ",
"                                          @ @ @ @ @                                                 ",
"                                                                                                    ",
"                                                                                                    ",
"                                                                                                    ",
"                                                                                                    ",
"                                                                                                    ",
"                                                                                                    "
};
