/* XPM */
static char *fc59a4406db64a1e83e1dd3cafa72e32zxNzw2j032jGRkeC[] = {
/* columns rows colors chars-per-pixel */
"50 50 209 2 ",
"   c None",
".  c #72683E",
"X  c #756A3E",
"o  c #756B3E",
"O  c #786D3A",
"+  c #796D3A",
"@  c #796D3B",
"#  c #7C6F38",
"$  c #7A6E3C",
"%  c #7A6E3D",
"&  c #7A6F3E",
"*  c #7A713E",
"=  c #7F753E",
"-  c #8E7C2E",
";  c #8B7A30",
":  c #85773D",
">  c #867C3D",
",  c #A88E1F",
"<  c #AB901E",
"1  c #BE9E13",
"2  c #BF9E13",
"3  c #BF9F15",
"4  c #BFA01B",
"5  c #BFA01C",
"6  c #9C8526",
"7  c #9C8527",
"8  c #9D8726",
"9  c #9F8825",
"0  c #93802D",
"q  c #998328",
"w  c #9C8628",
"e  c #948230",
"r  c #92893D",
"t  c #978E3D",
"y  c #9B8A3B",
"u  c #9C8A3B",
"i  c #9F8D3B",
"p  c #9B903C",
"a  c #9B923D",
"s  c #9E953D",
"d  c #A58C21",
"f  c #A38B26",
"g  c #BA9E22",
"h  c #A28E34",
"j  c #A6963B",
"k  c #AA963A",
"l  c #A1983D",
"z  c #A49B3D",
"x  c #A79E3C",
"c  c #AB993A",
"v  c #AB9A3A",
"b  c #AC9D3B",
"n  c #A89F3C",
"m  c #B59D31",
"M  c #BEA329",
"N  c #A9A03C",
"B  c #ADA23C",
"V  c #ACA33C",
"C  c #ADA33C",
"Z  c #ADA43C",
"A  c #ADA53C",
"S  c #AFA53C",
"D  c #B7A033",
"F  c #BBA739",
"G  c #B4AC3C",
"H  c #B9B03C",
"J  c #BCB33C",
"K  c #BDB43C",
"L  c #D4AD06",
"P  c #D2AC08",
"I  c #DEB608",
"U  c #C2A011",
"Y  c #CFAC13",
"T  c #C4A61F",
"R  c #D1AD10",
"E  c #E0B601",
"W  c #E0B702",
"Q  c #E0B703",
"!  c #E1B903",
"~  c #E2B805",
"^  c #E2BA07",
"/  c #CAAD2B",
"(  c #CBAE2C",
")  c #D2B222",
"_  c #D1B42E",
"`  c #D7B82B",
"'  c #C8AE36",
"]  c #C5AC38",
"[  c #C8AF38",
"{  c #CFB436",
"}  c #C7B63A",
"|  c #C8B038",
" . c #CBB538",
".. c #CCB638",
"X. c #C8BA3A",
"o. c #CDBB39",
"O. c #C8BC3B",
"+. c #D0B432",
"@. c #D9BC36",
"#. c #D9BD36",
"$. c #D1BC38",
"%. c #D2BD38",
"&. c #D6BF38",
"*. c #E7C012",
"=. c #E8C710",
"-. c #E9C215",
";. c #EAC416",
":. c #EAC417",
">. c #E9C913",
",. c #E9CB13",
"<. c #EBCE16",
"1. c #EBC519",
"2. c #ECC71E",
"3. c #EDC81D",
"4. c #EEC81E",
"5. c #EECB1E",
"6. c #EECE1E",
"7. c #F0D91F",
"8. c #CCC33B",
"9. c #CEC33B",
"0. c #CFC53B",
"q. c #CFC73B",
"w. c #C9C13C",
"e. c #DEC737",
"r. c #D0C43A",
"t. c #D0C63B",
"y. c #D4CB3B",
"u. c #D6CA3A",
"i. c #D5CC3B",
"p. c #D5CD3B",
"a. c #DECC38",
"s. c #D9D23B",
"d. c #DED73B",
"f. c #E2C127",
"g. c #EAC723",
"h. c #EBC724",
"j. c #E9C82E",
"k. c #F0CB22",
"l. c #F0CC24",
"z. c #F1CC25",
"x. c #F2CD26",
"c. c #F2CE28",
"v. c #F2CF29",
"b. c #F3D627",
"n. c #F3D827",
"m. c #F4D12C",
"M. c #F5D82C",
"N. c #F6DD2C",
"B. c #F6DF2D",
"V. c #E9C935",
"C. c #EBD337",
"Z. c #EED136",
"A. c #E5D93A",
"S. c #ECD938",
"D. c #E8DE3A",
"F. c #F7D533",
"G. c #F6D434",
"H. c #F8D633",
"J. c #F8D634",
"K. c #F8D734",
"L. c #F0DC37",
"P. c #F5DD36",
"I. c #F8D834",
"U. c #F9D935",
"Y. c #F9DA35",
"T. c #F9DB35",
"R. c #F9DC35",
"E. c #FADD35",
"W. c #FADE35",
"Q. c #FADF36",
"!. c #F4E126",
"~. c #F5E429",
"^. c #F7E72B",
"/. c #F7E32E",
"(. c #EDE53A",
"). c #F6E037",
"_. c #F9E232",
"`. c #FAE036",
"'. c #F9E337",
"]. c #FAE236",
"[. c #FBE336",
"{. c #FBE436",
"}. c #FBE437",
"|. c #FBE537",
" X c #FBE637",
".X c #FAEE31",
"XX c #FCE837",
"oX c #FBEF34",
"OX c #F1EA3A",
"+X c #FAE838",
"@X c #FCEB38",
"#X c #F9EF3A",
"$X c #FDEC38",
"%X c #FDEE38",
"&X c #FDEF38",
"*X c #FCF134",
"=X c #FCF235",
"-X c #FDF337",
";X c #FEF537",
":X c #FEF139",
">X c #FEF239",
",X c #FEF339",
"<X c #FEF438",
"1X c #FEF439",
"2X c #FEF539",
"3X c #FEF638",
"4X c #FFF63A",
"5X c #FFF73A",
"6X c #FFF83A",
/* pixels */
"                                                                                                    ",
"                                                                                                    ",
"                                                                                                    ",
"                                                                                                    ",
"                                                                                                    ",
"                                                                                                    ",
"                                                                                                    ",
"                                                                                                    ",
"                                                                                                    ",
"                                                                                                    ",
"                                                                                                    ",
"                                        . . . . . . . . . .                                         ",
"                                        n H H r = B H H H n                                         ",
"                                      : 9.#X(.G a D.,X,X,Xt.>                                       ",
"                                  . u #.Z.e.a K A.P.W.W.W.L.d.s .                                   ",
"                                  z X.[.&.F S s.2X}.}.[.U.W.+XO.x                                   ",
"                                * y.2X2Xx t OX6X6X6X6X2XQ.K.K.+Xp.*                                 ",
"                                & $.].].j t OX6X6X6X6X2XQ.K.K.&Xp.*                                 ",
"                                & $.].].j t OX6X6X6X6X2XQ.K.K.+Xi.*                                 ",
"                                & i.4X4Xx t OX4X6X6X6X2XQ.K.K.&Xi.&                                 ",
"                              i | C.a.N K y.].&X6X6X6X6X&X}.K.Q.S.9.l                               ",
"                            . c Q.]...o w.&XY.+X6X6X6X6X4X+XK.K.].2XB .                             ",
"                            . C 2X2X0.o w.,XK.+X6X6X6X6X6X+XK.K.[.2XZ .                             ",
"                            . Z 6X6X0.o  .].F.+X6X6X6X6X6X+XJ.K.U.|.b .                             ",
"                            . C ,X,X9.X ] K.F._..X2X6X6X6X&XK.K.J.J.k .                             ",
"                            . c W.U. .X ] K.F.6.,..X6X6X6X+XK.K.J.J.k .                             ",
"                            . b |.|.o.X ] K.F.x.6.oX2X2X!.b.J.J.K.K.k .                             ",
"                            . C 2X2X0.X ] K.F.I.[.,X6X=X>.-.J.J.K.K.k .                             ",
"                            . c W.[...X ] F.I.}.,X2X2X2XM.m.K.K.K.K.k .                             ",
"                              h ] f.) 8 m _ g./.6X6X6X=Xb.c.K.K.V.' i                               ",
"                                @ 2 E E 6 - L 7.6X6X6X=X=.-.J.J.{ &                                 ",
"                                & / k.k.h - L n.6X6X2X2X^.N.H.2.T @                                 ",
"                                @ ( x.k.h - L ,.~.~.~.~.~.B.F.*.3 O                                 ",
"                                @ 3 I E 8 - L ! ! ! ! ! ! :.F.*.1 O                                 ",
"                                  q g 2._ D f U ! 1.4.4.4.x.F.M q                                   ",
"                                  . u #.j.` e < Y h.c.m.c.j.@.y .                                   ",
"                                      : T I P f 0 R ^ ^ ^ T :                                       ",
"                                        6 < d ; # 9 , d , 6                                         ",
"                                        . . . . . . . . . .                                         ",
"                                                                                                    ",
"                                                                                                    ",
"                                                                                                    ",
"                                                                                                    ",
"                                                                                                    ",
"                                                                                                    ",
"                                                                                                    ",
"                                                                                                    ",
"                                                                                                    ",
"                                                                                                    ",
"                                                                                                    "
};
