/* XPM */
static char *d7d98be609e842dca13eb42f73a53fa1OqRYI06rSf7ExSFA[] = {
/* columns rows colors chars-per-pixel */
"50 50 7 1 ",
"  c white",
". c #222034",
"X c #FBF236",
"o c #ECB12D",
"O c #45283C",
"+ c #AC3232",
"@ c #DF7126",
/* pixels */
"                                                  ",
"                                                  ",
"                                                  ",
"                                                  ",
"                                                  ",
"                                                  ",
"                                                  ",
"                                                  ",
"                                                  ",
"                                                  ",
"                                                  ",
"                                                  ",
"                                                  ",
"                                                  ",
"                                                  ",
"                                                  ",
"                      ..  ..                      ",
"                ..   .XX..  .   ..                ",
"               .Xo. .oOOoX++X. .X .               ",
"                ..X.XOOo@oX++ . ..                ",
"                 .oOoOOo+@X++X+X.                 ",
"                .oOOoOOOoX+++X++X.                ",
"                .o.OOoOOO+++X++OX.                ",
"               .oO..oOOoooX++XOO+X.               ",
"               .@O.oOOo@@@oX++XO+o.               ",
"               .@O.@.O@+oX@o+OoO+o.               ",
"                .@@...@+@o@oOOOoo.                ",
"                 ...o.@+++@oOXOO.                 ",
"                 .@o..O@@@o+OOXo.                 ",
"                .o...OOOO++++OOOX.                ",
"                .@...oOO@o++XOOOo.                ",
"                 .@...@@+@ooOOOo.                 ",
"                 .++...@+@oOOO@@.                 ",
"                  ..@..@+@oOOo..                  ",
"                    .@@+..@oo.                    ",
"                     ...oX...                     ",
"                       .@o.                       ",
"                        ..                        ",
"                                                  ",
"                                                  ",
"                                                  ",
"                                                  ",
"                                                  ",
"                                                  ",
"                                                  ",
"                                                  ",
"                                                  ",
"                                                  ",
"                                                  ",
"                                                  "
};
