/* XPM */
static char *result[] = {
/* columns rows colors chars-per-pixel */
"50 50 229 2 ",
"   c #72683E",
".  c #756A3E",
"X  c #756B3E",
"o  c #786D3A",
"O  c #796D3A",
"+  c #796D3B",
"@  c #7C6F38",
"#  c #796E3C",
"$  c #796E3D",
"%  c #7A6E3C",
"&  c #7A6F3E",
"*  c #7A703E",
"=  c #7A713E",
"-  c #7B713E",
";  c #7F753E",
":  c #8E7C2E",
">  c #927F2D",
",  c #8B7A30",
"<  c #82753C",
"1  c #85773D",
"2  c #867C3D",
"3  c #A88E1F",
"4  c #AB901E",
"5  c #BE9E13",
"6  c #BF9E13",
"7  c #BF9F15",
"8  c #BD9E1B",
"9  c #BFA01C",
"0  c #9C8526",
"q  c #9D8726",
"w  c #9C8627",
"e  c #9F8825",
"r  c #998328",
"t  c #9C8628",
"y  c #958230",
"u  c #97863A",
"i  c #92893D",
"p  c #978D3D",
"a  c #99883A",
"s  c #9B8A3B",
"d  c #9C8A3B",
"f  c #9F8D3B",
"g  c #9B903C",
"h  c #9B913D",
"j  c #9E953D",
"k  c #A58C21",
"l  c #A38B26",
"z  c #BA9E22",
"x  c #B89E28",
"c  c #A28E33",
"v  c #A28E34",
"b  c #AF9830",
"n  c #A49039",
"m  c #A6963B",
"M  c #A1983D",
"N  c #A49B3D",
"B  c #AB993A",
"V  c #A89A3A",
"C  c #AB9A3A",
"Z  c #AC9D3B",
"A  c #A89E3C",
"S  c #A89F3C",
"D  c #A9A03C",
"F  c #ADA23C",
"G  c #ACA33C",
"H  c #ADA33C",
"J  c #ADA43C",
"K  c #ADA53C",
"L  c #AFA53C",
"P  c #B7A033",
"I  c #BBA336",
"U  c #BEA636",
"Y  c #BBA739",
"T  c #B4AC3C",
"R  c #B9B03C",
"E  c #BCB33C",
"W  c #BDB43C",
"Q  c #CFAB0F",
"!  c #D4AD06",
"~  c #D2AC08",
"^  c #DEB608",
"/  c #CDAA12",
"(  c #C0A21E",
")  c #C4A51C",
"_  c #E0B601",
"`  c #E0B703",
"'  c #E1B703",
"]  c #E1B803",
"[  c #E1B903",
"{  c #E0B807",
"}  c #E2BA0B",
"|  c #E2BB11",
" . c #E3BD15",
".. c #E3BE16",
"X. c #E3BE17",
"o. c #E4BF1A",
"O. c #E4BF1B",
"+. c #CAAD2B",
"@. c #CAAE2C",
"#. c #D2B222",
"$. c #D1B42E",
"%. c #D7B82B",
"&. c #DDBD2B",
"*. c #C6AB30",
"=. c #C5AB34",
"-. c #C7AE36",
";. c #C8AF38",
":. c #CDB234",
">. c #C2B139",
",. c #CBB538",
"<. c #CCB638",
"1. c #CCB738",
"2. c #C6BA3A",
"3. c #C8BA3A",
"4. c #CDBB39",
"5. c #DBBD32",
"6. c #D9BC36",
"7. c #D1BC38",
"8. c #D1BD38",
"9. c #D6BF38",
"0. c #E0BE21",
"q. c #E0BE22",
"w. c #E5C10B",
"e. c #E8C612",
"r. c #E4C01C",
"t. c #E7C21C",
"y. c #E6C41C",
"u. c #ECC71E",
"i. c #CCC33B",
"p. c #CEC33B",
"a. c #CFC53B",
"s. c #CFC73B",
"d. c #C9C13C",
"f. c #DEC737",
"g. c #D0C43A",
"h. c #D4C739",
"j. c #D4C83A",
"k. c #D4CB3B",
"l. c #D5CC3B",
"z. c #D5CD3B",
"x. c #DECC38",
"c. c #DED73B",
"v. c #E5C223",
"b. c #E2C127",
"n. c #E6C324",
"m. c #E7C624",
"M. c #E6C426",
"N. c #EFCB27",
"B. c #E6C528",
"V. c #E7C529",
"C. c #EDCB29",
"Z. c #E9C82E",
"A. c #EAC92F",
"S. c #F0CB22",
"D. c #F0CC24",
"F. c #F0CD29",
"G. c #F1D225",
"H. c #F2D225",
"J. c #F3D726",
"K. c #F4D22F",
"L. c #F6D72D",
"P. c #E7C731",
"I. c #E8C830",
"U. c #E8C831",
"Y. c #E8C931",
"T. c #E9CA31",
"R. c #EBCB32",
"E. c #EACD32",
"W. c #EBCF32",
"Q. c #E5D337",
"!. c #EDD333",
"~. c #EFD233",
"^. c #EED431",
"/. c #EBD237",
"(. c #EED136",
"). c #EBD434",
"_. c #E8D536",
"`. c #EFD634",
"'. c #EDD835",
"]. c #E2D739",
"[. c #E6DC3A",
"{. c #F2D133",
"}. c #F0D233",
"|. c #F5D333",
" X c #F0D433",
".X c #F1D634",
"XX c #F1DB30",
"oX c #F0D834",
"OX c #F1DB35",
"+X c #F2DD35",
"@X c #F3DE35",
"#X c #F7DC35",
"$X c #F8D934",
"%X c #F9DC35",
"&X c #FADF36",
"*X c #F5E128",
"=X c #EDE53A",
"-X c #F4E036",
";X c #F4E236",
":X c #F4E336",
">X c #F7E336",
",X c #F6E637",
"<X c #FAE036",
"1X c #F9E337",
"2X c #FAE236",
"3X c #FBE336",
"4X c #FBE637",
"5X c #F7E837",
"6X c #F9EB30",
"7X c #FAED31",
"8X c #FCE937",
"9X c #F1EA3A",
"0X c #FCEB38",
"qX c #F9EC38",
"wX c #F9EF3A",
"eX c #FDEC38",
"rX c #FDEE38",
"tX c #FCF035",
"yX c #FDF137",
"uX c #FDF039",
"iX c #FCF139",
"pX c #FEF239",
"aX c #FEF339",
"sX c #FEF539",
"dX c #FEF53A",
"fX c #FFF63A",
"gX c #FFF73A",
"hX c #FFF83A",
"jX c None",
/* pixels */
"jXjXjXjXjXjXjXjXjXjXjXjXjXjXjXjXjXjXjXjXjXjXjXjXjXjXjXjXjXjXjXjXjXjXjXjXjXjXjXjXjXjXjXjXjXjXjXjXjXjX",
"jXjXjXjXjXjXjXjXjXjXjXjXjXjXjXjXjXjXjXjXjXjXjXjXjXjXjXjXjXjXjXjXjXjXjXjXjXjXjXjXjXjXjXjXjXjXjXjXjXjX",
"jXjXjXjXjXjXjXjXjXjXjXjXjXjXjXjXjXjXjXjXjXjXjXjXjXjXjXjXjXjXjXjXjXjXjXjXjXjXjXjXjXjXjXjXjXjXjXjXjXjX",
"jXjXjXjXjXjXjXjXjXjXjXjXjXjXjXjXjXjXjXjXjXjXjXjXjXjXjXjXjXjXjXjXjXjXjXjXjXjXjXjXjXjXjXjXjXjXjXjXjXjX",
"jXjXjXjXjXjXjXjXjXjXjXjXjXjXjXjXjXjXjXjXjXjXjXjXjXjXjXjXjXjXjXjXjXjXjXjXjXjXjXjXjXjXjXjXjXjXjXjXjXjX",
"jXjXjXjXjXjXjXjXjXjXjXjXjXjXjXjXjXjXjXjXjXjXjXjXjXjXjXjXjXjXjXjXjXjXjXjXjXjXjXjXjXjXjXjXjXjXjXjXjXjX",
"jXjXjXjXjXjXjXjXjXjXjXjXjXjXjXjXjXjXjXjXjXjXjXjXjXjXjXjXjXjXjXjXjXjXjXjXjXjXjXjXjXjXjXjXjXjXjXjXjXjX",
"jXjXjXjXjXjXjXjXjXjXjXjXjXjXjXjXjXjXjXjXjXjXjXjXjXjXjXjXjXjXjXjXjXjXjXjXjXjXjXjXjXjXjXjXjXjXjXjXjXjX",
"jXjXjXjXjXjXjXjXjXjXjXjXjXjXjXjXjXjXjXjXjXjXjXjXjXjXjXjXjXjXjXjXjXjXjXjXjXjXjXjXjXjXjXjXjXjXjXjXjXjX",
"jXjXjXjXjXjXjXjXjXjXjXjXjXjXjXjXjXjXjXjXjXjXjXjXjXjXjXjXjXjXjXjXjXjXjXjXjXjXjXjXjXjXjXjXjXjXjXjXjXjX",
"jXjXjXjXjXjXjXjXjXjXjXjXjXjXjXjXjXjXjXjXjXjXjXjXjXjXjXjXjXjXjXjXjXjXjXjXjXjXjXjXjXjXjXjXjXjXjXjXjXjX",
"jXjXjXjXjXjXjXjXjXjXjXjXjXjXjXjXjXjXjXjX                    jXjXjXjXjXjXjXjXjXjXjXjXjXjXjXjXjXjXjXjX",
"jXjXjXjXjXjXjXjXjXjXjXjXjXjXjXjXjXjXjXjXS R R R G ; i R R S jXjXjXjXjXjXjXjXjXjXjXjXjXjXjXjXjXjXjXjX",
"jXjXjXjXjXjXjXjXjXjXjXjXjXjXjXjXjXjXjX2 a.iXiXiX[.h T =XwXg.1 jXjXjXjXjXjXjXjXjXjXjXjXjXjXjXjXjXjXjX",
"jXjXjXjXjXjXjXjXjXjXjXjXjXjXjXjXjX  j c._.!.!.!.).].E g f.(.6.d   jXjXjXjXjXjXjXjXjXjXjXjXjXjXjXjXjX",
"jXjXjXjXjXjXjXjXjXjXjXjXjXjXjXjXjXN 2.:X.X~.OX X}.-Xh.L Y 9.1X3.N jXjXjXjXjXjXjXjXjXjXjXjXjXjXjXjXjX",
"jXjXjXjXjXjXjXjXjXjXjXjXjXjXjXjX- z.5XY.{.&XsX4X|.R.@X9Xp A fXfXk.* jXjXjXjXjXjXjXjXjXjXjXjXjXjXjXjX",
"jXjXjXjXjXjXjXjXjXjXjXjXjXjXjXjX- z.5XY.{.&XsX4X|.R.@X9Xp m <X<X7.& jXjXjXjXjXjXjXjXjXjXjXjXjXjXjXjX",
"jXjXjXjXjXjXjXjXjXjXjXjXjXjXjXjX- z.5XY.{.&XsX4X|.R.@X9Xp m 2X2X8.& jXjXjXjXjXjXjXjXjXjXjXjXjXjXjXjX",
"jXjXjXjXjXjXjXjXjXjXjXjXjXjXjXjX- z.5XY.{.&XsX4X|.R.@X9Xp S gXgXl.= jXjXjXjXjXjXjXjXjXjXjXjXjXjXjXjX",
"jXjXjXjXjXjXjXjXjXjXjXjXjXjXjXM i.Q.@X,X#X&XsX4X$X>X-X'.j.W D x./.;.f jXjXjXjXjXjXjXjXjXjXjXjXjXjXjX",
"jXjXjXjXjXjXjXjXjXjXjXjXjXjX  K sX`.oXgX3X&XsX4X%XpX;XE.qXd.. 1.&X&XC   jXjXjXjXjXjXjXjXjXjXjXjXjXjX",
"jXjXjXjXjXjXjXjXjXjXjXjXjXjX  K sX`.oXgX3X&XsX4X%XpX;XE.qXd.X a.sXsXH   jXjXjXjXjXjXjXjXjXjXjXjXjXjX",
"jXjXjXjXjXjXjXjXjXjXjXjXjXjX  V +XW.oXgXrXeXfXuX0XdX;XT.oX>.X s.hXhXJ   jXjXjXjXjXjXjXjXjXjXjXjXjXjX",
"jXjXjXjXjXjXjXjXjXjXjXjXjXjX  n U.U.^.6XtXaXgXsXyX7XXXU.U.I X p.pXpXF   jXjXjXjXjXjXjXjXjXjXjXjXjXjX",
"jXjXjXjXjXjXjXjXjXjXjXjXjXjX  n U.U.m.w.G.3XdX8XL.e.y.U.U.I . ,.%X%XB   jXjXjXjXjXjXjXjXjXjXjXjXjXjX",
"jXjXjXjXjXjXjXjXjXjXjXjXjXjX  n U.U.B.X.F.&XsX4XK.t.v.U.U.I X 4.4X4XZ   jXjXjXjXjXjXjXjXjXjXjXjXjXjX",
"jXjXjXjXjXjXjXjXjXjXjXjXjXjX  n U.U.U.U.{.&XsX4X|.R.U.U.U.I X a.sXsXH   jXjXjXjXjXjXjXjXjXjXjXjXjXjX",
"jXjXjXjXjXjXjXjXjXjXjXjXjXjX  n U.U.U.U.{.&XsX4X|.R.U.U.U.I . <.&X&XC   jXjXjXjXjXjXjXjXjXjXjXjXjXjX",
"jXjXjXjXjXjXjXjXjXjXjXjXjXjXjXa U 5.U.U.{.&XsX4X|.R.B.0.*.b q #.b.-.f jXjXjXjXjXjXjXjXjXjXjXjXjXjXjX",
"jXjXjXjXjXjXjXjXjXjXjXjXjXjXjXjX$ =.I.U.{.&XsX4X|.R.o.! : w _ _ 6 o jXjXjXjXjXjXjXjXjXjXjXjXjXjXjXjX",
"jXjXjXjXjXjXjXjXjXjXjXjXjXjXjXjX+ ( r.I.{.&XsX4X|.R.o.! : c S.S.+.# jXjXjXjXjXjXjXjXjXjXjXjXjXjXjXjX",
"jXjXjXjXjXjXjXjXjXjXjXjXjXjXjXjXO 5 | I.C.H.*XJ.N.A.o.! : v D.D.@.% jXjXjXjXjXjXjXjXjXjXjXjXjXjXjXjX",
"jXjXjXjXjXjXjXjXjXjXjXjXjXjXjXjXO 5 | I. .' [ ] } V.o.! : t ` ` 7 + jXjXjXjXjXjXjXjXjXjXjXjXjXjXjXjX",
"jXjXjXjXjXjXjXjXjXjXjXjXjXjXjXjXjXr x P.n.r.r.r.O...) l P $.u.z r jXjXjXjXjXjXjXjXjXjXjXjXjXjXjXjXjX",
"jXjXjXjXjXjXjXjXjXjXjXjXjXjXjXjXjX  u :.&.M.M.M.q./ 4 y %.Z.6.s   jXjXjXjXjXjXjXjXjXjXjXjXjXjXjXjXjX",
"jXjXjXjXjXjXjXjXjXjXjXjXjXjXjXjXjXjXjX< 8 { { { Q > k ~ ^ 9 1 jXjXjXjXjXjXjXjXjXjXjXjXjXjXjXjXjXjXjX",
"jXjXjXjXjXjXjXjXjXjXjXjXjXjXjXjXjXjXjXjX0 3 3 3 e @ , 3 3 0 jXjXjXjXjXjXjXjXjXjXjXjXjXjXjXjXjXjXjXjX",
"jXjXjXjXjXjXjXjXjXjXjXjXjXjXjXjXjXjXjXjX                    jXjXjXjXjXjXjXjXjXjXjXjXjXjXjXjXjXjXjXjX",
"jXjXjXjXjXjXjXjXjXjXjXjXjXjXjXjXjXjXjXjXjXjXjXjXjXjXjXjXjXjXjXjXjXjXjXjXjXjXjXjXjXjXjXjXjXjXjXjXjXjX",
"jXjXjXjXjXjXjXjXjXjXjXjXjXjXjXjXjXjXjXjXjXjXjXjXjXjXjXjXjXjXjXjXjXjXjXjXjXjXjXjXjXjXjXjXjXjXjXjXjXjX",
"jXjXjXjXjXjXjXjXjXjXjXjXjXjXjXjXjXjXjXjXjXjXjXjXjXjXjXjXjXjXjXjXjXjXjXjXjXjXjXjXjXjXjXjXjXjXjXjXjXjX",
"jXjXjXjXjXjXjXjXjXjXjXjXjXjXjXjXjXjXjXjXjXjXjXjXjXjXjXjXjXjXjXjXjXjXjXjXjXjXjXjXjXjXjXjXjXjXjXjXjXjX",
"jXjXjXjXjXjXjXjXjXjXjXjXjXjXjXjXjXjXjXjXjXjXjXjXjXjXjXjXjXjXjXjXjXjXjXjXjXjXjXjXjXjXjXjXjXjXjXjXjXjX",
"jXjXjXjXjXjXjXjXjXjXjXjXjXjXjXjXjXjXjXjXjXjXjXjXjXjXjXjXjXjXjXjXjXjXjXjXjXjXjXjXjXjXjXjXjXjXjXjXjXjX",
"jXjXjXjXjXjXjXjXjXjXjXjXjXjXjXjXjXjXjXjXjXjXjXjXjXjXjXjXjXjXjXjXjXjXjXjXjXjXjXjXjXjXjXjXjXjXjXjXjXjX",
"jXjXjXjXjXjXjXjXjXjXjXjXjXjXjXjXjXjXjXjXjXjXjXjXjXjXjXjXjXjXjXjXjXjXjXjXjXjXjXjXjXjXjXjXjXjXjXjXjXjX",
"jXjXjXjXjXjXjXjXjXjXjXjXjXjXjXjXjXjXjXjXjXjXjXjXjXjXjXjXjXjXjXjXjXjXjXjXjXjXjXjXjXjXjXjXjXjXjXjXjXjX",
"jXjXjXjXjXjXjXjXjXjXjXjXjXjXjXjXjXjXjXjXjXjXjXjXjXjXjXjXjXjXjXjXjXjXjXjXjXjXjXjXjXjXjXjXjXjXjXjXjXjX",
"jXjXjXjXjXjXjXjXjXjXjXjXjXjXjXjXjXjXjXjXjXjXjXjXjXjXjXjXjXjXjXjXjXjXjXjXjXjXjXjXjXjXjXjXjXjXjXjXjXjX"
};
