/* XPM */
static char *result[] = {
/* columns rows colors chars-per-pixel */
"50 50 48 1 ",
"  c black",
". c #060607",
"X c #08070A",
"o c #0F0F12",
"O c #0F0F14",
"+ c #101013",
"@ c #111115",
"# c #121216",
"$ c #14131A",
"% c #17171C",
"& c #17161E",
"* c gray11",
"= c #1F1E28",
"- c #1E0137",
"; c #22222A",
": c #23242C",
"> c #2D2D38",
", c #2E2F3A",
"< c #2E2D3D",
"1 c #393939",
"2 c #270147",
"3 c #353542",
"4 c #3D3C51",
"5 c #3C026E",
"6 c #44027C",
"7 c #3F4049",
"8 c #4A4A4F",
"9 c #464758",
"0 c #555555",
"q c #5F5D65",
"w c #7B7A81",
"e c #6A03C0",
"r c #7904DC",
"t c #8804F7",
"y c #94959E",
"u c #8687A1",
"i c #8C8EB1",
"p c #AAAAAA",
"a c #B1B1BA",
"s c #A9ABCD",
"d c #B8B8CA",
"f c #BEC0DA",
"g c #C6C6C6",
"h c #CDCED6",
"j c #D4D5E6",
"k c gray89",
"l c white",
"z c None",
/* pixels */
"zzzzzzzzzzzzzzzzzzzzzzzzzzzzzzzzzzzzzzzzzzzzzzzzzz",
"zzzzzzzzzzzzzzzzzzzzzzzzzzzzzzzzzzzzzzzzzzzzzzzzzz",
"zzzzzzzzzzzzzzzzzzzzzzzzzzzzzzzzzzzzzzzzzzzzzzzzzz",
"zzzzzzzzzzzzzzzzzzzzzzzzzzzzzzzzzzzzzzzzzzzzzzzzzz",
"zzzzzzzzzzzzzzzzzzzzzzzzzzzzzzzzzzzzzzzzzzzzzzzzzz",
"zzzzzzzzzzzzzzzzzzzzzzzzzzzzzzzzzzzzzzzzzzzzzzzzzz",
"zzzzzzzzzzzzzzzzzzzzzzzzzzzzzzzzzzzzzzzzzzzzzzzzzz",
"zzzzzzzzzzzzzzzzzzzzzzzzzzzzzzzzzzzzzzzzzzzzzzzzzz",
"zzzzzzzzzzzzzzzzzzzzzzzzzzzzzzzzzzzzzzzzzzzzzzzzzz",
"zzzzzzzzzzzzzzzzzzzzzzzzzzzzzzzzzzzzzzzzzzzzzzzzzz",
"zzzzzzzzzzzzzzzzzzzzzzzzzzzzzzzzzzzzzzzzzzzzzzzzzz",
"zzzzzzzzzzzzzzzzzzzzzz&X X$zzzzzzzzzzzzzzzzzzzzzzz",
"zzzzzzzzzzzzzzzzzzzz  &X XO zzzzzzzzzzzzzzzzzzzzzz",
"zzzzzzzzzzzzzzzzzz         = zzzzzzzzzzzzzzzzzzzzz",
"zzzzzzzzzzzzzzzzz     ;    < zzzztztzzzzzzzzzzzzzz",
"zzzzzzzzzzzzzzzz ;;  ;.@@@@. zzztzzzzzzzzzzzzzzzzz",
"zzzzzzzzzzzzzzzz ;>%9 .@@@@. z zzzzzzzzzzzzzzzzzzz",
"zzzzzzzzzzzzzzzzzo@,ipppppp1zz62zzzzzzzzzzzzzzzzzz",
"zzzzzzzzzzzzzzzzzz3sfl 9hlh:z2rezzzzzzzzzzzzzzzzzz",
"zzzzzzzzzzzzzzzzzz3fll1 plp1zz5-zzzzzzzzzzzzzzzzzz",
"zzzzzzzzzzzzzzzzzz3fllkpdjkk z  zzzzzzzzzzzzzzzzzz",
"zzzzzzzzzzzzzzzzzzz0llllllll z zzzzzzzzzzzzzzzzzzz",
"zzzzzzzzzzzzzzzzzzz   uakka7zz zzzzzzzzzzzzzzzzzzz",
"zzzzzzzzzzzzzzzzzzz   **11**zz zzzzzzzzzzzzzzzzzzz",
"zzzzzzzzzzzzzzzzzz O< :yp9     zzzzzzzzzzzzzzzzzzz",
"zzzzzzzzzzzzzzzzz &4O #8g:   w0zzzzzzzzzzzzzzzzzzz",
"zzzzzzzzzzzzzzzzzzO=1 :yh9   q1zzzzzzzzzzzzzzzzzzz",
"zzzzzzzzzzzzzzzzzz 1k   :    + zzzzzzzzzzzzzzzzzzz",
"zzzzzzzzzzzzzzzzzzzz    z    z zzzzzzzzzzzzzzzzzzz",
"zzzzzzzzzzzzzzzzzzzz    z    zzzzzzzzzzzzzzzzzzzzz",
"zzzzzzzzzzzzzzzzzzzz   zzz   zzzzzzzzzzzzzzzzzzzzz",
"zzzzzzzzzzzzzzzzzzzz   zzz   zzzzzzzzzzzzzzzzzzzzz",
"zzzzzzzzzzzzzzzzzzzzzzzzzzzzzzzzzzzzzzzzzzzzzzzzzz",
"zzzzzzzzzzzzzzzzzzzzzzzzzzzzzzzzzzzzzzzzzzzzzzzzzz",
"zzzzzzzzzzzzzzzzzzzzzzzzzzzzzzzzzzzzzzzzzzzzzzzzzz",
"zzzzzzzzzzzzzzzzzzzzzzzzzzzzzzzzzzzzzzzzzzzzzzzzzz",
"zzzzzzzzzzzzzzzzzzzzzzzzzzzzzzzzzzzzzzzzzzzzzzzzzz",
"zzzzzzzzzzzzzzzzzzzzzzzzzzzzzzzzzzzzzzzzzzzzzzzzzz",
"zzzzzzzzzzzzzzzzzzzzzzzzzzzzzzzzzzzzzzzzzzzzzzzzzz",
"zzzzzzzzzzzzzzzzzzzzzzzzzzzzzzzzzzzzzzzzzzzzzzzzzz",
"zzzzzzzzzzzzzzzzzzzzzzzzzzzzzzzzzzzzzzzzzzzzzzzzzz",
"zzzzzzzzzzzzzzzzzzzzzzzzzzzzzzzzzzzzzzzzzzzzzzzzzz",
"zzzzzzzzzzzzzzzzzzzzzzzzzzzzzzzzzzzzzzzzzzzzzzzzzz",
"zzzzzzzzzzzzzzzzzzzzzzzzzzzzzzzzzzzzzzzzzzzzzzzzzz",
"zzzzzzzzzzzzzzzzzzzzzzzzzzzzzzzzzzzzzzzzzzzzzzzzzz",
"zzzzzzzzzzzzzzzzzzzzzzzzzzzzzzzzzzzzzzzzzzzzzzzzzz",
"zzzzzzzzzzzzzzzzzzzzzzzzzzzzzzzzzzzzzzzzzzzzzzzzzz",
"zzzzzzzzzzzzzzzzzzzzzzzzzzzzzzzzzzzzzzzzzzzzzzzzzz",
"zzzzzzzzzzzzzzzzzzzzzzzzzzzzzzzzzzzzzzzzzzzzzzzzzz",
"zzzzzzzzzzzzzzzzzzzzzzzzzzzzzzzzzzzzzzzzzzzzzzzzzz"
};
