/* XPM */
static char *result[] = {
/* columns rows colors chars-per-pixel */
"50 43 192 2 ",
"   c #000000",
".  c #0C0B0B",
"X  c #100E0F",
"o  c #0F0F10",
"O  c #110F10",
"+  c #141313",
"@  c #1C1B1B",
"#  c #1B1817",
"$  c #231E1E",
"%  c #36281D",
"&  c #231F20",
"*  c #1E2934",
"=  c #1C2D3C",
"-  c #1F2730",
";  c #242223",
":  c #2A2422",
">  c #232429",
",  c #2D2B2C",
"<  c #27282C",
"1  c #352920",
"2  c #302C2E",
"3  c #372821",
"4  c #222A33",
"5  c #282F37",
"6  c #343334",
"7  c #3A3738",
"8  c #3A3A3B",
"9  c #383536",
"0  c #24313D",
"q  c #432921",
"w  c #4E2C22",
"e  c #592F22",
"r  c #4B3622",
"t  c #473328",
"y  c #523920",
"u  c #583924",
"i  c #413E3F",
"p  c #6C3424",
"a  c #7C3923",
"s  c #733623",
"d  c #5F411F",
"f  c #6B471F",
"g  c #744C1F",
"h  c #794E1F",
"j  c #5F4020",
"k  c #53403C",
"l  c #17354C",
"z  c #1A3449",
"x  c #173D5A",
"c  c #1A2F40",
"v  c #253645",
"b  c #343A41",
"n  c #213A51",
"m  c #203E59",
"M  c #113F60",
"N  c #413F41",
"B  c #1F415E",
"V  c #20415E",
"C  c #334454",
"Z  c #0F4369",
"A  c #0B4C79",
"S  c #1A4E77",
"D  c #1F4A6E",
"F  c #454344",
"G  c #4C4A4B",
"H  c #494748",
"J  c #514F51",
"K  c #545355",
"L  c #5B5A5C",
"P  c #595C61",
"I  c #5F6062",
"U  c #566B7D",
"Y  c #476176",
"T  c #636364",
"R  c #6A6A6B",
"E  c #656668",
"W  c #747475",
"Q  c #75767A",
"!  c #7A7A7B",
"~  c #6F7073",
"^  c #863C24",
"/  c #923F24",
"(  c #81551F",
")  c #8F5A1F",
"_  c #935E1F",
"`  c #93641E",
"'  c #9A631E",
"]  c #A5671F",
"[  c #AB751E",
"{  c #B9711F",
"}  c #924A23",
"|  c #A24425",
" . c #AC4625",
".. c #BC4B26",
"X. c #B64926",
"o. c #B87324",
"O. c #CB7B1E",
"+. c #C54E26",
"@. c #D45227",
"#. c #DE5527",
"$. c #E65828",
"%. c #F05A28",
"&. c #F05D27",
"*. c #F16427",
"=. c #F26C25",
"-. c #F37424",
";. c #F47D22",
":. c #D98D1D",
">. c #CB941B",
",. c #CC8B1D",
"<. c #EA8D1E",
"1. c #F58C1F",
"2. c #F6921E",
"3. c #F79B1D",
"4. c #F89F1C",
"5. c #EC9E1C",
"6. c #F8A31C",
"7. c #F9AF1B",
"8. c #FAB41A",
"9. c #FBBB19",
"0. c #EEAE1A",
"q. c #CA8639",
"w. c #DA8F38",
"e. c #F58520",
"r. c #F58920",
"t. c #F69625",
"y. c #F79D35",
"u. c #F7A13D",
"i. c #FCC418",
"p. c #FDCA18",
"a. c #FED416",
"s. c #DE9D52",
"d. c #F0A753",
"f. c #F7B365",
"g. c #F9BB72",
"h. c #FAC17F",
"j. c #0D5488",
"k. c #1A598A",
"l. c #105C93",
"z. c #17639D",
"x. c #166BAB",
"c. c #1A69A6",
"v. c #1A71B5",
"b. c #1B75BB",
"n. c #2179BD",
"m. c #2578B9",
"M. c #327BB4",
"N. c #577187",
"B. c #7D7E81",
"V. c #467CA8",
"C. c #6F8292",
"Z. c #5289B4",
"A. c #3786C4",
"S. c #4E93C9",
"D. c #75ACD6",
"F. c #6EA4CE",
"G. c #808184",
"H. c #8A898A",
"J. c #86878A",
"K. c #939394",
"L. c #9B9B9C",
"P. c #979799",
"I. c #818D99",
"U. c #8A9AA8",
"Y. c #9F9FA1",
"T. c #ACACAD",
"R. c #A5A5A5",
"E. c #B3B4B5",
"W. c #B9B9B9",
"Q. c #FAC688",
"!. c #FCD7AD",
"~. c #FCDCB7",
"^. c #AAB6C0",
"/. c #BDD0DF",
"(. c #BCC1C7",
"). c #99C1E0",
"_. c #A4C8E4",
"`. c #C2C2C2",
"'. c #CBCBCC",
"]. c #CDD2D7",
"[. c #D2D2D3",
"{. c #FDE2C4",
"}. c #FDECD7",
"|. c #DFDFE0",
" X c #DCE7EF",
".X c #E2E3E3",
"XX c #ECECEC",
"oX c #FEF3E7",
"OX c #F3F3F3",
"+X c #FEFEFE",
"@X c #FFFAF5",
"#X c None",
/* pixels */
"#X#X#X#X#X#X#X#X#X#X#X#X#X#X#X#X#X#X#X#X#X#X#X#X#X#X#X#X#X#X#X#X#X#X#X#X#X#X#X#X#X#X#X#X#X#X#X#X#X#X",
"#X#X#X#X#X#X#X#X#X#X#X#X#X#X#X#X#X#X#X#X#X#X#X#X#X#X#X#X#X#X#X#X#X#X#X#X#X#X#X#X#X#X#X#X#X#X#X#X#X#X",
"#X#X#X#X#X#X#X#X#X#X#X#X#X#X#X#X#X#X#X#X#X#X#X#X#X#X#X#X#X#X#X#X#X#X#X#X#X#X#X#X#X#X#X#X#X#X#X#X#X#X",
"#X#X#X#X#X#X#X#X#X#X#X#X#X#X#X#X#X#X#X#X& @ # + # H G 7 , & #X#X#X#X#X#X#X#X#X#X#X#X#X#X#X#X#X#X#X#X",
"#X#X#X#X#X#X#X#X#X#X#X#X#X#X#X#X#X#X; + 6 W R.E     2 W ! R H 1 #X#X#X#X#X#X#X#X#X#X#X#X#X#X#X#X#X#X",
"#X#X#X#X#X#X#X#X#X#X#X#X#X#X#X#X$ + 8 W.+X.XR         . L C.G.W i : #X#X#X#X#X#X#X#X#X#X#X#X#X#X#X#X",
"#X#X#X#X#X#X#X#X#X#X#X#X#X#X#X$ # T.+XXXT .               G G.G.G.E : #X#X#X#X#X#X#X#X#X#X#X#X#X#X#X",
"#X#X#X#X#X#X#X#X#X#X#X#X#X#X# ; '.OXH.#                     L G.C.H.H.2 #X#X#X#X#X#X#X#X#X#X#X#X#X#X",
"#X#X#X#X#X#X#X#X#X#X#X#X#X@ + [.'.F                         o Q G.G.E.G.3 #X#X#X#X#X#X#X#X#X#X#X#X#X",
"#X#X#X#X#X#X#X#X#X#X#X#X$ . Q Q .                             7 G.G.G.|.W : #X#X#X#X#X#X#X#X#X#X#X#X",
"#X#X#X#X#X#X#X#X#X#X#X& .   .                                 . ! G.B.T.[.H #X#X#X#X#X#X#X#X#X#X#X#X",
"#X#X#X#X#X#X#X#X#X#X#X@                                         K G.G.G..XY., #X#X#X#X#X#X#X#X#X#X#X",
"#X#X#X#X#X#X#X#X#X#X$ .                                         > C.G.G.T..XK #X#X#X#X#X#X#X#X#X#X#X",
"#X#X#X#X#X#X#X#X#X#X$                                           . ! G.G.H.OXP.& #X#X#X#X#X#X#X#X#X#X",
"#X#X#X#X#X#X#X#X#X#X+ , .                                         W G.G.G.].'.6 #X#X#X#X#X#X#X#X#X#X",
"#X#X#X#X#X#X#X#X#X#X. J.Q                             +           E G.G.B.L.XXK #X#X#X#X#X#X#X#X#X#X",
"#X#X#X#X#X#X#X#X#X&   E.XX@                       , L.W.          I G.G.C.J.XXR $ #X#X#X#X#X#X#X#X#X",
"#X#X#X#X#X#X#X#X#X;   `.+XG.                  6 L.OX+X!           T G.G.G.G.[.H.$ #X#X#X#X#X#X#X#X#X",
"#X#X#X#X#X#X#X#X#X$   K.+XOX#             7 `.+X+X+X+X;           R G.G.G.G.E.L.$ #X#X#X#X#X#X#X#X#X",
"#X#X#X#X#X#X#X; y &   + P.`.R       o L '.+X+X+X+X+XR.            W G.G.G.G.P.Y.1 r : #X#X#X#X#X#X#X",
"#X#X#X#X#X: j o.1.1                 K XX+X+X+X+X+X.X;           + ! G.G.G.G.G.K.u <.] u ; #X#X#X#X#X",
"#X#X#X#X3 q.~.}.t.y                   # H..X+XOXE.#             8 G.G.G.G.C.G.R h Q.{.f.o.% #X#X#X#X",
"#X#X#Xf d.@X+Xg.2.{ 3 +                   . $ #                 E G.G.G.G.! G t O.u.}.+X{.w.y #X#X#X",
"#X#X1 s.@X+Xg.2.2.3.:.( : O                                   @ ! G.G.W J r ) <.2.2.u.~.+X}.q.: #X#X",
"#X#X) Q.!.y.2.2.2.2.3.7.5._ % $ o                             T W L 6 q ] 6.6.2.2.2.2.2.d.!.f.u #X#X",
"#X#X^ ;.r.2.2.2.2.2.2.2.4.8.9.>.` d % # + X . . . . . . X + : t f ' ,.8.7.3.2.2.2.2.2.2.2.3.-.e #X#X",
"#X#Xq $.;.2.2.2.2.2.2.2.2.2.3.8.a.p.0.>.[ ` ( h f g g ( _ [ ,.0.9.9.8.4.2.2.2.2.2.2.2.2.2.-.@.: #X#X",
"#X#X& p $.-.r.2.2.2.2.2.2.2.2.2.2.3.8.p.a.a.a.a.a.a.a.a.a.a.p.8.4.2.2.2.2.2.2.2.2.2.1.1.*.$.e #X#X#X",
"#X#X#X#Xw +.&.-.e.2.2.2.2.2.2.2.2.2.2.2.2.3.4.4.6.6.6.4.3.2.2.2.2.2.2.2.2.2.2.t.1.;.=.%...q #X#X#X#X",
"#X#X#X#X#X: a @.%.*.-.;.1.2.2.2.2.2.2.2.2.2.2.2.2.2.2.2.2.2.2.2.2.2.2.2.1.e.;.=.&.%.+.s : #X#X#X#X#X",
"#X#X#X#X#X#X9 N w | $.%.%.%.*.*.-.;.;.e.e.e.e.1.1.1.1.e.e.e.e.;.-.-.*.*.%.%.%.#./ q 4 x & #X#X#X#X#X",
"#X#X#X#X#X#XG _.z.D - w a  .#.%.%.%.%.%.%.%.%.%.%.%.%.%.%.%.%.%.%.%.%.@.| s w b D c.b.j.; #X#X#X#X#X",
"#X#X#X#X#X#XF D.n.x.A l 4 B ; i t s ^ / |  .X.....+...X. .| / ^ p w 2 * > < H.XX).m.b.z.- #X#X#X#X#X",
"#X#X#X#X#X#Xi S.v.S * P m.b.< @XM.c.k.x l c & G n n x > H H.C.k.c.v.j.Z x c.m 6 Y.].A.v.= #X#X#X#X#X",
"#X#X#X#X#X#X7 M.x ; & I.b.x.* |.n.b.x.A Z * 2 .XD.b.b.j.0 H.+XD.b.b.c.l U m.x.= & 8 B.Z.B #X#X#X#X#X",
"#X#X#X#X#X#X, v ; #X#XU v.x & (.b.v.j.x > #X#XQ  Xb.m.l.l $ ~  XS.b.x.l L D.b.- #X#X#X5 5 #X#X#X#X#X",
"#X#X#X#X#X#X& #X#X#X#XC z & #XU.b.l.z & #X#X#X& L.F.b.l.* #X#XG ].A.b.c & N V.; #X#X#X#X#X#X#X#X#X#X",
"#X#X#X#X#X#X#X#X#X#X#X& #X#X#XN.z.4 #X#X#X#X#X#X& ^.n.S & #X#X#X7 C.n.* #X#X; & #X#X#X#X#X#X#X#X#X#X",
"#X#X#X#X#X#X#X#X#X#X#X#X#X#X#Xv 4 #X#X#X#X#X#X#X#X8 Z.z #X#X#X#X#X< Y > #X#X#X#X#X#X#X#X#X#X#X#X#X#X",
"#X#X#X#X#X#X#X#X#X#X#X#X#X#X#X: #X#X#X#X#X#X#X#X#X#Xb > #X#X#X#X#X#X; & #X#X#X#X#X#X#X#X#X#X#X#X#X#X",
"#X#X#X#X#X#X#X#X#X#X#X#X#X#X#X#X#X#X#X#X#X#X#X#X#X#X& #X#X#X#X#X#X#X#X#X#X#X#X#X#X#X#X#X#X#X#X#X#X#X",
"#X#X#X#X#X#X#X#X#X#X#X#X#X#X#X#X#X#X#X#X#X#X#X#X#X#X#X#X#X#X#X#X#X#X#X#X#X#X#X#X#X#X#X#X#X#X#X#X#X#X",
"#X#X#X#X#X#X#X#X#X#X#X#X#X#X#X#X#X#X#X#X#X#X#X#X#X#X#X#X#X#X#X#X#X#X#X#X#X#X#X#X#X#X#X#X#X#X#X#X#X#X"
};
