/* XPM */
static char *_abdc01757da442cedfb1016af59ca68e1jXBexuyoQfBIuU[] = {
/* columns rows colors chars-per-pixel */
"60 60 247 2 ",
"   c #030102",
".  c #0A0302",
"X  c #0C0A05",
"o  c #02020C",
"O  c #0D0B09",
"+  c #090607",
"@  c #110606",
"#  c #110906",
"$  c #140D0B",
"%  c #16070C",
"&  c #14110E",
"*  c #1B140E",
"=  c #010212",
"-  c #00031C",
";  c #00091D",
":  c #161412",
">  c #1D1412",
",  c #1D1C1B",
"<  c #1D1914",
"1  c #100F10",
"2  c #22180E",
"3  c #231614",
"4  c #241B15",
"5  c #291C15",
"6  c #251C1A",
"7  c #291C1B",
"8  c #281619",
"9  c #321A1D",
"0  c #301A0F",
"q  c #1B251D",
"w  c #25221C",
"e  c #2B221E",
"r  c #282718",
"t  c #33221D",
"y  c #3A241D",
"u  c #352A1D",
"i  c #000225",
"p  c #00032A",
"a  c #000A2B",
"s  c #000A23",
"d  c #171829",
"f  c #000234",
"g  c #00023C",
"h  c #000938",
"j  c #1D1C32",
"k  c #101E3B",
"l  c #00102E",
"z  c #2A1C23",
"x  c #261A26",
"c  c #281E32",
"v  c #1D232E",
"b  c #2D2423",
"n  c #2D2A26",
"m  c #2E2C2B",
"M  c #262526",
"N  c #332624",
"B  c #3A2624",
"V  c #342B25",
"C  c #3A2A26",
"Z  c #33262B",
"A  c #3C262A",
"S  c #352C2A",
"D  c #3A2C2B",
"F  c #2D302B",
"G  c #363124",
"H  c #35312D",
"J  c #3B312D",
"K  c #373528",
"L  c #242C3C",
"P  c #2C2C3C",
"I  c #2A2A35",
"U  c #352B33",
"Y  c #3B2C32",
"T  c #342C3B",
"R  c #3A2837",
"E  c #2B3136",
"W  c #353131",
"Q  c #3C3232",
"!  c #35323A",
"~  c #402A1F",
"^  c #422B25",
"/  c #412728",
"(  c #422D2B",
")  c #412726",
"_  c #42312D",
"`  c #48352B",
"'  c #422C34",
"]  c #412632",
"[  c #423433",
"{  c #4D3D3C",
"}  c #433639",
"|  c #583E37",
" . c #4C423E",
".. c #54423B",
"X. c #000343",
"o. c #00034A",
"O. c #000940",
"+. c #000457",
"@. c #081E55",
"#. c #0D1B5A",
"$. c #141F52",
"%. c #0C194A",
"&. c #211F50",
"*. c #1D2A4E",
"=. c #1E2747",
"-. c #1A2C58",
";. c #1A315A",
":. c #0D2450",
">. c #252B44",
",. c #2B2B44",
"<. c #232C4B",
"1. c #2B2D4A",
"2. c #262545",
"3. c #342A44",
"4. c #2C3344",
"5. c #27344A",
"6. c #333248",
"7. c #242D53",
"8. c #232D5A",
"9. c #282954",
"0. c #223153",
"q. c #2B335B",
"w. c #293359",
"e. c #373059",
"r. c #1D2C6B",
"t. c #172A69",
"y. c #1A3569",
"u. c #0C3178",
"i. c #123176",
"p. c #222B65",
"a. c #253268",
"s. c #4A3A47",
"d. c #533D43",
"f. c #314676",
"g. c #4D4342",
"h. c #4E4945",
"j. c #554543",
"k. c #594543",
"l. c #564945",
"z. c #594848",
"x. c #5F5150",
"c. c #63524D",
"v. c #6B5654",
"b. c #665B56",
"n. c #6D5A55",
"m. c #6D5C5A",
"M. c #655455",
"N. c #715A54",
"B. c #725D5B",
"V. c #654D4D",
"C. c #6C615B",
"Z. c #696156",
"A. c #73625C",
"S. c #77615A",
"D. c #4D5875",
"F. c #50556F",
"G. c #746461",
"H. c #0D3389",
"J. c #193C8A",
"K. c #033197",
"L. c #1A3D9C",
"P. c #183C95",
"I. c #072D89",
"U. c #0A3CA8",
"Y. c #153BA2",
"T. c #0B3EBB",
"R. c #053DB7",
"E. c #18419A",
"W. c #184297",
"Q. c #1D448B",
"!. c #284195",
"~. c #365494",
"^. c #1342AA",
"/. c #0B42B8",
"(. c #1751BB",
"). c #2448A4",
"_. c #2B59AD",
"`. c #3959A9",
"'. c #2958B8",
"]. c #325BB2",
"[. c #335BBB",
"{. c #3959B7",
"}. c #3266BF",
"|. c #465995",
" X c #535B8F",
".X c #466697",
"XX c #5273B5",
"oX c #5B629A",
"OX c #043EC2",
"+X c #0944C4",
"@X c #1D5BCA",
"#X c #1E5CD5",
"$X c #1957DA",
"%X c #184FDD",
"&X c #2455C5",
"*X c #255AC4",
"=X c #2A5CC5",
"-X c #255CCB",
";X c #2A5CCC",
":X c #2755CB",
">X c #3359C8",
",X c #255BD3",
"<X c #2B5DD3",
"1X c #245ADD",
"2X c #2957D7",
"3X c #325DD3",
"4X c #365FDD",
"5X c #224FC2",
"6X c #1D62D3",
"7X c #2762CC",
"8X c #3662C8",
"9X c #2D62D3",
"0X c #2563D6",
"qX c #3E6FD6",
"wX c #1C5CE4",
"eX c #145BEC",
"rX c #1A5CEC",
"tX c #1657E7",
"yX c #155DF2",
"uX c #1B5CF2",
"iX c #1C5CFA",
"pX c #1759F8",
"aX c #0D59EE",
"sX c #235BE3",
"dX c #225CEC",
"fX c #275BE6",
"gX c #235CF7",
"hX c #1462EB",
"jX c #1C63ED",
"kX c #1960E0",
"lX c #1461F4",
"zX c #1B62F4",
"xX c #1A62FC",
"cX c #2461E7",
"vX c #3E75E2",
"bX c #2464F7",
"nX c #3068E3",
"mX c #4775DC",
"MX c #4C71C7",
"NX c #4474E3",
"BX c #4979E9",
"VX c #4D78EF",
"CX c #7896E5",
"ZX c #6B9AFE",
"AX c #779AF6",
"SX c #6F94E8",
"DX c #8095F2",
/* pixels */
"8 7 7 4 6 6 6 q q 4 6 w 4 6 6 4 5 9 8 j @.P.OXT.Q.g o.]././.Q.%.x 8 9 8 7 8 6 4 4 4 2 5 5 5 6 7 6 6 6 6 6 6 6 7 6 z 6 8 ",
"7 e 8 6 z w w 6 6 6 q 6 6 w 7 e 5 5 7 j @.P.OXT.i.g o.'.+X+XJ.$.c b 8 7 7 e 6 6 4 r 5 5 5 6 7 6 6 6 7 6 6 6 8 6 3 8 6 z ",
"7 > . .   . .   X X X # # # # # 3 3 7 j @.P.T.T.Q.g o._.OXR.P.$.j :   .       .   . . . . . . . @ # # O . . + @ * 3 6 6 ",
"3 % % 4 6 6 6 6 4 6 4 w 6 6 6 7 3 8 b j :.W././.i.g o.8XOXOXL.#.d O O < 6 6 w 6 6 8 z z z 6 6 e 7 z 7 6 6 6 8 8 3 6 z 5 ",
"6   6 6 e 6 3 6 6 6 6 6 6 6 6 7 8 7 Z v @.W.R.R.u.O.o.).+XOXY.#.j o x x b 6 5 4 6 8 7 6 6 6 6 4 7 6 6 7 8 7 6 6 7 e V 7 ",
"6 . 6 < 6 6 6 b 7 7 8 7 7 6 6 4 8 7 D d @.W././.u.h o.{.+XOXY.#.c . 7 3 6 6 5 e 7 z 7 7 7 7 7 8 6 6 6 6 7 6 7 4 6 6 Z 6 ",
"S O H J D S Z Z C D D D V D S S C D g.,.y.].,X,XJ.g o.AX#XfX{.a.P # J C V C V t V G S S S D Y A D S S V D S S S D D  .D ",
"w   , 6 6 7 9 7 7 7 8 8 7 6 6 7 5 5 D d @.^.R.T.H.g g ].T.R.Y.%.v . 2 r 3 4 z 8 4 5 4 7 8 7 8 z 7 7 7 6 4 7 7 7 7 7 D 6 ",
"H O n S Z D D D D N A D V J Z J V C z.P r.[.1X1XP.X.g CX<X,X].;.E 2 G S S R A A C C C V ^ B A D D S Z D V Z C J V Z z.D ",
"n : m V Q S Z D B [ Z D S D V V C C V.T p.[.fX1XP.o.f CX-X,X`.y.I r n G R Y ] ] _ C C r C D D Y D V V J J S S D D D c.J ",
"H + W H N n [ Z D D 8 V D Z Z D u C V.U r.>X1XsXL.o.g DX,X0X_.;.4.m U Y ] ] ] / C C G J K G S n S S S S J D D V D Z x.D ",
"S O S V H V J Z V b m.Q V V [ b C ^ v.T r.[.1X1XL.o.g CX-X0X'.i.>.Y Y d.d.z.v.V.N.A.b.C. .H S J S D D V Z Z D C D D b.Q ",
"S $ S S W H S n # g.S Q Z V D D D D n.T r.[.sXcXL.o.f CX1XfX=Xu.>.D A ( ) ) ` D J N Q Q D { C ~ C S J D V C D D D D m.D ",
"S X S Q S V n > h.V S V J S D D D A n.U r.[.#XkXP.o.X.SX1XdX:XH.r.8.7.1.1.<.<.*.*.q.=.>.3.' ..) C V V D D C C D C V m.C ",
"Z 6 Z V H n : < S V W S V D S V R S A.T y.[.kXkXE.o.g SX%XuXsX,X,X;X-X'.=X7X7X7X-X=X8X!.p.,.A k.J V V D D V V D D C m.D ",
"J 6 D J V H 6 M m H n J Z C V ( D A m.U r.].#X#XL.o.o.CXfXiXwXsXrXyXlXhXhXhXaXlXpXeX1X>X`.p.P D  ._ N C D C C D D C C.D ",
"D S V V W S z n S S D D D B ) C C ..B.3.p.].2X1X>Xo.X.XXfXgXtXgXrXlXaXlXhXjXeXzXiXiXrXsX6XW.4.D D ..D D C C C C C ..n.C ",
"C V Q g.g.g.g.Q C.z.M.l.n.S.B.n.A.n.( 3.*.`.2XwXU.+.h XXMXNXNXvXvXNXBX7XmX*XBX:X2X$XcXtX6X8X>.D D D { C.n.n.A.N.B.B._ ) ",
"V V N Q n S S n F S J Z ( y _ ( N Y ) Y w.H.VXsX3X+.p = a a s i p i s ; p i p f X.Q.>X2X0X].9.Y A S N J ( D C B C C N D ",
"V Q n G H m , w W m S Y D ( 9 D Q S A Z k XX$XjXfXY.h a s p i i p i - = = = o = = f t.{.K.].2.' Z Q J Z V D N J J C _ e ",
"J n $ X O O   + $ M . 6 7 3 t 5 6 Q ] R F.~.6XjXhXkX6X(.0X1X<X3X<X>X_.~.-.>.T x o   E ;.].].e.Z V : X X $ 4 w 5 3 C S J ",
"n & w S m W M , M Q W V J J D D Z D 8 Y <.f.'.kXhXhXhXhXyXpXpXgXpXeXcXK.`.8.3.A     G E u.`.2.} $ M H J V S V S J J D S ",
"S X n H U W M n U W n N Q Z N 7 Y 3 ` y W 0.].,XuXxXeXhXyXuXgXgXiXeXwX0XI.|.,.x      .E .Xy.E K + W H n S H V D S b l.V ",
"H O H n W S 6 H H Z S Q N D 6 j.6 D 0 ..V I t.!.>X:X3X&X=X:X3X:X-X@X8X'.].y.,.U     j.U ;.f.5.F O F M H H V S J Z S l.S ",
"V $ S S S U S b Z } V S Z 7 G.4 N N m.A z.U P <.8.8.8.0.-.-.0.0.7.<.=.-.XX`.1.r     | 3.|.r.4.m X F n n J V V D D D j.D ",
"S 6 U S W W S Z S N n Y N m.A D w [ } Y B l.H S R R U U S S S K N ^ K L `.i.P <     B.R p. X,.S X Q Q J S S D V D D x.' ",
"U $ S Y V Z Y b D [ D N j.D D 7 N Q Z A D V 4 # + @ % % 2 2 2 r ( B Y 1.#..XI r     B.3. X&.T S & < e S N Q D V D B x.B ",
"S 4 S V Q D Z D D Z ( Q D A N N D D n J [ N F G D D S D N u u u y ] Y ,.|.-.I <   . B.] 3.] U V X h.Q S D D N ( A B m.B ",
"S % S J N V D N D V V A D V [ D D D S S S S n G n G V K D Y D Y ( ..D P <.w.U 7 . . ..y J n Q 6 K S Z K D D N ( C ( A.D ",
"S , H S Q D D D D J D D N J V Z Z Z } n Q Y Y S G G V S S S U A C  .V m F.P Z z + . N.u V ` 5 v.@ S V [ t D J B C C v.C ",
"S & m S V V D V N D S V D S V J Q V N V N D D D V G S U U Y Y D C z.U F K V ' x   % z.Z N K ` t J J n e J 2 A.C B _ v._ ",
"m & S H D Z S K K V C D S S H S S S V K C C D C C V S S D U Y A A j.W m n G R x o + s.3.V V t n.4 V Q D 2 z.V C C C j.B ",
"W O W S D D S V G G G N Q S U S U ! m K H m V G C _ V H U Z Q C y S.S E E L F S o   g.s.P P j.B 6 S M 1 g.S H V D C B./ ",
"F + U D V D V G u G C S S U S K F q 1 o % H G G ) y C V ( ` V y ^ B.V ! F.5.E M   o z.z >.F.Y D 6 W , , V Q V J Z D B./ ",
"F O S S S D V V G S D A D Z b u q O q q x z V u ~ ^ y ^ y y ^ ~ | N.D T >.<.3.P o   ..S 5.5.U N 6 U , q S S S D D D B./ ",
"E & S D C J C K S S D ( D V ` q O q v I T 5 ..n.N.n.n.A.S.N.A.A.B.( A I  Xp.D.6.o .  .J L F.! D 6 S M m S Q Z Z C A B./ ",
"H : S D C C C D Z ' A A A C b.O c c M M ] / j.( C ` A S A Y ! E S t G 6.r. X&.6.o . k.Z 5.L P U z S m M D N J V C D B./ ",
"F < Z C C C C D Y A Y A ' m.m d c ,.j 4.2.D.F.9.8.0.8.9.2.<.oX%.0.0.*.;.|.r. X3.o + D 3.5.D.3.U 6 J b S N D S J D B B.) ",
"F < S C C C C C D A A ' m.Q >.*.f.-.i.Q.AXmX'.;X9X:X4X>X{.MXH.^.7X'.'.8XH.~.1.I   o 3.2. X-.! Z 8 U S G D D C S C B B.) ",
"G 4 D D J u C C D D Y M.D ! -.`.CXAXZXvX0XwXsXtXwXdXsXNXAX+.K.,XkXeXhX6X_.r.L !   = 9.|.H.|.,.C 7 W V S D C C V C C B.) ",
"V J D ( C C C V V J C.D S ,.Q.>X:X0XrXuXrXeXdXfX4XmXCXh p f W.;XsXgXrX$XH.|.,.T o - XXH.9X>X<.Z S S S S D D C C C j.B./ ",
"G t Y s.z.m.m.A.Z.Z.N H W 7.MX:XwXtXfX1X#XBXmXAXDXX.- o o - g J.Y.5XVX>X|.p.L j = a MX,XdX;Xw.S D D g.g.j.m.C.b.n.m.( / ",
"G G Y ' S J N C u K u J Z 8.(.uXjX#XW.X.f p i - = =       = - - i p i i i = o o - h (.sXgX3X=.V V J V H J N N J C D B / ",
"r K Z R V V [ C K u K n S q.:XiXyX-Xh s p p i i - s ; i h p f a i a p p p i i p h J.nXgXpX3X5.V D M Q S N [ C V ( D ` 9 ",
"K r 1 : X $ 7 3 * r V D Y <.<XpXpX9Xp ; _.<X&X;X7X(.0X0X&X-X@X,X-X*X0X:X3X&X7X7X7X6X$XtXwX'.5.K D S $ . * 3 e z 3 D D ( ",
"n X z R S K B D K V J D N w.,XpXiXU.i a ;XuXpXuXeXzXaXpXzXeXxXlXlXrXiXpXiXgXeXaXtXjXrXfX-XQ.>.n N : n W N D N S Q A / / ",
"K O Z Y V G D D Z Q Y d.C 1.0XlXyX-Xp p NXgXtXiXbXaXxXyXrXaXxXeXyXeXxXeXuXtXzXxXeXuXfX2X`.;.E Q : N W m S D S S S 9 z.A ",
"F O U S V S D % 7 Z A j.^ <.-XyXuX^.p p 3XdXgXrXsX,X,X0X=X=X&X3X-X7X-X;X3X;X-X=X<X:X>X!.-.L ! X S V H S V S V S D A z./ ",
"F $ D V K V % b V j.A k.A 7.&XiXeX(.p i NXdXdX;Xi.8.8.0.-.0.0.0.7.*.<.7.7.0.0.7.7.w.1.1.6.M > V S D S S S S S C C C z.D ",
"H > J V S V 6 D m.z.C N.( 7.;XuXrXU.p a ZX%XfX>X7.S S m S K S V H H K S S S G S Z Q V Z S t b D A D A S S D V S D D c.D ",
"n < Z V S J D s.S Z y N.D 7.;XuXrXU.p i ZXdXwX=X7.U S : : X # $ # # # % $ > : 3 5 6 6 6 e N V J S D S S S K D V C V V.D ",
"S 6 J V V S Z J D _ ) N.A w.-XeXrXU.p i ZXsXtX>X7.S 1 : n m H S S S H S S H S D S S S S Z J J S D D S D S V V J D D v.( ",
"V 6 G J G J S D D N y B.Z 7.<XuXuX^.i i mXcXbX'.7.U X n Q J Q V H S S S S S V V Q Z D S Z S Z N S D S S D S C V D D m.( ",
"Q 6 S G V V Z n V J ` N.D 8.=XrXtX^.p p ZXrX%X3X<.S $ W H b Z S V V S D D J J U S N V J J J J D D D D D S S V D C C m.D ",
"n : N V V J J D Z _ y ..V q.-XyXjXK.i p =XtXbX=Xw.Z $ S S J J D D S S S Z V V V D S N D D V B D D D S S K V D C ( A B.D ",
"Y > D G V C Z D D y ( S.N 7.;XuXwXU.s p NXuXtX=X7.n b D S S V S S D D Z K D S Y D D D D D D D D D V D D Z S C D D D B.D ",
"S 6 D V V G D B D C y S.A 8.9XeXwXK.i p =XrXrX;X<.S 6 S V C D Z D D C D D C V D V D D B D D C D D C C S D C C C D D B.[ ",
"U 7 S C C C ( D D C ^ N.N <.-XrXwXK.i p -XhXyX;X9.S z S D Z J D D V V C D C D C D C C D C ( D C A C C D C C C C B ( v.B ",
"Q V D J V V N D u ^ ..N.} q.-XrXwXI.i i -XrXuX;X8.D N V J N D D C N ( D C ( _ B D y ) ( C C ) C C C C C C C C C ( k.m.( ",
"V V C  ...z.j.B.G.n.N.^ N *.;XeXwXK.i p -XuXeX;X7.Q D D j.{ j.j.k.k.n.B.n.n.n...n.k.n.A.n.n.B.B.N.B.n.m.n.A.N.n.N.v.( A "
};
