/* XPM */
static char *fb3b49169e6747388ed4c8f94f92bae60XMY0KKE4bXaBmMa[] = {
/* columns rows colors chars-per-pixel */
"50 50 253 2 ",
"   c #020204",
".  c #0B0204",
"X  c #000A03",
"o  c #02020A",
"O  c #0C0B08",
"+  c #130C0B",
"@  c #190D0D",
"#  c #0C1307",
"$  c #1C130D",
"%  c #13150F",
"&  c #01031B",
"*  c #070A18",
"=  c #120B14",
"-  c #160D17",
";  c #161413",
":  c #1C1413",
">  c #1C1915",
",  c #1D121A",
"<  c #1D1C1A",
"1  c #14171C",
"2  c #0F1F1D",
"3  c #211615",
"4  c #251A15",
"5  c #2A1B15",
"6  c #251C1A",
"7  c #291D1C",
"8  c #25161A",
"9  c #311A1D",
"0  c #1B2A18",
"q  c #25221E",
"w  c #2B221E",
"e  c #24291C",
"r  c #2D291D",
"t  c #292615",
"y  c #342C1E",
"u  c #37281B",
"i  c #33311C",
"p  c #312A0D",
"a  c #010225",
"s  c #00033D",
"d  c #081536",
"f  c #1A1D37",
"g  c #130F22",
"h  c #2C1C24",
"j  c #2A1D2A",
"k  c #251922",
"l  c #311E22",
"z  c #351C2C",
"x  c #2F1B36",
"c  c #1B292E",
"v  c #262523",
"b  c #2C2423",
"n  c #2D2A25",
"m  c #2E2D2A",
"M  c #2C2429",
"N  c #332624",
"B  c #3C2625",
"V  c #342B25",
"C  c #3A2A26",
"Z  c #34252A",
"A  c #352C2A",
"S  c #3A2C2A",
"D  c #3B242D",
"F  c #2E3024",
"G  c #333123",
"H  c #35302C",
"J  c #3A312D",
"K  c #393127",
"L  c #2B2C35",
"P  c #342533",
"I  c #3B2634",
"U  c #342C32",
"Y  c #3A2C32",
"T  c #352B3A",
"R  c #3C2D3B",
"E  c #36273C",
"W  c #2E3133",
"Q  c #343132",
"!  c #3D3231",
"~  c #373538",
"^  c #42281A",
"/  c #432A24",
"(  c #422C2B",
")  c #43262A",
"_  c #44332D",
"`  c #4B3529",
"'  c #422634",
"]  c #442B35",
"[  c #443433",
"{  c #4A3334",
"}  c #4C3C3C",
"|  c #483938",
" . c #533C37",
".. c #4D403D",
"X. c #54423D",
"o. c #5B463B",
"O. c #624C37",
"+. c #000343",
"@. c #00024A",
"#. c #171C48",
"$. c #020757",
"%. c #0C1E54",
"&. c #071F55",
"*. c #111D55",
"=. c #09234B",
"-. c #16294D",
";. c #062355",
":. c #0B2454",
">. c #0A215A",
",. c #042554",
"<. c #112456",
"1. c #182B59",
"2. c #1B3256",
"3. c #282A45",
"4. c #322C44",
"5. c #382845",
"6. c #26324B",
"7. c #293241",
"8. c #383549",
"9. c #22345B",
"0. c #283857",
"q. c #373855",
"w. c #322B58",
"e. c #132562",
"r. c #1A3368",
"t. c #192774",
"y. c #152B74",
"u. c #1B2E71",
"i. c #16357D",
"p. c #082762",
"a. c #2C3B6C",
"s. c #2A3A65",
"d. c #323B65",
"f. c #323B69",
"g. c #2C3C72",
"h. c #25377C",
"j. c #2B3672",
"k. c #071975",
"l. c #4A3948",
"z. c #5A3D4B",
"x. c #402C42",
"c. c #324457",
"v. c #2A426B",
"b. c #384966",
"n. c #2D4076",
"m. c #314373",
"M. c #3D4174",
"N. c #3F5179",
"B. c #4C4241",
"V. c #544443",
"C. c #5D4B45",
"Z. c #5D4C4B",
"A. c #574646",
"S. c #5E5251",
"D. c #5D594F",
"F. c #614C4B",
"G. c #664A47",
"H. c #65524E",
"J. c #6A584C",
"K. c #74584C",
"L. c #6C5D5A",
"P. c #695755",
"I. c #755B54",
"U. c #725E5A",
"Y. c #795E56",
"T. c #694A50",
"R. c #776258",
"E. c #686255",
"W. c #414265",
"Q. c #1B3486",
"!. c #143391",
"~. c #233B89",
"^. c #363C97",
"/. c #323A8F",
"(. c #083AB7",
"). c #183CAE",
"_. c #1B488A",
"`. c #1E4B90",
"'. c #26438E",
"]. c #234887",
"[. c #364789",
"{. c #3F5485",
"}. c #2D4898",
"|. c #314898",
" X c #28519A",
".X c #2F5294",
"XX c #184AAD",
"oX c #1D57BD",
"OX c #0C42B2",
"+X c #2946A6",
"@X c #2851B8",
"#X c #2949B0",
"$X c #475488",
"%X c #4F5C8F",
"&X c #55639B",
"*X c #59679F",
"=X c #4F619A",
"-X c #566BA0",
";X c #6177B1",
":X c #023ECB",
">X c #013AC2",
",X c #043DD2",
"<X c #0243CD",
"1X c #124AC3",
"2X c #164ECA",
"3X c #1857C8",
"4X c #0243D4",
"5X c #0947D6",
"6X c #1B57D6",
"7X c #324BCA",
"8X c #2A5CCC",
"9X c #2A56CB",
"0X c #245BDA",
"qX c #2759D4",
"wX c #1965DF",
"eX c #3466CC",
"rX c #3D6BD8",
"tX c #396DD5",
"yX c #0F58EC",
"uX c #1C5BE5",
"iX c #155DEC",
"pX c #1B5CEC",
"aX c #1557E5",
"sX c #155DF3",
"dX c #1B5CF3",
"fX c #145CFB",
"gX c #1B5AFB",
"hX c #1B55F9",
"jX c #104EEF",
"kX c #215BE6",
"lX c #235BEB",
"zX c #225AF9",
"xX c #2356F6",
"cX c #3254E4",
"vX c #0D63E9",
"bX c #1361E4",
"nX c #1461EC",
"mX c #1B64E6",
"MX c #0A63F3",
"NX c #1461F3",
"BX c #1961F3",
"VX c #1561FA",
"CX c #2867EB",
"ZX c #376BE7",
"AX c #2864F5",
"SX c #316BF7",
"DX c #2875FB",
"FX c #3675FC",
"GX c #3472EE",
"HX c #486DD2",
"JX c #5275E8",
"KX c #4571E7",
"LX c #6898FF",
/* pixels */
"7 7 8 7 6 6 q < t q 4 6 6 5 5 7 f i.(.,X1.+.~.1X<Xr.#.9 9 8 9 5 4 4 5 5 5 5 6 6 6 8 6 6 7 7 8 7 6 7 ",
"7 8 : : : : : > > : > : 3 4 5 k f Q.(.,X<.s ~.1X4Xu.#.7 3 3 : : : : $ : 3 $ : : 4 4 3 : @ : 3 3 6 7 ",
"3 + @ : : : $ : : 3 3 : 3 3 4 h f i.).4X<.s '.1X4Xi.*.+ O ; ; ; > : , , : , ; : 3 3 3 : $ 3 3 4 7 8 ",
"@ + 3 7 6 6 6 6 6 6 6 q 6 5 7 b f i.(.:X:.+.Q.1X4XQ.*.= ; 6 7 8 8 7 7 7 7 7 7 8 7 6 6 6 6 8 7 q b 7 ",
"> + < 6 6 7 b 7 7 8 6 6 8 8 7 N f i.OX<X<.s '.1X,X~.*.= , , 6 6 w 9 7 6 7 7 6 6 7 6 6 6 6 6 8 6 N 7 ",
"6 ; N N N N N N N N N N N N V ! 3.].2XaXe.s =X8XaX'.1.$ 6 V y u u w r N N N Z D N N N N N V N N [ S ",
"< + v 7 l N l 7 9 N w b w w w _ f ~.1X5Xe.+.[.9X,X~.=.$ 4 w 6 N w w q w 7 u l l b w w b w b b w ! N ",
"e > A A S D S S S S S A V C K X.4. X0XdXt.+.&XKX6X.X2.t r K P I I S ( u B B ) S A A S S A S S S B.[ ",
"v : A A N S A S N S A A S S C o.4.|.0XdXt.@.*XZXuX.X2.m n ! I ' ' B B G K V A U A A A S A S A S V.[ ",
"q > m A A A A N A.! N S N V C o.4.+X0XdXt.+.&XHXuX Xr.Q R l.z.T.T.P.R.E.D.~ Q Q S S A V S A C S A.[ ",
"7 > A H A n q ! ! A S A S S K G.4.+X0XnXt.@.&XZXAXXXy.Y B S / B C K A P J { ` ^ V S S S S C S C Z.| ",
"b 3 ! A A 6 v H A A S A S A S o.4.|.0XnXt.@.=XZXgXoX!.m.a.s.d.d.a.a.m.s.6.5.{ ` A V V S S V S S Z.[ ",
"Z b S A H < v A A H A Z S Y P G.4. XqXbXy.@.=XZXgX0XkXsXdXiXnXvXMXVXsX9X#Xj.E { [ K S S C S S C Z.! ",
"V N A H A q b A A J S B / C } T.4.}.qXpXQ.@.$XZXzXuXdXBXsXsXnXnXiXgXfXuX0XXX6.S [ [ C S C S B [ H.[ ",
"C K } B.B.B.B.S.S.A.L.Y.I.Y.J.] 5.'.8XpX!.$.$XKXFXFXFXDXFXVXDXmXAXxXhXBXiXmXd.S S [ H.U.P.R.U.U...S ",
"V V H A A n m U A A C C ( A T u L v.eXhX#X$.o X X   X       .   o & 2.@X8X3Xf.' A A S S S C S S C C ",
"A V q q v ; < M 7 A N B u A U S P {.8XBX6X!.,.,.,.<.%.%.=.=.- g = * & h.}.3Xd.' n b 7 6 N w C C S V ",
"n > 6 v v > < n n b V V N N S z 4.m.oXmXMXMXvXMXfXxXzXhX0XOXf.6.P +   i 6.3Xf.] < q n w n N N V S S ",
"q $ A m A v v Q A A J A N Z k ^ V W  X8XgXgXbXsXsXzXhXsXaX6X].m.D =   ` 8._.6.J % H m m H A S N [ J ",
"v > m Q A v A A A ! A N [ D Y ^ ..i y.#XxXhXpXiXiXzXgXMXdXuX Xr.T = o  .W ].c.F < m m H A S A A } ! ",
"b 6 A A A A M Y A S S } S w V z.( | S U T T U U W A A S i i 7X/.5 O X X.q.^.w.m > H A A A A S S B.[ ",
"b 6 H U S A A A Z A | l.S b ! [ S _ H w M M b v v r V B A V #Xi.t #   G.5.[.q.m % m J A S C C ( A.[ ",
"N 6 A S S Z Z S S S J C N A Y D Y H r t b b h w u p u / I 5.].v.t O   F.x.w.T A 4 ! A A S V S Z A.( ",
"b 3 A A A S A B S S S S S A S A S A V H V C A S S S S ` ! Q 9.7.9 + .  .D P A w n J H S S S S / F.[ ",
"n b H ! S S J J K S S S V S N ! A R Q A G G G A A P S | K A b.7.l @ o O.^ J r P.$ A J V J ( C S Z.[ ",
"q > A A N A V S V C A A A J A G V S B S V A A U Y P I  .| U i A x + . l.P V / ` A A V N N X.C C V.[ ",
"v , A U S V C V C V H A A A U G K S A C C C A U P S S X.~ m m A P =   l.R A C o.q A m N } S C C X._ ",
"v ; S A Y G G G G V T U H A j 1 1 N V G ( C G J [ V C G...m b.7.w +   } U b.l.C M n 1 A J A A S F.{ ",
"v > S A S G C V C S P S i e % 2 1 j V y / / u ^ / C _ G.} ] 0.6.3.* o X.m c.~ B v M < n S A A A F.{ ",
"v < A S S V K K S ( S S r # 0 c W h _ J.K.K.I.R.K.I.I. .( z N.d.l.g o ` H b.8.K h m m A ] A A C F.{ ",
"v < C C C C S I ( ' ( } q k x j U x.V.Y T T A Z S q.c F A Q /.[.w.g   { U 0.4.5.h m n A N K S C F.{ ",
"v 6 C C C S S S Z ' X.l.c 3.3.2.c.L.$Xf.g.g.g.d.b.{.r.v.a.g.|.g.q.- o T 8.v.8.I b A n A S V S B G.] ",
"n q S C C C V S S F.| T v.-X;XHXeXCXmXuXfXsXSXJX!.(.6XsXuXbX].v.W =   q.g.^.8.C b S m C C C V C F._ ",
"F A ( S C S C G V.l.S 6.#XHXZXGXCXiXuXkXcXJX/.9.a XXqXxXdXuX'.m.T 1 o  X}.qXf.A A A H S S V C [ T.{ ",
"V A } z.L.L.R.E.[ S ! f.8X6XuXgXfXDXFXLXHX@.& o o k.).jXSXhX|.r.x * * tX8XhXn.W S [ B.V.L.L.L.L. .( ",
"G A I A S C V i G H U g.gXNXvX#.a   . . .   X o o           .     * d uXhXgXd.i S S W S S V K S B ) ",
"F N z h w V N r V A A g.gXsXNX& d &.*.<.,.,.:.>.%.>.,.,.:.&.%.&.:.>.].pXpXdXv.y A N w 6 S N N C ( B ",
"e ; h w w N N b V S C v.fXgXjXX =.dXsXfXvXNXfXsXiXVXNXiXfXhXlXBXyXbXbXyXiX3X0.n b 6 e w B b N S S ' ",
"e % P V G S S S S l.^ m.VXsXjX  <.zXdXgXNXsXfXiXyXdXsXsXBXsXhXdXNXsXdXlX9X].T H 8 n W V S H A A { ( ",
"0 > Y H G l : N U V.u s.VXnX4X  *.xXxXdXfXfXVXNXnXdXfXsXsXNXxXdXNXVXhXcX).-.~ O A A m A S N A S  .] ",
"b 4 V C V 8 S B._ G.S g.dXpX4X  1.CXuXkXQ A W A H A H A H A V H A A J A H N 8 A Z S S A V A C C  .[ ",
"N q V A A A l.B.( I.S g.sXdX:Xo 9.ZXkXkXU A n v v q w w w b w b b b A b n N N J B S S A A C H S V.[ ",
"b h S V G Y ! Y / I.D a.sXdX:X  2.GXuXlXA b ; < q w w w w w b b N N N N b A A A S S S S A S C S A.[ ",
"M w K G A S S A B Y.A g.sXpX<X  1.SXlXuXQ b < A H A A A A A A A A H A A S A A A S P S A A V C S Z.[ ",
"A b C V V A Z J ( I.A a.sXaX4Xo 2.GXaXAXA b b J n A A A A A S S K S N A S S J S S S S A A S C C Z.| ",
"v 4 V V K S S A B G.A g.dXmX>X  :.pXpXpXA b b A S S S S S V A A A S A S S S C S A S A A G S S S F.[ ",
"n w K V C S S V / R.A g.fXuX>X  <.AXpXpXU b N A S V A S S A S S S S J S Z S S S S C S V C S C C F.{ ",
"Z b C V S S S A ^ Y.Z a.sXaX(.  &.iXpXsXA A N S A S A S V C S C S S C S S / S S C S A C S C C S Z.[ ",
"A N K C C V S C ` K.! g.dXuX(.  &.iXpXdXA A V S B S S B C S C S C C N / S ( C S / C S C C C C { H.{ ",
"A A _ } X.V.P.H.H. .A h.sXuX(.  p.iXsXsXU P C } | X.} X.C.H.H.H.C.C.X.H.J.F.H.T.H.H.H.H.H.J.H.H.o.( "
};
