/* XPM */
static char *eec26ca28f064eb8d5a325a0a01318ceEIeImZyrZYGuCjX6[] = {
/* columns rows colors chars-per-pixel */
"50 50 28 1 ",
"  c None",
". c black",
"X c #181818",
"o c #162029",
"O c #12273D",
"+ c gray23",
"@ c #491D00",
"# c #722D00",
"$ c #16314C",
"% c #354658",
"& c #4A627A",
"* c #A54200",
"= c #BE6F4C",
"- c #DBDB00",
"; c yellow",
": c #E0A272",
"> c #070091",
", c #0C00B5",
"< c #0900BC",
"1 c #29598B",
"2 c #0B00EF",
"3 c gray53",
"4 c gray65",
"5 c gray71",
"6 c #F3C598",
"7 c LightGray",
"8 c gray95",
"9 c white",
/* pixels */
"                    .     ..                      ",
"                   .. ....11.......               ",
"                 ..1..1111O.O111$.                ",
"                 .$O$$11O..1111$.                 ",
"                .11$$11111111$                    ",
"                .11111111111$O...                 ",
"                .11111111111$OOOO.                ",
"               ..111111111111$OOOO.               ",
"              .O$$$11111111111$OO.                ",
"             ..OOO$11111111OO....                 ",
"               .$O1111$$111$$$$$$.                ",
"               .$O11$$6$$11$OOO$$$..              ",
"               .OO11$666$$1$OO$$$.                ",
"               .OOO1$666:$$$O$$O.                 ",
"               ...O.$66::.$$.$$$.                 ",
"               . ....=..88$..OO$..                ",
"                  .:66:+88.=..OO....              ",
"                  .666666:.=...O.                 ",
"                   .6666:=..2..O.                 ",
"                  .2.::=...,...O.                 ",
"                  .99....,,999.O.                 ",
"                  .99,,.,,999..OO.                ",
"                  .94,.,,4999,<.O.                ",
"           .     ..999,99999.,>....               ",
"          .9.   .2..94,4499,...<.o...             ",
"          ..7...22..4944,,,44...oo.79.            ",
"         .9..7.o.<<.;;;;-,44.  .o.5...            ",
"         ....79.o.>.,---,,4.   ..79755.           ",
"           ...7.....,,,,,33.    .575.5.           ",
"          .7....   .3333333.   .7...77.           ",
"          ..7.     .........    ..97..            ",
"            .      .o.%.ooo.      ..              ",
"                   .o.%.%%oo.                     ",
"                   .%o.%&&%o.                     ",
"                  .%%o.&&&&%.                     ",
"                  .%%o.&&&&%.                     ",
"                  .%%o.&&&&oo.                    ",
"                  .%oo.%&&%oo.                    ",
"                  .oooo.ooooo.                    ",
"                  .%ooo.ooooo%.                   ",
"                  .%%oo.oooo%%.                   ",
"                  .o%%o..%%%%%.                   ",
"                  .ooo...&&&&%.                   ",
"                   .......&&...                   ",
"                   .#@@.....@@.                   ",
"                   .*#@. .###@.                   ",
"                   .**X  .#*#@.                   ",
"                    XX    X**#.                   ",
"                          X**X                    ",
"                           XX                     "
};
