/* XPM */
static char *d6d57b19948b42fae28bd21276a83f94jfuDj01aCSHnPuaa[] = {
/* columns rows colors chars-per-pixel */
"50 50 182 2 ",
"   c None",
".  c gray8",
"X  c #2E0715",
"o  c #271319",
"O  c #34131C",
"+  c #391517",
"@  c #571616",
"#  c #611616",
"$  c #681C17",
"%  c #661C1B",
"&  c #691F1D",
"*  c #671519",
"=  c #741B1B",
"-  c #6D201F",
";  c #732E1E",
":  c #7B2F1B",
">  c #4F0F26",
",  c #411022",
"<  c #5A1622",
"1  c #6D1823",
"2  c #5C2022",
"3  c #6E2520",
"4  c #772926",
"5  c #7B2C2A",
"6  c #782827",
"7  c #743321",
"8  c #7A3424",
"9  c #7A352C",
"0  c #76393C",
"q  c #4A6B03",
"w  c #537A00",
"e  c #726F63",
"r  c #8B3E1F",
"t  c #85381D",
"y  c #92122E",
"u  c #8D122D",
"i  c #922A2D",
"p  c #83332B",
"a  c #8C3936",
"s  c #873732",
"d  c #8B312A",
"f  c #B52134",
"g  c #C03236",
"h  c #CD2B39",
"j  c #8F411F",
"k  c #904422",
"l  c #944923",
"z  c #954A28",
"x  c #9F5124",
"c  c #8C4336",
"v  c #8D4A3A",
"b  c #94403C",
"n  c #9D5730",
"m  c #975933",
"M  c #8E4024",
"N  c #B6492F",
"B  c #AB5B27",
"V  c #AA5836",
"C  c #B35E3C",
"Z  c #B56527",
"A  c #AC6332",
"S  c #AD6839",
"D  c #B86D30",
"F  c #A26A28",
"G  c #D75735",
"H  c #F1513D",
"J  c #CE7D2C",
"K  c #CD793B",
"L  c #C87637",
"P  c #D37F38",
"I  c #CA6E3E",
"U  c #EE603A",
"Y  c #B22E43",
"T  c #C13F43",
"R  c #F43B40",
"E  c #944644",
"W  c #9A4440",
"Q  c #955341",
"!  c #9C5A45",
"~  c #A24A45",
"^  c #A74F4A",
"/  c #B14C49",
"(  c #AB5348",
")  c #9C6143",
"_  c #9B634C",
"`  c #9A685C",
"'  c #9D6955",
"]  c #967B5A",
"[  c #AF6D43",
"{  c #A6694E",
"}  c #A0624A",
"|  c #BE6841",
" . c #B6774B",
".. c #A86853",
"X. c #A97258",
"o. c #B87C54",
"O. c #A07164",
"+. c #AA7662",
"@. c #B77460",
"#. c #CC4454",
"$. c #C3565B",
"%. c #DB4B56",
"&. c #F54C51",
"*. c #F6565C",
"=. c #C06A40",
"-. c #C37A62",
";. c #C07E72",
":. c #F76A70",
">. c #708C4B",
",. c #D9872F",
"<. c #D98536",
"1. c #E18E30",
"2. c #E78733",
"3. c #E59231",
"4. c #E7993E",
"5. c #B4825E",
"6. c #91AA5C",
"7. c #99866B",
"8. c #BB8362",
"9. c #AD8373",
"0. c #ABBB6F",
"q. c #CB854C",
"w. c #DB904F",
"e. c #DC9856",
"r. c #E79B42",
"t. c #E9A14C",
"y. c #E9A452",
"u. c #EAA854",
"i. c #EAA759",
"p. c #EBAA5C",
"a. c #E5A155",
"s. c #D49D6B",
"d. c #D49367",
"f. c #D49471",
"g. c #CC9A7E",
"h. c #D9A678",
"j. c #ECAE65",
"k. c #EDB265",
"l. c #EFB86F",
"z. c #EEB76E",
"x. c #EDBA7F",
"c. c #F0BF7B",
"v. c #F1C17F",
"b. c #9F9B88",
"n. c #BCA68F",
"m. c #9EA9BC",
"M. c #C1A18D",
"N. c #DCB48D",
"B. c #CDB59D",
"V. c #E4B281",
"C. c #EDBC87",
"Z. c #E2B58B",
"A. c #C8D197",
"S. c #D1CA90",
"D. c #F1C282",
"F. c #F1C28B",
"G. c #F4CA8C",
"H. c #F2C792",
"J. c #F3CB90",
"K. c #F4CC9A",
"L. c #F6D59E",
"P. c #ECC394",
"I. c #D1C1A6",
"U. c #F2CEA0",
"Y. c #F6D4A4",
"T. c #F7D9AB",
"R. c #F6D9AA",
"E. c #E6D3B9",
"W. c #F8DDB2",
"Q. c #FAE5BC",
"!. c #F7E1B9",
"~. c #BBC7DD",
"^. c #F0DCC1",
"/. c #FBEAC4",
"(. c #FCEECA",
"). c #F2E0C4",
"_. c #FDF2CE",
"`. c #FFF9D9",
"'. c #FAF2D3",
"]. c #FFFCE9",
"[. c white",
"{. c #FFFDF0",
/* pixels */
"                                                                                                    ",
"                                                                                                    ",
"                                                                                                    ",
"                                                                                                    ",
"                                    n n n n n L 3.3.3.3.3.3.3.3.D n n                               ",
"                                  A A A S [ [ q.u.u.u.u.u.u.u.u.q.[ S                               ",
"                              n n D 3.3.u.F.F.W.`.`.`.`.`.`.`.`.T.F.F.o.n n                         ",
"                        n n  .s.s.V.L.L.T.Q.Q._.`.`.`.`.`.`.`.`._.Q.Q.Z.s.s. .n n                   ",
"                        n n o.F.F.R.`.`.`.`.`.`.`.`.`.`.`.`.`.`.`.`.`.R.C.F. .n n                   ",
"                  n n D 3.3.z.`.`.`.`.`.`.`.`.`.`.`.`.`.`.`.`.`.`.`.`.`.`.`.k.3.3.                  ",
"                  z z S y.t.D.`.`.`.`.`.`.`.`.`.`.`.`.`.`.`.`.`.`.`.`.`.`.`.j.3.3.                  ",
"                  7 7 ) F.F.Y.`.`.`.`.`.`.`.`.`.`.`.`.`.`.`.`.`.`.`.`.`.`.`.z.3.3.                  ",
"                  7 7 ) F.F.Y.`.`.`.`.`.`.`.`.`.`.`.`.`.`.`.`.`.`.`.`.`.`.`.5.l l                   ",
"                  7 7 ) F.F.Y.`.`.`.`.`.`.`.`.`.`.`.`.`.`.`.`.`.`.`.`.`.`.`.] 8 7                   ",
"                  # # r 3.3.t.F.F.T.`.`.`.`.`.`.`.`.`.`.`.`.`.`.`.`.`.R.C.F.v # #                   ",
"                  # # p K L q.f.f.Z.!.!./.`.`.`.`.`.`.`.`.`.`.`.I.b.b.7.] ] m l l :                 ",
"                  # # 6 ^ ^ ^ ^ ^ -.F.F.T.`.`.`.`.`.`.`.`.`.`.`.e . . . . . F ,.,.t @ #             ",
"                  # # v V.V.P.).^.F.4.r.D.`.`.`.`.`.`.`.`.G.t.t.n.m.m.>.q q S./.!._ ; ;             ",
"                  # # v C.C.U._._.J.4.3.D.`.`.`.`.`.`.`.`.D.4.4.B.~.~.>.w w A.`.`.` 7 8             ",
"                  # * 6 ^ ^ S 3.3.u.F.F.T.`.`.`.`.`.`.`.`.`.`.`.{.[.[.6.w w A.'.'.8.^ (             ",
"                      4 c c V 3.3.r.p.p.C.W.W./.`.`.`.`.`.`.`.`.].].].A.0.0.U.W.R...p s             ",
"                        7 7 B 3.3.3.3.3.i.F.C.W.`.`.`.`.`.`.`.`.`.`.`.`.`.`.Y.F.Z.c # #             ",
"                              $ $ $ $ $ B 3.3.j.F.F.!.`.`.`.`.`.`.`.`.R.P.G.Q & -                   ",
"                              # # % & 3 l J J e.F.F.Y.Q.Q./.).E.E.E.E.N.h.h.v # @                   ",
"                                    ^ ^ a # # { F.F.p.3.3.I ^ ^ 5 # # # # #                         ",
"                              # # ! f.f.g.M.M.I.Q.Q.J.j.j.w.K K V a a 6                             ",
"                              # # ! F.F.T.`.`.`.`.`.W.F.F.i.3.3.=.^ ^                               ",
"                              # # O.`.`.`.`.`.`.`.`.`.`.`.`.`.`.R.F.F.-.^ ^                         ",
"                            6 # # O.`.`.`.`.`._././._.`.`.`.`.`.!.L.U.@.b b                         ",
"                        ^ ^ a # # O.`.`.`.`.`.W.F.F.W.`.`.`.`.`.`.`.`.` # *                         ",
"                  # # k <.P B # # ! Y.Y.!.`.`._././.J.k.k.Y.`.`.`.`.`.` # #                         ",
"                  # # p 3.3.Z # # ! F.F.R.`.`.`.`.`.D.3.3.J.`.`.`.`.`.` # #                         ",
"                  # # d 3.3.Z # # # # # ( F.C.W.`.`.`.`.`.v.3.3.I ^ ^ 5 # #                         ",
"                  # # t Z Z l # # & 5 5 Q 8.8.N.Q.Q.(.`.`.L.z.z.d.@.-.s # #                         ",
"                        # $ # # * p ^ ^ s @ # ..F.F.W.`.`.`.`.`.Y.P.F.m # #                         ",
"                              b b C <.<.w.h.s.X.9 9 8.K.K.K.K.J.j.r.r.z # #                         ",
"                              ^ ^ D 4.4.p.F.F.X.- - X.C.C.C.C.C.a.1.1.r # #                         ",
"                              # # ! C.F.T.`.`.`.`.`.9.# # # # # # # # # # #                         ",
"                              # # _ W.!./.`.`./.!.W.+.# # t x x x x B ; # #                         ",
"                              # # O.`.`.`.`.`.!.F.F.{ @ # B 3.3.3.3.1.j # #                         ",
"                        # # j ,.<.a.H.H.H.H.J.o.3 3 s ~ W ^ ( ( K 3.3.k # #                         ",
"                        - = x 3.3.y.C.c.x.h.h.) @ @ 9 Q E ^ / / I 2.2.r * *                         ",
"                  X X 1 R R H 3.3.3.1.1.B # # + . . . . . i R R R R R f y y , . .                   ",
"                  X X 1 R R H U U G N N p + + o . . . . . i R R &.*.*.%.#.#.p < < O . .             ",
"                  X X 1 R R R R R h y y < . . . . . . . . i R R *.:.:.:.:.:.Y y u O . .             ",
"                  . . 2 R R &.:.:.:.:.:.E . . . . . . . . O > > < > > > > > o . . . . .             ",
"                  . . < g g T $.$.$.$.$.0 . . . . . . . . O , , , , , , , , o . . . . .             ",
"                        . . . . . . . . . . . . . . . . . . . . . . . . . . . . .                   ",
"                                  . . . . . . . . . . . . . . . . . . .                             ",
"                                    . . . . . . . . . . . . . . . . .                               "
};
