/* XPM */
static char *c101fb63eaf74e73842d6b13a601eec5dCvaqfFawptr5tWW[] = {
/* columns rows colors chars-per-pixel */
"50 50 253 2 ",
"   c None",
".  c gray8",
"X  c #1D1317",
"o  c #211318",
"O  c #261319",
"+  c #27121A",
"@  c #2D121C",
"#  c #3F1515",
"$  c #33111D",
"%  c #35111E",
"&  c #37111F",
"*  c #38121B",
"=  c #3C131C",
"-  c #3D1A1C",
";  c #3D1121",
":  c #41131D",
">  c #611616",
",  c #671F19",
"<  c #40291D",
"1  c #572F1F",
"2  c #50371D",
"3  c #573C1D",
"4  c #732A1E",
"5  c #772D1F",
"6  c #7B2F1B",
"7  c #4F0F26",
"8  c #481121",
"9  c #481122",
"0  c #541121",
"q  c #551322",
"w  c #631028",
"e  c #74112A",
"r  c #77112B",
"t  c #7B1E29",
"y  c #622722",
"u  c #752625",
"i  c #772826",
"p  c #772827",
"a  c #7A2A29",
"s  c #7A2B29",
"d  c #7D2D2B",
"f  c #613A24",
"g  c #743321",
"h  c #7D3525",
"j  c #663335",
"k  c #674240",
"l  c #69675B",
"z  c #81341C",
"x  c #82351D",
"c  c #86391E",
"v  c #883B1E",
"b  c #893B1E",
"n  c #8A3D1E",
"m  c #8B3E1F",
"M  c #92122E",
"N  c #95272F",
"B  c #853D26",
"V  c #893E22",
"C  c #833C2C",
"Z  c #833F32",
"A  c #913D39",
"S  c #923E3A",
"D  c #AB382F",
"F  c #C92938",
"G  c #8C4227",
"H  c #8B4328",
"J  c #8B4428",
"K  c #88422F",
"L  c #904320",
"P  c #914320",
"I  c #964821",
"U  c #924829",
"Y  c #815523",
"T  c #894637",
"R  c #80433D",
"E  c #8D4C39",
"W  c #8F4D3B",
"Q  c #934F36",
"!  c #9D4A34",
"~  c #9D5730",
"^  c #93533E",
"/  c #975B3F",
"(  c #A9553A",
")  c #AC573A",
"_  c #B05C37",
"`  c #B56527",
"'  c #B4682D",
"]  c #BB6A28",
"[  c #BD6D29",
"{  c #AF6630",
"}  c #B16730",
"|  c #B36037",
" . c #B16830",
".. c #B46A30",
"X. c #BA6F30",
"o. c #C26D3F",
"O. c #C07330",
"+. c #C77434",
"@. c #C87A31",
"#. c #CE7F31",
"$. c #CB7D34",
"%. c #C7723D",
"&. c #C6703E",
"*. c #CA753C",
"=. c #CF7A3A",
"-. c #D07B39",
";. c #D27D39",
":. c #D27E39",
">. c #D47F38",
",. c #F43B40",
"<. c #8D554C",
"1. c #955440",
"2. c #A74F4A",
"3. c #AA5249",
"4. c #856744",
"5. c #9C6143",
"6. c #876E52",
"7. c #9A6352",
"8. c #986254",
"9. c #9A685C",
"0. c #AC6B41",
"q. c #AD6C42",
"w. c #B76141",
"e. c #B86242",
"r. c #B86243",
"t. c #BA6343",
"y. c #BB6442",
"u. c #BB6643",
"i. c #BD6741",
"p. c #B27045",
"a. c #B6774B",
"s. c #B8794D",
"d. c #B27A55",
"f. c #BB7D51",
"g. c #BB7E51",
"h. c #BD715D",
"j. c #B47E58",
"k. c #D65A52",
"l. c #F6575D",
"z. c #C06A40",
"x. c #C87F45",
"c. c #F7746E",
"v. c #F76A70",
"b. c #D5832E",
"n. c #DA882F",
"m. c #CF8031",
"M. c #E08D30",
"N. c #E28F32",
"B. c #E29031",
"V. c #E39032",
"C. c #E59231",
"Z. c #E59334",
"A. c #E59435",
"S. c #E6973A",
"D. c #E6973B",
"F. c #BF8254",
"G. c #B8845F",
"H. c #C98148",
"J. c #DB8F49",
"K. c #DD934F",
"L. c #CC8E55",
"P. c #D08E5F",
"I. c #DE9651",
"U. c #DF9A58",
"Y. c #DF9A5B",
"T. c #DC9E5A",
"R. c #DDA25F",
"E. c #E8A04C",
"W. c #E9A04C",
"Q. c #E9A14E",
"!. c #E9A24E",
"~. c #E9A351",
"^. c #EAA555",
"/. c #EAA654",
"(. c #EAA759",
"). c #EBA95C",
"_. c #EBAA5E",
"`. c #ECAD5E",
"'. c #CD986B",
"]. c #D89561",
"[. c #D99D76",
"{. c #DFA665",
"}. c #DBA078",
"|. c #ECAC63",
" X c #ECAD63",
".X c #ECAE65",
"XX c #ECAF67",
"oX c #E2A769",
"OX c #E8AD6C",
"+X c #EDB163",
"@X c #EDB367",
"#X c #EDB36E",
"$X c #EEB76E",
"%X c #EDB470",
"&X c #EEB572",
"*X c #EEB673",
"=X c #EFBB74",
"-X c #F0BD7A",
";X c #F0BE7D",
":X c #F1C07F",
">X c #F98882",
",X c #F9958F",
"<X c #D5A794",
"1X c #DFB89E",
"2X c #E5B482",
"3X c #EBBB86",
"4X c #ECBC87",
"5X c #F2C484",
"6X c #F1C28B",
"7X c #F2C48E",
"8X c #F4CC8F",
"9X c #F2C691",
"0X c #F2C792",
"qX c #F3C991",
"wX c #F3C893",
"eX c #F3CB94",
"rX c #DEC2A0",
"tX c #E2C8A6",
"yX c #F5D2A2",
"uX c #F5D3A2",
"iX c #F5D4A4",
"pX c #F6D6A7",
"aX c #F7D8A3",
"sX c #F7D8AA",
"dX c #F7DAAB",
"fX c #F7DAAD",
"gX c #EAD6B5",
"hX c #F8DCB0",
"jX c #F8DFB4",
"kX c #F9E2B3",
"lX c #F9E0B6",
"zX c #F9E1B7",
"xX c #F9E2B8",
"cX c #FAE3BA",
"vX c #FAE5BD",
"bX c #FAE7BF",
"nX c #ECDEC1",
"mX c #FBE8C1",
"MX c #FBE8C2",
"NX c #FBE9C2",
"BX c #FBEAC3",
"VX c #FCECC6",
"CX c #F7ECCB",
"ZX c #FCEECA",
"AX c #FCEFCB",
"SX c #FDF1CE",
"DX c #FDF2CF",
"FX c #F9F0D1",
"GX c #F9F1D1",
"HX c #FBF2D2",
"JX c #FEF5D3",
"KX c #FEF7D7",
"LX c #FFF9D9",
/* pixels */
"                                                                                                    ",
"                                                                                                    ",
"                                                                                                    ",
"                                    ~ ~ ~ ~ ~ O.C.C.C.C.C.C.C.C.X.~ ~                               ",
"                                    ~ ~ ~ ~ ~ O.C.C.C.C.C.C.C.C.X.~ ~                               ",
"                              ~ ~ X.C.C.(.6X6XhXLXLXLXLXLXLXLXLXsX6X6Xg.~ ~                         ",
"                            q.a.a.L.+X+X:XyXuXvXLXLXLXLXLXLXLXLXxXuXyX'.a.a.0.                      ",
"                        ~ ~ g.6X6XsXLXLXLXLXLXLXLXLXLXLXLXLXLXLXLXLXLXpX6X6Xa.~ ~                   ",
"                  ~ ~  .m.m.{.NXNXSXLXLXLXLXLXLXLXLXLXLXLXLXLXLXLXLXLXAXMXMX{.#.m.{ ~ ~             ",
"                  ~ ~ ..C.C.$XLXKXLXLXLXLXLXLXLXLXLXLXLXLXLXLXLXLXLXLXLXLXLX@XC.M.{ ~ (             ",
"                  g g 5.6X6XpXLXLXLXLXLXLXLXLXLXLXLXLXLXLXLXLXLXLXLXLXLXLXLXiX6X3X/ g g             ",
"                  g g 5.6X6XpXLXLXLXLXLXLXLXLXLXLXLXLXLXLXLXLXLXLXLXLXLXLXLXiX6X3X/ g g             ",
"                  g g 5.6X6XpXLXLXLXLXLXLXLXLXLXLXLXLXLXLXLXLXLXLXLXLXLXLXLXiX6X5X/ g g             ",
"                  , , ^ 6X6XwXyXyXzXLXLXLXLXLXLXLXLXLXLXLXLXLXLXLXLXLXkXuXuX0X6X3XE , ,             ",
"                  > > W 6X6X6X6X6XsXLXLXLXLXLXLXLXLXLXLXLXLXLXLXLXLXLXpX6X6X6X6X3XT > >             ",
"            > > T 3X6X#XC.C.~.6X6X6X6X6X6X6X6X6X6X6X6X6X6X6X6X6X6X6X6X6X6X6XE.C.Z.%X6X2XZ > >       ",
"            > > K OX%X).C.C.~.6X6X6X6X6X6X6X6X6X6X6X6X6X6X6X6X6X6X6X6X6X6X6XE.C.Z.|.#XoXC > >       ",
"            > > c M.C.C.C.C.~.6X6X6X6X6X6X6X6X6X6X6X6X6X6X6X6X6X6X6X6X6X6X6XE.C.C.C.C.n.x > >       ",
"                  t.t.%.C.C.D.W.W..X6X6X6X6X6X6X6X6X6X6X6X6X6X6X6X6X6X|.E.E.D.C.N.o.t.w.            ",
"                  2.2.y.C.C.C.C.C./.6X6X6X6X6X6X6X6X6X6X6X6X6X6X6X6X6X~.C.C.C.C.N.t.2.2.            ",
"                  > > > > > s 2.2.z.C.C.(.6X6X6X6X6X6X6X6X6X6X6X^.C.C.i.2.2.p > > > > >             ",
"                  > > > > > i S S ) :.:.I.%X%X%X%X%X%X%X%X%X%X%XI.:.:.( S S u > > > > >             ",
"                              > > d 2.2.z.C.C.C.C.C.C.C.C.C.C.C.z.3.2.s > >                         ",
"                        > > n [ [ H.}.}.U.C.C.:.t.t.t.t.t.:.C.C.Y.}.[.x.[ [ c > >                   ",
"                        > > P C.C./.6X6X|.C.C.%.2.2.2.2.2.*.C.C..X6X6X~.C.C.V > >                   ",
"                  > > W 6X6XpXLXLXLXLXLXLXLXLXkX6X6X6X6X6XzXLXLXLXLXLXLXLXLXLXLXHX<.> >             ",
"                  > > W 6X6XpXLXLXLXLXLXLXLXLXbXyXuXuXuXyXNXLXLXLXLXLXLXLXLXLXLXHX7.u 4             ",
"                  > > W 6X6XpXLXLXLXLXLXLXLXLXLXLXLXLXLXLXLXLXLXLXLXLXLXLXLXLXLXHXG.~ ~             ",
"            > > x [ [ $.E.E./.+X+X;XyXyXcXLXLXLXLXLXLXLXLXLXLXLXcXyXyX-X+X+XkXLXKXgXtXrXd.~ ~       ",
"            > > x M.C.C.C.C.C.C.C./.6X6XfXLXLXLXLXLXLXLXLXLXLXLXsX6X6X~.C.C.aXLXLXLXLXCXj.~ ~       ",
"            > > x M.C.C.C.C.=.2.3.z.C.C.(.6X6X6X6X6X6X6X6X6X6X6X^.C.N.i.2.2.[.6X7XBXLXLXLXLXnXR > > ",
"            > > V M.C.C.C.C.+.S S _ C.C.(.6X6X6X6X6X6X6X6X6X6X6X^.C.C._ S T P.%X*XsXNXNXJXLXnXR > > ",
"            > > c M.C.C.C.C.` > > I C.C.(.6X6X6X6X6X6X6X6X6X6X6X/.C.C.L > > ] C.Z.%X6X0XZXLXnXR > > ",
"                  v v v v v V J J p.%X%XeXNXNXNXNXNXNXNXNXNXNXNXwX#X$XQ > > ! t.u.J.W.W.`.+XT.h > > ",
"                  > > > > > 5 ~ ~ F.6X6XfXLXLXLXLXLXLXLXLXLXLXLXpX6X6X1.> > S 2.3.>.C.C.C.C.b.6 > > ",
"                        > > P C.C.=XLXLXLXLXLXLXLXLXLXLXLXLXLXLXLXLXLXpX6X6XW > > > > > > > >       ",
"                        > > U W.E.5XLXLXLXLXLXSXNXMXMXMXMXHXLXLXLXLXLXpX6X6XW > > > > > > > >       ",
"                        > > 1.6X6XsXLXLXLXLXLXkX6X6X6X6X6XzXLXLXLXLXLXpX6X6XW > >                   ",
"                        > > 8.NXNXAXLXLXLXLXLX1Xh.h.h.h.h.].+X+X+X+X+X/.E.E.H > >                   ",
"                        > > 9.LXLXLXLXLXLXLXLX<X2.2.2.2.2.*.C.C.C.C.C.C.C.C.V > >                   ",
"                        . . l LXLXLXLXLXxX6X6X6.. . . . . f ~ ~ @.C.C.C.C.C.3 . .                   ",
"                      . . . l LXLXLXLXLXfX&X#X4.. . . . . 1 H H ' m.m.m.m.m.2 . .                   ",
"                  . . . . . l LXLXLXLXLXwXC.C.Y . . . . . # > > B ~ ~ ~ ~ ~ < . . . . .             ",
"                  . . . . . k ,X,X>Xc.c.k.D D y . . . . . * 0 0 t N N N N N - . . . . .             ",
"                  . . . . . j v.v.l.,.,.F M M 0 . . . . . % 7 7 r M M M M M = . . . . .             ",
"                  . . . . . : M M M M M e 7 0 $ . . . . . . . . * 7 7 7 7 7 + . . . . .             ",
"                  . . . . . : M M M M M e 7 7 $ . . . . . . . . @ ; ; ; ; ; o . . . . .             ",
"                        . . : M M M M M e 7 7 $ . . . . . . . . . . . . . . . . .                   ",
"                            8 w w w w w 8 O O X . . . . . . . . . . . .                             ",
"                              7 7 7 7 7 % . . . . . . . . . . . . . .                               "
};
