/* XPM */
static char *b8ef5c51def24bc9ab8a4bc7c1d088e84CbFFAc3b1ZReVO6[] = {
/* columns rows colors chars-per-pixel */
"50 50 28 1 ",
"  c None",
". c black",
"X c #181818",
"o c #162029",
"O c #12273D",
"+ c gray23",
"@ c #491D00",
"# c #722D00",
"$ c #16314C",
"% c #354658",
"& c #4A627A",
"* c #A54200",
"= c #BE6F4C",
"- c #DBDB00",
"; c yellow",
": c #E0A272",
"> c #070091",
", c #0C00B5",
"< c #0900BC",
"1 c #29598B",
"2 c #0B00EF",
"3 c gray53",
"4 c gray65",
"5 c gray71",
"6 c #F3C598",
"7 c LightGray",
"8 c gray95",
"9 c white",
/* pixels */
"                      ..     .                    ",
"               .......11.... ..                   ",
"                .$111O.O1111..1..                 ",
"                 .$1111..O11$$O$.                 ",
"                    $11111111$$11.                ",
"                 ...O$11111111111.                ",
"                .OOOO$11111111111.                ",
"               .OOOO$111111111111..               ",
"                .OO$11111111111$$$O.              ",
"                 ....OO11111111$OOO..             ",
"                .$$$$$$111$$1111O$.               ",
"              ..$$$OOO$11$$6$$11O$.               ",
"                .$$$OO$1$$666$11OO.               ",
"                 .O$$O$$$:666$1OOO.               ",
"                 .$$$.$$.::66$.O...               ",
"                ..$OO..$88..=.... .               ",
"              ....OO..=.88+:66:.                  ",
"                 .O...=.:666666.                  ",
"                 .O..2..=:6666.                   ",
"                 .O...,...=::.2.                  ",
"                 .O.999,,....99.                  ",
"                .OO..999,,.,,99.                  ",
"                .O.<,9994,,.,49.                  ",
"               ....>,.99999,999..     .           ",
"             ...o.<...,9944,49..2.   .9.          ",
"            .97.oo...44,,,4494..22...7..          ",
"            ...5.o.  .44,-;;;;.<<.o.7..9.         ",
"           .55797..   .4,,---,.>.o.97....         ",
"           .5.575.    .33,,,,,.....7...           ",
"           .77...7.   .3333333.   ....7.          ",
"            ..79..    .........     .7..          ",
"              ..      .ooo.%.o.      .            ",
"                     .oo%%.%.o.                   ",
"                     .o%&&%.o%.                   ",
"                     .%&&&&.o%%.                  ",
"                     .%&&&&.o%%.                  ",
"                    .oo&&&&.o%%.                  ",
"                    .oo%&&%.oo%.                  ",
"                    .ooooo.oooo.                  ",
"                   .%ooooo.ooo%.                  ",
"                   .%%oooo.oo%%.                  ",
"                   .%%%%%..o%%o.                  ",
"                   .%&&&&...ooo.                  ",
"                   ...&&.......                   ",
"                   .@@.....@@#.                   ",
"                   .@###. .@#*.                   ",
"                   .@#*#.  X**.                   ",
"                   .#**X    XX                    ",
"                    X**X                          ",
"                     XX                           "
};
