/* XPM */
static char *a0de8820512c4f22a1ac5f4f89524721Dp7AlnQq5p3dmPA8[] = {
/* columns rows colors chars-per-pixel */
"50 50 256 2 ",
"   c #020503",
".  c #0A0503",
"X  c #020A02",
"o  c #0A0A04",
"O  c #01050C",
"+  c #020C0C",
"@  c #0B0C0B",
"#  c #0C070B",
"$  c #130200",
"%  c #110C08",
"&  c #03120C",
"*  c #0A120C",
"=  c #071405",
"-  c #12120F",
";  c #010612",
":  c #010C14",
">  c #0A0D13",
",  c #020D1B",
"<  c #0A0E1A",
"1  c #060617",
"2  c #031314",
"3  c #0A1314",
"4  c #061A15",
"5  c #0C1A13",
"6  c #02131C",
"7  c #0A131C",
"8  c #031A1D",
"9  c #0C1B1C",
"0  c #131314",
"q  c #10131C",
"w  c #161919",
"e  c #0B211C",
"r  c #14241C",
"t  c #010D23",
"y  c #010A27",
"u  c #031422",
"i  c #0A1524",
"p  c #021A24",
"a  c #0B1B24",
"s  c #01152B",
"d  c #021B2B",
"f  c #0B1D2A",
"g  c #0B172A",
"h  c #131B24",
"j  c #121D2B",
"k  c #191C27",
"l  c #001532",
"z  c #011B33",
"x  c #011C3B",
"c  c #081A38",
"v  c #171D39",
"b  c #000F32",
"n  c #032125",
"m  c #0B2124",
"M  c #03212B",
"N  c #0B222C",
"B  c #0E2A2C",
"V  c #13232C",
"C  c #1A232C",
"Z  c #162727",
"A  c #032332",
"S  c #0B2632",
"D  c #0B2B34",
"F  c #02233C",
"G  c #042C3C",
"H  c #0C293B",
"J  c #072836",
"K  c #132534",
"L  c #132B34",
"P  c #142E3C",
"I  c #1B2C3B",
"U  c #162737",
"Y  c #0B333B",
"T  c #1C333A",
"R  c #18333A",
"E  c #133129",
"W  c #262F30",
"Q  c #001D44",
"!  c #011D4C",
"~  c #022443",
"^  c #0B2542",
"/  c #022B43",
"(  c #0C2B44",
")  c #01254B",
"_  c #04294C",
"`  c #0A284C",
"'  c #122D49",
"]  c #112945",
"[  c #0B3245",
"{  c #0C334B",
"}  c #07354B",
"|  c #143242",
" . c #1B3344",
".. c #193849",
"X. c #022C54",
"o. c #0D2E52",
"O. c #022A5A",
"+. c #112C54",
"@. c #043453",
"#. c #0D3453",
"$. c #0C3B53",
"%. c #01345C",
"&. c #0B355B",
"*. c #03395B",
"=. c #0C3B5C",
"-. c #013955",
";. c #133554",
":. c #1B3451",
">. c #143C54",
",. c #1B3B54",
"<. c #143B5C",
"1. c #17375A",
"2. c #252842",
"3. c #253947",
"4. c #223957",
"5. c #023463",
"6. c #043962",
"7. c #0A3866",
"8. c #153D65",
"9. c #193D69",
"0. c #033C74",
"q. c #0B3269",
"w. c #253E6A",
"e. c #1A404A",
"r. c #0A415C",
"t. c #1B475A",
"y. c #28454B",
"u. c #284655",
"i. c #33495A",
"p. c #37535E",
"a. c #2B535B",
"s. c #0C446B",
"d. c #0C4667",
"f. c #124465",
"g. c #13436C",
"h. c #1A436B",
"j. c #184B68",
"k. c #16516E",
"l. c #084675",
"z. c #164975",
"x. c #0D5279",
"c. c #1E5474",
"v. c #1A577A",
"b. c #264767",
"n. c #2B536B",
"m. c #245369",
"M. c #365769",
"N. c #274B75",
"B. c #215173",
"V. c #2B5473",
"C. c #24547B",
"Z. c #2B537C",
"A. c #2B5A7D",
"S. c #255C7A",
"D. c #355877",
"F. c #334A6C",
"G. c #38647B",
"H. c #28627E",
"J. c #455867",
"K. c #425D79",
"L. c #46667D",
"P. c #517073",
"I. c #475558",
"U. c #003D84",
"Y. c #094784",
"T. c #164A87",
"R. c #195888",
"E. c #195B95",
"W. c #0E5493",
"Q. c #224E85",
"!. c #235C84",
"~. c #225C8D",
"^. c #295786",
"/. c #355986",
"(. c #285E94",
"). c #3B5E94",
"_. c #19679C",
"`. c #18618A",
"'. c #29638A",
"]. c #366787",
"[. c #2E6492",
"{. c #276698",
"}. c #33699A",
"|. c #3A6A96",
" X c #3B7498",
".X c #357592",
"XX c #1564A4",
"oX c #1F70B1",
"OX c #2C6BA4",
"+X c #2568A5",
"@X c #346AA5",
"#X c #2B73AB",
"$X c #3A74AC",
"%X c #3B7BAC",
"&X c #3576A8",
"*X c #337CB4",
"=X c #3A79B7",
"-X c #2A6FB5",
";X c #455F84",
":X c #456E8C",
">X c #486888",
",X c #496994",
"<X c #506C92",
"1X c #457799",
"2X c #537797",
"3X c #4D798A",
"4X c #427BAB",
"5X c #4879A5",
"6X c #5279A4",
"7X c #477DB8",
"8X c #577AB0",
"9X c #647CB2",
"0X c #637B97",
"qX c #3B7AC5",
"wX c #267AC3",
"eX c #3882B6",
"rX c #3881AE",
"tX c #4583A7",
"yX c #5683AA",
"uX c #4384BC",
"iX c #4A86B8",
"pX c #5989BA",
"aX c #5794B9",
"sX c #658AB5",
"dX c #679BBD",
"fX c #6A8FAC",
"gX c #69A0B7",
"hX c #3A87C6",
"jX c #3D96D5",
"kX c #3E8FD0",
"lX c #4688C6",
"zX c #528DC5",
"xX c #568EC6",
"cX c #4A92C7",
"vX c #5D94C4",
"bX c #5696CB",
"nX c #4995D7",
"mX c #5799D5",
"MX c #4B8CD0",
"NX c #6798C8",
"BX c #629AD7",
"VX c #7296C7",
"CX c #57A2DA",
"ZX c #4BA4DE",
"AX c #65A4C9",
"SX c #69A6DC",
"DX c #71A7CB",
"FX c #469AE3",
"GX c #4BA3E5",
"HX c #59A5E4",
"JX c #5EAEF3",
"KX c #69AAE5",
"LX c #76AAE5",
"PX c #6DB2EE",
"IX c #75B3ED",
"UX c #82B3EB",
/* pixels */
"n L c.<.v.aX#XY./ G z U S K ( >.Q.Q.F [ G } 7XQ.n.=.c g @ 3 3 & 6 < & & 3 O O ; 2 p { D.<Xo.C 6 * + ",
"y.R #.f.x..XiXrXt.#.3.b.i.y.[ n.NX(.$.>X2XM.5XQ.2Xb.f u 0 * + + < 4 & & 2 O > O 2 9 A n.F.` h 7 & + ",
";.1.,.^ S P /.VXmXW.mXJXmXiX+X{.JXXXR.eX@XuXqX+X].=.M p & 3 7 : : 6 2 +     # . X   u ..N.#.H u > > ",
"1.` ' z z J ) ].JX=X-XW.E.R.CXPXkXnX#XeX(.qXqX-XH.k.L 8 3 2 , g 8 g 2 + O O % # X X u H ,X1.H p O O ",
"U h ( ( F F ( t.6Xh.n.1.Z.B.jXZXbX%XR.d.g.|.5X7XG.{ V m + + u u 7 7 + + : O O . o X : : ^ n.>Xb.x F ",
"a a / [ b.G.j.>.=.X.:.u.f.A.jXhXR.cX'.6.%.6.U.T.G J a u 9 9 1 u 7 3 2 9 9 <       o + : l F ^ t.A.G.",
"N m @.k.zXNX1XaX&X@XS.r.x / B.DX6X/.t.{ A G h.N.p 6 k 7   * 3 + . o O 7 u , : O X & 2 3 2 : , C N S ",
"f m -.aXKXR.r.H.}.SXgX].{ >.g.7.N.h.G.u.e.A F.o.f p h < + +   X . o   3 , , : 6 3 & & + O 4 , : d D ",
"@.@.5.pX<XQ.v k 2.;XDXNXnXhXE.MX5X}.].1Xd.@.N.q.a u < < +   X o @ - + + , , 7 2 5 +     o   O + s H ",
"V.=.z.vX9Xw.k k Q ^ R.x.Y.=XnXE.5.s.v.tXr.@.).9.L p : : o o o o @ * ; > , 6 p 2 2 3 o       > > H H ",
"G.j.E.bXqXU.o.l 9 6 & 9 k a W # x z } tXd.k.8X;XT m 2 2 : 2 : : : 6 : ; + > 3 + + 3 - o =   : , a h ",
"B.j.Y.{.mX-X#._ 7 i 4 4 7 C w # s s @.].v.C.Q.).L 8 + + + + : O : : ; ; + @ & + + + X o 5 = p u + 2 ",
"5Xk.' x ( >XB._ d 6 s A d M & & o o 2 3.n.{ >X1.9 & + + + + : : : 2 : ; o @ & + 6 , p 6 2 2 x l p p ",
" X1X] s A / sX*.u S U c J u 2 & * . 8 L D.G.<X+.2 + + : : + ; : : : ; > o o + & s A K B B y.M.b.R 8 ",
"=X7Xv < & r ].N.K I 2.v N u * X q O 6 M J j.<X~ 2 : : , o   . o & + @ #   o p M X.B.G.D.y.u.b.M.].g.",
"U.zXk k & E 6Xh.u U 2.v p p X X > < 6 p G t.>Xx : + O :   X % % 9 3 0 # X - B T |.!./ z , u s ^ %. X",
"/.Z.J J q.|.fX&.Q ;.:.H 5 = ; ;     & & { :X}.7.>   O   ; ;   * U j : : x 1.].B.a.Y *   X = x ( 6.R.",
"8X9.G t.2XN.#.x ( u.w.] & & < <     X 4 >.V. X(.w > + O O O X @ u f h h ^ >X} ~ J n + 3   = D.' {.%X",
"f.*.8.sX .u 3 9 a E R p 6 6 = = 1 ; t v }.}.f.].;.s u 6 6 8   X 8 n D Y +.b.K u 7 ; t t l >.{.{._.zX",
"k.*./.Z.P u 2 3 8 2 6 6 u 6 = o 1 O y v 4X}.*. Xj./ 8 p n L W 3 4 n J u.2X+.t d 6 i  .3.t.j.{.#X7X-X",
"=XmXVX8.a a < i g u u d u : O O . 0 s A x.R.v.S.:X^.L.F.b.D.4.Q 2 7 F $.4X~.&.%._ 2X}.{.`.%XcX&XeX#X",
"IXlXN.o.j a k i u g d t : : O > = w H 4.%XuX.Xg.^.b.' z l x 4.w.Z 6 / D.xX(.N.5X2X8.z.4X`.{.rXrXE.hX",
"mX%Xj./ 2 m 3 w a a 8 2 p n J J  .J >.j.[.c.T.=XT g a i 7 < i 3. Xz.7.}.HXMXFXwXY.W.A.@.G J m.} t.V.",
"{.{.$.~ a 7 C ; h C m m D D | u...| } <.~.!.$XT.j u : : k i u H Q.NX}.z.qXqXnXFXhXlXj.=.e.t.Y G z #.",
"dXdXQ.q.s A K 6 a C N B g.7.k.k.{ [ y.n p p N.Z.I u 3 w 0 0 u 8 C 3.iXvXaXx.M.u.M.J.iX4XiX$Xw.^ 5.~.",
"d..XNXQ.' [ U f T T n 3.pX|.c.k.Y ..B p ; , Q B.i.d O   . . : 6 , j !.^.X.~ S d B  .s.6.0.E.<X<X}.%X",
",.' ^.sXR.T.Y.0.$X[.%.^.pX$X[.[.:.( h 1 0   & W !.*.p d 5 & 6 : c +.fX' 2 & + & * 3 > @ y j u.H V C ",
",.^ 5.^.uXzX+XmXSXiX7.'.Q.[.(.z.:.z O O   . & m 5X'.a.S & & C T w.K.0X] & + X +   X   O , , d y , : ",
":.F Y t.bXPXGXjXGXjXW.*Xt.].:Xh.B 8 2 6 8 8 + r R.~.5X6.~ X./.9X:.] j t   X : ; , , X X : : 2 2 X + ",
"^ ( } 3XCXHXGXjXhXGXrXcXk.G.^.f.e 2 u d p m e 5 5.l.7./.Z.,X+.! c c v t &   : O O O   X 3 k 2 2 3 3 ",
"E.x.#XzXKXmX#X_.{.*X-XhXOXOX~.0...,.`.eX(.|.b.`  .] 5.R.yX X'.H.s.%X:X].p.B H d t y @ @ ; q & 5 X O ",
"KXmXLXKXBX7XiXuXmXcXnXnXcXrX%X~.D.G.*XoX@X(.D.b.4.4.*.[.5X8.-.d.!.d.=.l 8 n 4.J.3.g   @ ; 7 & + @ + ",
"-XqXBX}.n.G.3XD.9.h.k.k.Z.h.L V n J l._.CX*X6X,XC.c.H.j.i.j h < 7 ; . . . # : 2 H M.s s p 6 s z M R ",
"U.lXaX{.{ $.1.+.Q ) r.k.A.f.8 a u.a._._.=XcX6Xb. X].$.f.i.T i ; O O .   . . ; : , D K.s 2 D D.V. .J ",
"l.AXvX[.o.&.L K u d d ..t.Y o.^.3.P b.N.s.k.R.#XXX-XXX_.|.@.y s : + +     + + O , : Z I.3.J.I 6 < : ",
"`.AX}.z.;.#.L n d I A Y Y A N.9.N N X.` *.x.l.x.jXoX*XE.1X@.g y u : O O   + O < : 6 O V W , 6 6 < 7 ",
"bXpXNXaX@X@Xd.6.=.) &./.H.B.4Xs.i i A P $.>.f.k.:Xj.M.3.C i a 6 0 @ ; 1 X   O 0 # 0   X , i : 9 ( F ",
"0.iXz.6.T.iX5X|.V.>XVX|.c.:XiXO.g , P 4.m.]. X-.F z u y ; , , + o o u , 3 +   3 0   = X , t 2 2 / t.",
"z 2XT p s J t.M.P.y.2.g : V E 4 3 r '.iXhXlX7X0._ ~ O   $ $   X + > s c | | g u : , s A X.) / @.R.#X",
"x G.y.p z s u p 6 8 i u : 2 & & + & x.tX-X#X7X=X].Q + O $ $ X X + @ s P a.M.I g u f H t.yX].j.sXcX#X",
"! c.VXq.y y p V 6 g > 3 : < t g X 5 l.@XvXR.4...F.>XM d X X 6 , F F _ *.$XvXc.@._ 6.#XuXeXCXCXCXL.[ ",
"%.9.;X9Xv y f u u u + X ; : t t = = x.(.xX@X:.F _ b.M.Y Z 5 u K b.( S.].4X4XV.j. XdXlX=XZXCX_.mXfX( ",
"-.A.dXF.N u N S N p 2 & h 2 & X s | 0.{.KXxX^ l & Z R M.1X].N.Q.:XyX{ $.^.yX].f.C.v.zXzXaX5XQ.iXpX9.",
"r.DXD.&.y.R N 6 : u 4 e 7 < X = z ( Y.{.uXmX( ' 2 X M p x @.Q.Q.<.>.} F 7.%.].=.%.%.=X$X!..Xz.7.7XpX",
"}.BX0.Q.eXrXY.l.5.s.C.7.9.! M 6 6 k } j.{.bX1X! 2 & + X , 1 i h d p N m m p 1.2X%.X.O.k.$._ ' x ~ n.",
"SXU.R.tXbX%XbXbXNXaX6XDXsXsXa.| i j } V.iX=Xh.1X4 e & 5 j t : : u u 7 8 6 f { D.v.k.^.!.A.n.:.' x [ ",
"b.` k. XSXxXV.n.u.3.H i.Y e.z.6XG / l.NXDXA._ V.$XO.` ) 9 3 M p 6 8 q w X * &.].=XnX{.CXLXxXA.&.A M ",
"_ <.v. XIX{.b./ z g p p e p ! q.m.t.&XaXNXf.l &.zXzXN.b.Z 9 D d B m k 9 5 w ~ A.KXKXzXbXUXUX2X7.M ..",
"*.c.VX|.u...V p i i 7 2 d p d | eX#XCXCX1X%.a 9 #.:XiXv.K g N N f a a m 9 3 G ,.E.LXIXSXKXKX|.f.z.v.",
"v.dX/.X.A u 6 6 6 7 9 2 S f H 4.nXhXnXHX6Xg.4 : s #.[.|.2.s d D p a a p 2 9 ( >.'.SXUXbXCXPX XC.[.|."
};
