/* XPM */
static char *_7d94ed442bb49c7b6e10c72a18a1335t9OVJ7ruWxVM19ow[] = {
/* columns rows colors chars-per-pixel */
"50 50 249 2 ",
"   c #010503",
".  c #030A05",
"X  c #0A0B05",
"o  c #00050B",
"O  c #020B0C",
"+  c #0A0B0D",
"@  c #0A0705",
"#  c #03110E",
"$  c #0B110D",
"%  c #000612",
"&  c #010C13",
"*  c #010E1A",
"=  c #060B16",
"-  c #031214",
";  c #0A1314",
":  c #02131B",
">  c #0A151B",
",  c #04191E",
"<  c #0C191D",
"1  c #0B1916",
"2  c #131A1D",
"3  c #121519",
"4  c #10120F",
"5  c #000D22",
"6  c #000E29",
"7  c #021423",
"8  c #0A1521",
"9  c #031A24",
"0  c #0A1B24",
"q  c #01152B",
"w  c #021B2C",
"e  c #0A1D2C",
"r  c #121C24",
"t  c #021C33",
"y  c #091C33",
"u  c #001D3B",
"i  c #071B36",
"p  c #052027",
"a  c #03212D",
"s  c #0B232D",
"d  c #0D2429",
"f  c #14242C",
"g  c #172229",
"h  c #042234",
"j  c #0B2433",
"k  c #0C2935",
"l  c #02243C",
"z  c #0B253C",
"x  c #042A3D",
"c  c #0C2A3C",
"v  c #062A34",
"b  c #122534",
"n  c #132B35",
"m  c #13253B",
"M  c #132C3A",
"N  c #192D3C",
"B  c #192537",
"V  c #0F303B",
"C  c #19303A",
"Z  c #001E45",
"A  c #012443",
"S  c #0B2442",
"D  c #032B44",
"F  c #0B2C44",
"G  c #032B4B",
"H  c #0B2D4A",
"J  c #00254C",
"K  c #122E43",
"L  c #112D4B",
"P  c #1A2743",
"I  c #0C3245",
"U  c #05324D",
"Y  c #0B334B",
"T  c #093547",
"R  c #153344",
"E  c #1A3443",
"W  c #13344C",
"Q  c #1A334B",
"!  c #13394C",
"~  c #1B3D4D",
"^  c #062E56",
"/  c #043354",
"(  c #0B3353",
")  c #0B3A55",
"_  c #04355A",
"`  c #0A355B",
"'  c #0C3C5C",
"]  c #033959",
"[  c #133553",
"{  c #1A3353",
"}  c #153A53",
"|  c #1C3B55",
" . c #133C5A",
".. c #1A3C5B",
"X. c #133659",
"o. c #243B49",
"O. c #243B56",
"+. c #0B3D64",
"@. c #063A66",
"#. c #143F62",
"$. c #153F69",
"%. c #003F7B",
"&. c #243E6F",
"*. c #14415B",
"=. c #1C445B",
"-. c #0F425F",
";. c #24445C",
":. c #284858",
">. c #2E4E57",
",. c #0C4668",
"<. c #154263",
"1. c #1B4464",
"2. c #1D4A64",
"3. c #13456B",
"4. c #1D456C",
"5. c #144A6D",
"6. c #1A4A6C",
"7. c #124860",
"8. c #1A506D",
"9. c #0D4472",
"0. c #0B4878",
"q. c #144C74",
"w. c #1B4C74",
"e. c #164878",
"r. c #1C5479",
"t. c #0F547D",
"y. c #244B65",
"u. c #2A4B65",
"i. c #224A6E",
"p. c #274869",
"a. c #324B63",
"s. c #24536F",
"d. c #2A5369",
"f. c #33546C",
"g. c #3A5A6B",
"h. c #244D72",
"j. c #294D76",
"k. c #235273",
"l. c #2B5375",
"z. c #23547D",
"x. c #245A7D",
"c. c #2B5B7C",
"v. c #2B557A",
"b. c #315A7D",
"n. c #365976",
"m. c #314F73",
"M. c #34617D",
"N. c #3B637C",
"B. c #3D6076",
"V. c #2D607F",
"C. c #44555D",
"Z. c #455A69",
"A. c #45647F",
"S. c #4C707E",
"D. c #1A4F83",
"F. c #1B5787",
"G. c #14568F",
"H. c #245B84",
"J. c #2C5B83",
"K. c #245D8B",
"L. c #275785",
"P. c #345C87",
"I. c #2A5F95",
"U. c #1A6298",
"Y. c #2D638C",
"T. c #2B6389",
"R. c #346283",
"E. c #34658C",
"W. c #3C6B8C",
"Q. c #38678A",
"!. c #266494",
"~. c #2A6698",
"^. c #356A95",
"/. c #3C6C93",
"(. c #356B9A",
"). c #3B729B",
"_. c #397299",
"`. c #3B718D",
"'. c #1C67A0",
"]. c #2A6CA4",
"[. c #376DA5",
"{. c #2D74AA",
"}. c #3D74A3",
"|. c #3C7CA4",
" X c #3C7BAC",
".X c #3473A7",
"XX c #3676B5",
"oX c #2D76B3",
"OX c #415E86",
"+X c #456989",
"@X c #476D94",
"#X c #44739C",
"$X c #4D7A9A",
"%X c #477796",
"&X c #547998",
"*X c #4C748C",
"=X c #657A9B",
"-X c #447AA4",
";X c #4B7BA4",
":X c #447CAC",
">X c #4D7CAA",
",X c #4775A5",
"<X c #547DA9",
"1X c #447BB5",
"2X c #667EAA",
"3X c #3C82BB",
"4X c #3D80B5",
"5X c #48809E",
"6X c #4682AC",
"7X c #5484AB",
"8X c #4683B3",
"9X c #4483BA",
"0X c #4C89BD",
"qX c #4A86B4",
"wX c #538EBB",
"eX c #5989B7",
"rX c #5892BA",
"tX c #648AAA",
"yX c #6894BA",
"uX c #7292B4",
"iX c #6D8DB4",
"pX c #3B8AC6",
"aX c #4D8DC3",
"sX c #468AC4",
"dX c #568DC1",
"fX c #4C94C9",
"gX c #5393C3",
"hX c #5C93C3",
"jX c #5493CB",
"kX c #5C99CA",
"lX c #5C95C9",
"zX c #4997D6",
"xX c #5A9FD4",
"cX c #579AD4",
"vX c #649CC4",
"bX c #669AC7",
"nX c #739FC5",
"mX c #669FD4",
"MX c #58A1D8",
"NX c #6AA3CB",
"BX c #67A5DA",
"VX c #76AAD9",
"CX c #7DB2DC",
"ZX c #59A6E3",
"AX c #69AAE3",
"SX c #73AFE3",
"DX c #69B3ED",
"FX c #76B4EA",
"GX c #81B4E9",
/* pixels */
"p k y.7.r.wX.Xt.G x t z j k I  .z.D.A F F U >Xz.h.{ j 8 ; + 1 $ ; - # # -   o % ; p I n.*XL b = + # ",
":.R (  .8.^.qX6X3.`  .y.u.;.U k.bXK.+.W.&XJ.:XD.$Xu.w , > $ O & & ; : # - o + o ; , w f.m.H e > & O ",
"! } } F l Y c.NXhXL.jXVXvXwX!.~.AXU.F.qX[.1X3XI.^.) h , - ; , o & : - O     @ @ .   : } p.L z * & + ",
"{ F K t h l A R.SXXX].G.F.G.MXDXpXfX{.4XI.sXXX].J.2.V : - & * 0 0 0 - O O o + + . . : z +X..z 9 = & ",
"m j I F t l D 6.;Xw.h.$.z.F.fXMXzX XF.0.5.(.[.9XR.T j d & & : 8 < > % O % o o   . . & : l f.*X:.t l ",
"0 9 x Y i.R.2. ._ /  .1...H.fX3XF.wXT.] ] ] $.w.D a e 8 < < % : > ; & 2 < 4 O     . . & q t z ;.n.n.",
"f h D q.eXvX%XrX)._.x.*.l G r.NX;XP.<.Y x D 4.j.w 7 r > o $ - O . @   < < * % o . # 1 - : : : j a k ",
"w h / wXVXL. .c./.NXvXE./ +.$.@.z.4.R.=.! l p.L t 8 r 4 O O   X . X   = & * & : - # # O   ; % - w j ",
"Y / _ rX@X&.S i S P.VXNXgX9XG.aX,X^.E.%X7./ h.X.t , * ; O @   X X $ O = & : , & 1 O   X . . % & w z ",
"l.' e.dXdX&.P i i Z d.8.9.:XbXL.@.,.x.5X,./ P.&.m , & - + O . X + ; & & & > , - ; $ .     . O : n j ",
"R.6.K.lXXX&.^ q w : : p j t N 5 u u / 5X,.5.<XOXE 0 - & & # O O & - % % % + ; - O - ; . X . o & 0 0 ",
"k.6.e.K.bX[.` F q 0 , , 8 g r O : q T N.k.z.j.P.M 9 O O # & & % & - % % O O # O - . O . 1 ; 8 7 - - ",
"-X6.U A G /.l.A w : 9 e 9 e - # O & : ~ s./ +X{ 9 - O O O O % & & & & % O + # # & * , : . : a q 9 , ",
").#XL q w F tX( q j m y h , - O $   , k g.N.@XP : O O - O O O O O O & + X . . : w h k k d :.g.:.R 9 ",
"1X<XP 8 : a N.h.z N P B s : 1 . ; % : p h u.@Xz 7 O & = O . X . O O + o   X : a D d.N.g.:.:.u.f.b.1.",
"%.<Xi e : M &Xy.q m P B 0 ,   O + ; & 9 l 2.+Xu : o o o o X X X 2 ; 3 + + , a ! +Xv.D 9 & 7 7 A ' ).",
"P.j.z l L +XtX( u O.Q j < - O O .   # - I %XW.X.:   o o o o   4 g r = & q O.+Xy.d.V : O # : w G @.r.",
"<X#.D =.@Xm.[ t S ;.:.M , # ; ;     . 9 } c./.P.e * O O o   . ; , d 0 s i +XH l v , O - . : n./ Y. X",
"w.` <.tXQ w 9 0 p n M e & - # X + % * z Q.^.5.R.[ 5 7 : - ,   O , 9 k R L u.m 7 9 % : 5 p  .V.!.!.sX",
"q.@.P.m.K 7 : > , : : : : : # X + % = Z ,X(.] %X1.D w w p n C , - p v :.&X^ q t 7 t Q } =.5.!.].9XoX",
" XlXbX..e 0 = 8 < 7 7 9 7 % O . o 8 w u w.F.r.J.W.m.+Xa.y.f.O.y : , v ( @XL.` [ A &X/.T.H.|.wX4XXXoX",
"FXaXk.H j 8 r 8 8 9 8 5 & % % & + 8 c ..#XqX(.3.b.p.K t 6 t { a.j q D H.dXI.D.:X>X+.q.}.H.^.4X_.F.0X",
"xX X4.A : d = 2 0 0 0 : 9 e s n o.j } 2.Y.t.D.,X[ q e 8 8 7 * O.+X4.@.I.BXsXzXXX0.D.H./ x D s.-.-.x.",
"!.T.+.D a , g = r f d 9 k c I =.R I I ..V.J.).w.z : & = r 8 : l m.bXE.D.9XsXfXjX9XwX5.' -.=.D D l / ",
"vXvXL.^ 6 s b - 0 b d h y.( 2.s.T c :.w w u p.v.P 7 > 2 3 2 : 7 j | 7XhX0Xr.k.y.f.b.7X:X>X#X$.G ^ H.",
"7./.bXD.) H F h R R a =.7X^.r.8.D ~ k , % : t d.;.w o o   o & : * z b.L.G w v 9 b C =.` $.L.*X*XQ.-X",
"} ^ J.eXD.r.9.@.#XE./ x.eX[.E.E.! c e = ; O : C n.) w 0 ; - - * q W uXR q - O - ; , : * 6 S O.z m c ",
"| H L L.8XsX].cXAX9X@.T.L.E.J.w.} w % o o . . v %XT.y.v & * b o.&.Z.=Xm - . O O   .   % & % e & & % ",
"[ l U 5.lXDXMXpXZXzXG.4X,.`.W.1.k 9 & : : - # s l.I.#X` A H n.2X{ P i 5   . & o - & . . O & - : # O ",
"G U U %XMXBXZXzXpXZXoX3X8.T.J.<.h : w t t j p w / 3.@.P.v.@X^ Z Z u z 5 :   % % o o   . ; g : # - ; ",
"K.0.(.gXAXcXoXU.'.oXoX3X].~.K.+.! *.x.|.J.+Xp.S W H ^ r.7X/.P.J.<.$X*XB.g.d j e * = O + % > : 1 .   ",
"AXxXSXAXmX:X8X4XkXaXjXfXjX6X-Xc.n.R.|.].[.I.J.p.|  ./ E.7X .( 7.c.*.W : : p o.Z.o.q o > O ; : O & & ",
"XX3XmX~.z.Q.@XJ.$.3.q.t.z.3.I h 9 x ,.U.MX|.,X+Xv.h.R.<.f.i w 7 q & o     o = : j g.w 7 7 * q 9 a C ",
"%.1XdX!.) } W H u G -.2.l.=.w a :.d.!.U.XX0X>Xq.).^.@.5.;.E 9 % o         . O & % b Z.w * k g.f.E j ",
"0.BXhXE.^ W K j q w t ! =.T H m.~ R 4.w.q.t.F..XU.{.U.T.W.H 5 6 & o o     o o O - & f C.o.C.N 7 : : ",
"F.NX~.q.@.( c h w K l I T l k.<.t j W G / 5.,.t.sX]. XK.$XW q * 8 & o o o O o & & > O r B * : : * 8 ",
"kX0XvXvX~.(.'  . .H X.n.M.8.-X<.t 7 y F Y -.,.r.`.5.m.O.M q e : > + % % O   o 3 O ;     ; : * 0 c h ",
"@.qX3._ e.<X6X+Xk.+XuXP.y.@X7XA 9 : K =.8.Q.)._ l h 7 5 o O ; o + O * > , O o ; 3 O - - : 7 7 q D =.",
"u &XW t i D ..d.S.o.Q i * j V , : p M.7X8XaX:X@.J u % o @ @   . . = 8 y N C 9 : o * 7 a H A l / r..X",
"u N.:.w t q 9 7 , , 8 8 & - O # # : 8.6X{.{.1X,XW.u * o   @   . & : w D u.f.Q w w t D *.eXT.5.rXgX(.",
"A h.iX{ 5 q 9 j : 0 ; > % * * < . 9 7.[.jXL.$.X.h.A.p , . . ; * j h l ` #XyXh.U A ' ).8X4XkXMXNXW.) ",
"/ 4.P.2Xi 6 e 9 7 8 & O o * * & - : 5.!.jX^.X.i S ;.g.V k 9 q z u.Y l.Q.:X-Xx.6./.vX9X3XxXMXU.hXeXH ",
"] V.yXm.i 9 e s e : : # r & - & 9 I @.~.BXdXG t : f E g.*XB.p.h.+X5X) ] x.6XR.,.r.F.aXaXkX6XF.qXeX3.",
"+.NXc.` ;.W l q 5 w 9 p 7 : O - e H 9.!.9XlXG K : O , w t Y l.m...| I h X.( W.) _ @.}.}.x.^.3.$.>X7X",
"~.lX%.z.6X#Xq.+._  .l. ...l w & : h Y q.!.kX,Xt , O # - 5 5 q i t w j a a q ..%X_ ^ ^ 9._ G ^ l A l.",
"VX$.K.6XkX|.gXhXbXyX$XnXiXtXu.! w j U x.qX}.4.%Xp p : , 0 : = * : : , , : d I P.r.0.K.L.J.h.{ H t F ",
"4./ 9._.BXrXx.h.;.O.F :.I } 1.&XA D 5.vXNXJ.G v.#XJ D z 0 ; d 9 : , < 2 # : W E. XjXI.mXCXeXJ.{ l h ",
"G *.z._.GXE.y.l i 9 , 9 p 9 A ` k.,._.gXvX<.t X.eXeXj...b 0 j 9 k 0 r < 1 0 t J.AXAXjXxXSXGX;X' l ! ",
"_ r.nXE.4.! j w 8 8 0 - 9 w t ( :X{.MXmX).^ w w ( @X7Xl.z w s s d 0 9 0 1 , z  .T.SXFXBXBXBX(.3.4.w.",
"r.yXP.G l 7 : > 5 : < : s a k ..gXpXzXMX6X=.7 : q ( E.Q.Q 7 w b 9 0 0 < ; 9 x  .T.BXFXxXBXFX[.r.T._."
};
