/* XPM */
static char *_90f6f0b08084242d39bdedee22cef01TKfSHccBEos7XDi0[] = {
/* columns rows colors chars-per-pixel */
"50 50 161 2 ",
"   c #3A1E1B",
".  c #3E211C",
"X  c #422017",
"o  c #44241D",
"O  c #49271E",
"+  c #4D291E",
"@  c #532B1E",
"#  c #5A2F1E",
"$  c #592F1F",
"%  c #592F1F",
"&  c #5B301F",
"*  c #60321F",
"=  c #492720",
"-  c #4A2720",
";  c #4A2720",
":  c #4A2820",
">  c #4A2920",
",  c #4B2920",
"<  c #4C2820",
"1  c #4C2920",
"2  c #4D2920",
"3  c #4E2920",
"4  c #4E2921",
"5  c #4E2A20",
"6  c #4F2A20",
"7  c #4E2A21",
"8  c #4F2A21",
"9  c #4E2B21",
"0  c #4F2B21",
"q  c #4D2920",
"w  c #502A20",
"e  c #502B20",
"r  c #512B20",
"t  c #502A21",
"y  c #512B21",
"u  c #522B20",
"i  c #522B21",
"p  c #512C20",
"a  c #512C21",
"s  c #522C20",
"d  c #532C20",
"f  c #522D20",
"g  c #532D20",
"h  c #522C21",
"j  c #532C21",
"k  c #532D21",
"l  c #522C22",
"z  c #532C22",
"x  c #532D22",
"c  c #532F23",
"v  c #542C20",
"b  c #542D20",
"n  c #552D20",
"m  c #542C21",
"M  c #542D21",
"N  c #552D21",
"B  c #562D20",
"V  c #552E20",
"C  c #562E20",
"Z  c #572E20",
"A  c #562F20",
"S  c #562E21",
"D  c #572E21",
"F  c #562F21",
"G  c #572F21",
"H  c #542D22",
"J  c #552D22",
"K  c #542E22",
"L  c #552E22",
"P  c #552F23",
"I  c #562E22",
"U  c #572E22",
"Y  c #562F22",
"T  c #572F22",
"R  c #542D21",
"E  c #582E20",
"W  c #582F20",
"Q  c #592F20",
"!  c #582F21",
"~  c #592F21",
"^  c #5A2F20",
"/  c #582F22",
"(  c #592F22",
")  c #592F21",
"_  c #573021",
"`  c #553022",
"'  c #553023",
"]  c #573023",
"[  c #573023",
"{  c #583020",
"}  c #583021",
"|  c #593021",
" . c #5A3020",
".. c #5A3021",
"X. c #5B3021",
"o. c #583022",
"O. c #593022",
"+. c #593122",
"@. c #593123",
"#. c #5A3022",
"$. c #5B3022",
"%. c #5A3122",
"&. c #5B3122",
"*. c #5A3123",
"=. c #5B3123",
"-. c #593223",
";. c #5B3323",
":. c #5C3120",
">. c #5C3121",
",. c #5F3320",
"<. c #5F3221",
"1. c #5F3321",
"2. c #5C3122",
"3. c #5C3222",
"4. c #5D3322",
"5. c #5C3323",
"6. c #5E3222",
"7. c #5F3222",
"8. c #5E3322",
"9. c #5F3322",
"0. c #5E3421",
"q. c #5E3423",
"w. c #5A3224",
"e. c #5B3224",
"r. c #5A3324",
"t. c #5C3224",
"y. c #5C3324",
"u. c #5D3324",
"i. c #5D3325",
"p. c #5D3424",
"a. c #5E3424",
"s. c #5F3424",
"d. c #5E3425",
"f. c #5F3525",
"g. c #5C3222",
"h. c #603322",
"j. c #613420",
"k. c #623521",
"l. c #633521",
"z. c #613423",
"x. c #633523",
"c. c #633623",
"v. c #673621",
"b. c #643522",
"n. c #663623",
"m. c #603625",
"M. c #613625",
"N. c #633625",
"B. c #633725",
"V. c #623523",
"C. c #673822",
"Z. c #633927",
"A. c #653925",
"S. c #653927",
"D. c #653925",
"F. c #683925",
"G. c #683B27",
"H. c #6B3C26",
"J. c #6A3B25",
"K. c #693C28",
"L. c #6E4028",
/* pixels */
"o O O 0 7 O o O D + D O o @ + D @ o 4.7 ^ = + D O.4.O D j.D $ D ` p f.f.O @.D D o D O . 7 O j.4.O O ",
"@ @ ^ o o p o O p 7 o O.O + 7 , & o 4.O @ O o @.^ n.o O.5.5.+ D D ^ D p O , p + O O.O.O p $ O.f.O o ",
"p D O O.o $ + & 7 O O.p D 7 @ , @ o ^ = O p O o ^ h.= O.+ + , D O D @ @ p o + O o , O.& @ + 7 7 = + ",
"O.u o p p $ @ O.p + O.o O + u O + o P o $ @ 7 + M.M.P u O D u u 4.D D j.+   7 o o . D @ + , o D @ + ",
"o p u o + D O.D @ + [ . O O = = o o m o @ o p D n.F.u + O @ u + b.4.@ + u 7 p 7 o . p 7 O p D p D + ",
"+ p ^ ] + p 5.D + D o o o D . o o o u O 7 o O.# G.b.O.p o $ + + @ a.O @ 7 @ @ l . = o o D p ^ o u 4.",
"h.@ @.O.@.7 p ^ o 0 . , . p . o O + + o + O ^ + S.j.@ o o A.7 O + @.o = O D ^ p = . . = p D O.+ D O ",
"f.5.^ , f.O P D @ ]   o o O o . X @ o . + $ @.o a.C.+ $ . @ p o $ a.+ o = D P @.0 o . o O.p O.4.7 p ",
"o o u 4.O + 4.^ D c   o o D = o o + o   @ m u o ^ M.p + . O @ O # & @ o o = 7 = u o O p + D 7 a.O o ",
"O 7 o D , , p 4.O.D = 7 o O ^ o o X o o + = u O Z.H.^ O o u + @ + b.X O o o o o = o O 7 O @ o O D @ ",
"+ O o o p + 7 u ^ O.p 4.o o $ o 3 o + o 3 + + + A.4.u D o p D [ + & o @ = o . .   o O O + D     D M.",
"a.p 7 o u + o o O D ^ u + o 4.. 7 @ O o + 7 7 = M.$ D o o ^ p @ o # o +   O o o o = @ p @ + o o = @.",
"7 O.^ O = o     @ O.p u O O 5.o P o + o $ 7 O O C.$ & o p D p u o $ + # o D u = u + O + o o @ + o . ",
"o D ^ $ o 7 o o @ o + h.O + f.o a.o @ 3 O.7 7 O * Z.O.@ @ D D O.o $ @ J.o ^ p O ^ @ 3 o . o + + = . ",
"@ = ^ O D + @ O + o p 4.= 7 ^ o ^ o ^ + F.7 @ 7 j.A.O.+ 7 + ^ $ o + ^ O.O p @ @ h.^ + = . , @ $ u @ ",
"4.o D # $ 7 $ # o X ^ + 7 u D o a.O 4.# M.7 O + # C.p O D D 7 @ 7 o $ ^ D 4.@ $ O.+ = D o O # h.4.D ",
"j.O Z.O.@ = 4.u o o ^ $ O p [ o ( = D b.@ + ^ O M.H.p O D @ O O + 4.7 D @ j.M.D D 7 o D , O @ & @ @ ",
"p & o u ^ o S.^ = . D 5.= p D . ( u ^ @ + + O O $ F.u + a.D + o + @ @ D O.p D u o = o M.o O + @ @ @ ",
"D @ O + f.o u = +   [ p u D @ o @.p O F.4.O O.o + J.+ @ D 4.+ . m D + o O.O.^ c . O = f.p + @ @ + # ",
"7 # + D D @ O o + . 7 o o @ @ o ( D + A.A.o $ o & C.+ p ^ @ 4.o D D O o D 7 D o . D + D + O + b.+ ^ ",
"7 u 7 [ a.D o + D +   . o @ j.. P a.O M.u o O @ @ # + + @ D O O $ 4.o . 7 =   o o o @ 4.$ O + D u D ",
"O D + @ D D . ^ O.@   o O @ c.O P u + D m . O + O + + $ u u & u O.^ O o o + o + O + $ H.p u O $ @ u ",
"@ @ @ p ^ D X + + 4.o + O.p Z.O ^ ^ 7 f.f.. 7 D @ # O $ p @ o u 4.^ O =   @ $ ^ # + p J.D D o 4.@ 3 ",
"O $ + O.h.D   O o @ + # + @ + o n.@.7 u u o @.O.# & @ + 7 O . + + p ^ O o ^ 4.$ + u p + D D . j.O.3 ",
"+ & & Z.j.u o O O [ & & [ D $ O J.D + + O o ^ + & @ 7 A.+ O . O O O O @ O O.z.A.& $ @ O p # . @ # + ",
"+ @ O.& & D o o @ @ @ j.+ @ $ + b.H.u 7 o . m + @ D O D @ u = O ^ + p 4.& D u @.O.$ C.@ O.+ . + h.7 ",
"D c.` + X A.o $ . O.F.@ p f.O @ $ # 7 7 o = p ^ $ ^ p D p p 7 [ h.+ + D 4.D D 4.& Z.Z.4.b.+ o O O.u ",
"@ c.@ 5.+ A.o + O @ D u O.r.O $ # @ u 7   o O @ 4.G.o D D f.D + @ O.O D O.^ , 4.4.f.H.O.H., O [ @ + ",
"+ O.u A.b.& o @ O.+ ^ 7 @ D @ u b.+ + @   $ + @ D S.o p + [ O.o + O D 7 M.[ = p 4.D @ @ F.O O + + O ",
"@ 4.D A.b.@ O O p @ [ + u D @ @ h.O @ @ . O.@ D p p = o @ $ $ o @ O D ^ a.o . o O.@ $ + # o O 7 # + ",
"o 4.O M.4.O.+ O o p O O + p + # 4.O + + o ^ # + @.D o O $ O + @ + ^ M.u o o . o o + 4.+ # = O + # j.",
"X O.O O.$ O.7 + o D + o $ O @ + @ O @.O o 4.^ o P ( o O + o O O @ $ m 7 O O + = o ^ j.O D p O O.4.@ ",
"o O p 4.# @ @ + o D O.O + O @ , # X M.@.O 4.D + D a.= 7 O   O = @ A.+ o + $ $ D + 5.M.+ O.+ 7 ^ * O ",
"o o u $ + @ u + o m u D @ O o + @ o M.f.o $ @ o P p D + = = X 7 + 4.@ O p ^ # ^ $ 7 ^ = @ + o ^ O + ",
"X o O f.o & p o o + m D 7 D o X @ @ 4.O 4.4.D O = + 5.$ o @.+ 7 + D ^ h.O O.4.D O.o @ o O 7 O M.o + ",
"p O o p + D c X o 7 D u o p O.o 7 + 4.4.O.a.O O.o o j.f.= 4.X 7 O ^ ^ O P M.^ u + o + o u 7 X O.+ + ",
"7 @ = ^ $ O.@.o @ O 7 u O 7 &   + O @ O p f.O + . o @.7 7 O.O + O D O., u p a.7 O 7 p o O O o [ + @ ",
"@ [ = j.4.4.O.7 $ + 7 O @ = + . @ + C.+ O D = ^   o ^ u u D 7 = X D D ] = = = + O + O O O + , + @ & ",
"O.# o O.4.D [ X u u O = + 7 O o p + M.O O u = u . o a.O O.& p 7 O ^ 7 7 o o . ^ @ O O o + + + u + 4.",
"5.& + ^ & F.u @ 7 o O o p , O . 7 4.C.= ^ u o + o   = + + O p = j.p p 7 O     O.$ O.+ + D o 7 $ + + ",
"p D @ p @ H.p X + + + o 3 7     m 4.b.= @ = . @ o . . u @ O u O + u @ 3 D o + m 4.D + O [ o [ $ O o ",
"D + O.@ M.L.O.o o + 4.p 3 = p   u A.b., O O o 4.o o o ^ + + u O D u O = + + O 7 O 5.+ o b.^ p j.X # ",
"u , D # n.5.o o O u A.7 O O D . O 4.@ 7 O O X j.O = + u O u 7 o h.7 $ 3 + @ # O   o o p b.O.+ O.o + ",
"o o p [ ^ @ O O 7 O ^ O @ @ O o = j.C.= O 7 7 M.O = @ O.O o u @ 4.7 O.O o # $ 7 O o @ O.f.$ @ D O + ",
". o + O 4.O & & p + O O p + D + O M.F.o $ @ D 5.= P O D = = u O A.7 $ @ O D $ 7 # O @ ^ F.j.D O o @ ",
"p O @ O O., ;.[ u . 7 @ @ @ D @ 7 4.j., o o o @ u M.@ + u D P o ^ 7 @ u u 4.j.7 @ 7 @ @ 5.D + A.7 O.",
"$ o O.+ @ O O.D D O O.O $ Z.D O 7 ^ n.o + $ o D u A.O O m u u @ @.7 @ u c z.^ o a.^ p 4.p 7 D M.p p ",
"@.@ + 7 [ o @.[ O 4.r.7 j.5.5.$ D D 4.o , O O D D O.O + D u u 4.u 7 O u u ^ D O 7 ^ + D 7 O [ u ^ a.",
"O o u + D o o o O p O @ O.p M.D D 7 4.O u + o O p @.3 D z.D 7 @ o 7 @ D u D D o , D o =   7 7 o p D ",
", 4.7 ^ D o   o O.. O.o O 7 @ D + O O.7 @.7 o O D ^ o m p u + a.@ 7 u M.7 ^ [ o o M.o . o D ^ $ 7 a."
};
