/* XPM */
static char *_3214d0904794d6bf4e74c9b23691192Kj903DvFYXtfXRdH[] = {
/* columns rows colors chars-per-pixel */
"50 50 119 2 ",
"   c #482D1E",
".  c #492E1E",
"X  c #4C2F1F",
"o  c #4C3020",
"O  c #4D3020",
"+  c #513221",
"@  c #533322",
"#  c #563524",
"$  c #583624",
"%  c #593725",
"&  c #5B3826",
"*  c #5D3926",
"=  c #5E3A27",
"-  c #5F3A27",
";  c #623D28",
":  c #633D29",
">  c #673F2A",
",  c #69402B",
"<  c #6A412C",
"1  c #6B412C",
"2  c #6A422C",
"3  c #6B422C",
"4  c #6C422C",
"5  c #6D432D",
"6  c #6E442D",
"7  c #6F442E",
"8  c #70452E",
"9  c #71452E",
"0  c #71462E",
"q  c #71462F",
"w  c #744730",
"e  c #754831",
"r  c #764831",
"t  c #774931",
"y  c #784A32",
"u  c #794A32",
"i  c #794B32",
"p  c #7A4B32",
"a  c #7B4B33",
"s  c #7C4C33",
"d  c #7D4D34",
"f  c #7E4E34",
"g  c #7F4E34",
"h  c #7F4F34",
"j  c #745340",
"k  c #775441",
"l  c #785845",
"z  c #756D63",
"x  c #757066",
"c  c #797167",
"v  c #7B7167",
"b  c #7E7064",
"n  c #7F7368",
"m  c #757A74",
"M  c #787B75",
"N  c #7A7C75",
"B  c #7C7C75",
"V  c #804F35",
"C  c #815035",
"Z  c #825035",
"A  c #825136",
"S  c #835136",
"D  c #845136",
"F  c #845236",
"G  c #855237",
"H  c #855337",
"J  c #865337",
"K  c #817B72",
"L  c #817B73",
"P  c #807E76",
"I  c #827E77",
"U  c #827F77",
"Y  c #77BECE",
"T  c #77C6D8",
"R  c #77CEE3",
"E  c #78CEE3",
"W  c #79CFE3",
"Q  c #7ACFE4",
"!  c #7BCFE4",
"~  c #7CD0E4",
"^  c #7DD0E4",
"/  c #7ED0E4",
"(  c #7ED0E5",
")  c #7FD0E5",
"_  c #7FD1E5",
"`  c #84CADB",
"'  c #89CCDC",
"]  c #95C8D4",
"[  c #97D0DF",
"{  c #80D1E5",
"}  c #81D1E5",
"|  c #82D1E5",
" . c #82D2E5",
".. c #83D2E5",
"X. c #84D2E6",
"o. c #85D3E6",
"O. c #86D3E6",
"+. c #87D3E6",
"@. c #88D3E6",
"#. c #88D4E7",
"$. c #8AD4E7",
"%. c #8BD4E7",
"&. c #8CD5E7",
"*. c #8DD5E7",
"=. c #8DD5E8",
"-. c #8ED5E8",
";. c #8FD6E8",
":. c #90D6E8",
">. c #91D6E8",
",. c #91D7E8",
"<. c #92D7E8",
"1. c #92D7E9",
"2. c #93D7E9",
"3. c #94D7E9",
"4. c #95D8E9",
"5. c #96D8E9",
"6. c #97D8EA",
"7. c #98D9EA",
"8. c #99D9EA",
/* pixels */
"- - - - - - - - ; - - ; - - ; ; * - - - ; ; * ; * * ; ; ; ; ; & - - - - - - ; - - - - - ; - - - - - ",
"- : , , , , , , , , > > 4 0 0 0 9 9 0 0 9 9 8 > * ; : > : > > : > < < < 6 0 0 0 0 0 0 0 0 0 0 0 > - ",
"- , w e e e e e e e e e f J J J J J G G J J J 8 ; ; > r r r r r e e w p J G H J J J J J J J J J 9 - ",
"- , e f Z Z Z Z Z Z Z Z V J J J J J J G J J J 8 * * > 9 V V D V Z Z Z J G G H J J J J J J J J J 9 - ",
"- , e Z J J J J J J J J J J J J J J D D J J J 8 ; ; > V V J J J H H H J J J G G J J J J J J J J 9 - ",
"- , e V J J J J J J J J J J J J J J D Z J J J 8 ; ; 9 J J J J J H H J J J J H G J J J J J J J J 9 - ",
"- 6 V J J J f p p p p p p p p p a u u 9 V g J 8 & ; 9 J V r V r p p p a g p p p p p p f J J J J 9 - ",
"- 0 J J J J p j z c n n n n n n K b K K h a J 8 ; & 9 V r a K K n n n n n b n n n b j a J J J J 9 - ",
"- 0 J J J J p z Y ' [ [ [ [ [ [ [ [ [ [ K p V 9 $ ; r J V L [ [ [ [ [ [ [ [ [ [ [ ] b p J J H H 9 - ",
"- 0 J J J J p x T %.8.8.8.8.8.8.8.8.8.8.I a J 9 $ ; > J r L 8.8.8.8.8.8.8.8.8.8.8.[ n p J J J H 9 - ",
"- 0 J J J J p x T %.8.8.8.8.8.8.8.8.8.8.I u J 9 ; $ > J V I 8.8.8.8.8.8.8.8.8.8.8.[ n p J J G Z 4 - ",
"- 0 J J J J p x T %.8.8.8.8.8.8.8.8.8.8.I u V 9 $ : r J r I 8.8.8.8.8.8.8.8.8.8.8.[ n f J J Z a < - ",
"- 0 J J J J p x T } =.6.8.8.8.8.8.8.8.8.I u D 9 * ; 0 J a I 8.8.8.8.8.8.8.8.8.8.8.[ n p J J Z e > ; ",
"- 0 J J J J p x T R / 3.8.8.8.8.8.8.8.8.I u D w * ; 0 J a L 3.6.8.8.8.8.8.8.8.8.8.[ n p J J Z e > ; ",
"- 0 J J J J p x T R / 3.8.8.8.8.8.8.8.8.I u J w ; * 9 V u M | >.8.8.8.8.8.8.8.8.8.[ n p H H Z w > ; ",
"- 0 J J J J p c ` ^ ! @.1.8.8.8.8.8.8.8.L a J > & ; w V u m E %.8.8.8.8.8.8.8.8.8.[ n p H G Z p > ; ",
"; 0 J J H H p n [  .R R #.8.8.8.8.8.8.8.I u V 9 ; * 0 J u m E %.6.6.6.8.8.8.8.8.8.[ K u J J Z e > - ",
"- 0 J J J H p n [ #.R R #.8.8.8.8.8.8.8.I u J 9 * ; 0 J u m E { } } =.8.8.8.8.8.8.[ K u J J Z e > - ",
"- 0 J J J J p n [ #.R R  .;.6.6.8.8.8.8.I p V 9 * ; 9 V p N { ! R R =.8.8.8.8.8.8.[ b t H H Z e > ; ",
"- 0 J J J J p n [  .R R R ~ 1.8.8.8.8.8.I p J 9 ; * 9 V p I 8.| R R %.8.8.8.8.8.8.] K p H H Z e > ; ",
"- 0 J J J J g n [ 1.#.~ R R } =.8.8.8.8.I u J 9 - - 0 J u I 3...R R %.8.8.8.8.8.8.[ H a H H Z e > : ",
"- 0 J J J H u b [ 8.,.~ R R R O.8.8.8.8.I u J 9 - - 0 Z u I 8...R R ..1.6.8.8.8.8.[ K V H H G a > : ",
"- 0 J J H H p n [ 8.,.~ ! R R O.8.8.8.8.I u V 9 - - 0 J p I 8...! R E } 6.8.8.8.8.[ K Z H J J H > * ",
"- 0 J J H H p n [ 8.6.%./ R R O.8.8.8.8.I u J 9 - - 0 Z p I 8.:...E E / 1.8.8.8.8.[ K > H H J J w ; ",
"- 0 J J J J p b [ 8.8.8.*.! R } 1.8.8.8.U e Z 0 - - 0 H p P 8.8.1./ ! } 1.8.8.8.8.[ K p J J J J 9 : ",
"- 0 J J J J u K [ 8.8.8.5.>./ ~ | 1.8.8.U p J 0 - - 0 H p I 8.8.8.1.} / 3.8.8.8.8.8.J p J J J J > ; ",
"- 0 J J D D u K [ 8.8.8.5.5.{ ! ! %.8.8.U w < - # & 0 Z p P 8.8.8.8...! @.1.6.8.8.[ K 9 J J J J w : ",
"- 0 J J D D t b [ 8.8.8.8.5.{ T ! %.3.8.U > o   X & 4 g p P 8.8.8.8.#.E R $.8.8.8.[ K Z J J J J > > ",
"* 4 J J J J V K [ 8.8.8.8.8.1...R ! $.8.U > O . . O @ & 6 P 8.8.8.8...E R $.8.8.8.[ K u J J J J > * ",
"* V J J J J 9 K [ 8.8.8.8.8.8.=.R R } 8.U 4 : % + + # : 6 I 8.8.8.8.&.} ! X.%.8.8.[ K V J J J J w ; ",
"- 9 J J D D t K [ 8.8.8.8.8.8.$.R R } 8.I p J 0 - - 0 J p U 8.8.8.8.8.:.! R ! 3.[ ] K > J J J J > > ",
"- 9 J D D Z 9 K >.8.8.8.8.8.8.$.R R / } N p Z 0 - - 0 Z p U 8.8.8.8.8.1.! R ' 8.8.] K u J J J J > > ",
"- 9 J J J J s K ] [ 8.8.8.8.8.<.| ! R R m e G 0 - - 0 J e U 8.8.8.8.8.1.~ R ~ ,.8.[ K 9 Z J J J 9 - ",
"- 9 J J J J s K [ 8.8.8.8.8.8.8.3.| R R m p Z 9 - - 0 Z p U 8.8.8.8.8.1.~ R ~ :.8.[ K p D D J J 9 - ",
"- 9 J J F F p b [ 8.8.8.8.8.8.8.8.1...R m p Z 9 - - 0 J p U 8.8.8.8.8.6.&.} ^ ,.8.[ K u J J J J 9 - ",
"- 9 J J F F p b [ 8.8.8.8.8.8.8.8.8.%.E m p G 0 - - 0 Z a U 8.8.8.8.8.8.8.%.^ ,.8.[ b u J J J J 9 - ",
"- 9 J J J J p K [ 8.8.8.8.8.8.8.8.8.%.! m u J 9 - - 0 Z p U 8.8.8.8.8.8.8...~ :.8.[ K 9 J J J J 9 - ",
"; 9 J J J J p K [ 8.8.8.8.8.8.8.8.8.3.@.B a J 9 - - 0 J p U 8.8.8.8.8.8.8.1.%.6.8.5.J V J J J J 9 - ",
"* 9 J J J J Z K [ 8.8.8.8.8.8.8.8.8.8.8.L p V 0 - - 0 Z p U 8.8.8.8.8.8.8.8.8.8.8.[ K 9 J J J J 9 - ",
"* 9 J J J J V H [ 8.8.8.8.8.8.8.8.8.8.8.I p J 9 - - 0 J e U 8.8.8.8.8.8.8.8.8.8.8.[ K V J J J J 9 - ",
"* 9 Z Z Z Z 9 K [ 8.8.8.8.8.8.8.8.8.8.8.L V J 9 ; * 9 D V K [ [ 8.8.8.8.8.5.[ [ 8.[ b 9 Z J J J 9 - ",
"* 9 D Z Z Z V K ] [ ] ] [ [ [ [ ] ] ] [ K a V 9 * ; 0 D p K [ ] [ [ [ 5.[ [ [ ] [ ] K p D D J J 9 - ",
"* 9 V Z J J 9 C b K b K K K K K K K K K k u V 9 * ; 9 D p k K K K K K H K K K K K K p p J J J J 9 - ",
"* > V Z J J Z Z p p t s 9 p p 0 w V 9 a a V J 9 ; * 6 V g p w V p 9 Z 9 V 9 V V p p t V J J J J 9 - ",
"* > V Z J J J J J J J J Z J J J J J J J J J J 9 * - > 0 Z J J J Z J J J J J J J J J J J J J J J 9 - ",
"; 4 9 Z J D J J J J J J Z J J J J J J J J J J 9 - - > u Z J J J J J J J J J J J J J J J J J J J 9 - ",
"* 4 9 Z Z D J J J J J J J J J J J J J J J J J 9 ; ; > u Z Z J J J J J J J J J J J J J J J J J J 9 - ",
"* 4 9 9 Z J J J J J J J J J J J J J J J J J V 9 * : > 0 9 Z J J J J J J J J J J J J J J J J J J 9 - ",
"- > 4 > 4 9 9 9 9 9 9 9 9 9 9 9 9 9 9 9 9 9 9 > - - > > 4 4 9 9 9 9 9 9 9 9 9 9 9 9 9 9 9 9 9 9 > - ",
"* * - - - - - - - - - - - - - - - - - - - - - - - - * * - * - - - - - - - - - - - - - - - - - - - - "
};
